<?xml version="1.0" encoding="utf-8"?>
<!-- Generator: Adobe Illustrator 18.0.0, SVG Export Plug-In . SVG Version: 6.00 Build 0)  -->
<!DOCTYPE svg PUBLIC "-//W3C//DTD SVG 1.1//EN" "http://www.w3.org/Graphics/SVG/1.1/DTD/svg11.dtd">
<svg version="1.1" id="Calque_1" xmlns="http://www.w3.org/2000/svg" xmlns:xlink="http://www.w3.org/1999/xlink" x="0px" y="0px"
	 viewBox="0 0 295 297" enable-background="new 0 0 295 297" xml:space="preserve">
<g>
	<path fill="#F4C78C" d="M195.7,196.3c-0.2-0.2-0.6-0.4-1.3-0.5c-0.7-0.1-1.1-0.2-1.3-0.4c-1.3-0.5-2.1-0.8-2.5-0.8
		c0.1-0.5,0-0.9-0.3-1.4c-0.2-0.4-0.5-0.7-0.8-0.9c-0.3-0.2-0.7-0.5-1.3-0.8c-0.6-0.3-0.9-0.6-1.1-0.7c-0.1-0.1-0.4-0.3-0.7-0.6
		c-0.3-0.3-0.6-0.5-0.7-0.6c-0.1-0.1-0.4-0.3-0.8-0.5c-0.4-0.2-0.7-0.3-0.9-0.2c-0.2,0.1-0.6,0.1-1,0.1l-0.3,0.1
		c-0.2,0.1-0.4,0.2-0.6,0.3c-0.2,0.1-0.4,0.2-0.6,0.3c-0.2,0.1-0.3,0.2-0.4,0.3c-0.1,0.1-0.1,0.2,0,0.3c-1.5-1.2-2.7-1.9-3.8-2.3
		c-0.3-0.1-0.7-0.3-1.1-0.6c-0.4-0.3-0.8-0.6-1.1-0.7c-0.3-0.2-0.7-0.2-1-0.2c-0.4,0.1-0.8,0.3-1.2,0.7c-0.3,0.3-0.6,0.9-0.6,1.6
		c-0.1,0.7-0.1,1.1-0.2,1.4c-0.5-0.3-0.5-1,0-1.8c0.5-0.9,0.6-1.5,0.2-1.9c-0.2-0.4-0.6-0.6-1.1-0.5c-0.5,0.1-0.9,0.3-1.3,0.5
		c-0.2,0.1-0.3,0.2-0.5,0.4l12.8,20.6C187,204.4,191.5,200.7,195.7,196.3z"/>
	<path fill="#F4C78C" d="M107.4,81.1c12.3-7.2,25.7-10.7,40.2-10.7c14.5,0,27.9,3.6,40.2,10.7c12.3,7.2,22,16.9,29.1,29.1
		c7.2,12.3,10.7,25.7,10.7,40.2c0,14.5-3.6,27.9-10.7,40.2c-6.9,11.8-16.1,21.2-27.7,28.2l31.9,51.2c40.8-24.9,68-69.7,68-121
		c0-78.2-63.4-141.6-141.6-141.6c-28,0-54.2,8.2-76.2,22.2l33.2,53.3C105.4,82.2,106.4,81.6,107.4,81.1z"/>
	<path fill="#F4C78C" d="M149.1,154.4c0.2,0.2,0.7,0.4,1.6,0.5c0.9,0.1,1.5,0.3,1.8,0.5c0.2,0.1,0.5,0.3,0.7,0.6
		c0.3,0.2,0.5,0.4,0.6,0.5c0.1,0.1,0.3,0.1,0.5-0.1c0.2-0.1,0.5-0.3,0.9-0.7c0.7,1,1.1,1.8,1.3,2.5c0.8,2.8,1.4,4.3,2,4.6
		c0.5,0.2,0.9,0.3,1.1,0.2c0.3-0.1,0.4-0.4,0.5-1c0-0.6,0-1.1,0-1.5c0-0.4-0.1-0.8-0.2-1.3l-0.1-0.8c0-0.6,0-1.3,0-1.9l-0.1-0.8
		c-1-0.2-1.7-0.6-1.9-1.3c-0.2-0.6-0.2-1.3,0.2-1.9c0.3-0.7,0.9-1.3,1.6-1.9c0.1-0.1,0.3-0.2,0.8-0.4c0.5-0.2,1-0.4,1.6-0.7
		c0.6-0.3,1-0.6,1.3-0.8c1.5-1.3,2-2.5,1.6-3.6c0.5,0,0.9-0.3,1.1-0.9c-0.1,0-0.2-0.1-0.5-0.3c-0.3-0.2-0.5-0.4-0.8-0.5
		c-0.2-0.1-0.4-0.2-0.5-0.2c0.6-0.3,0.7-0.9,0.2-1.7c0.3-0.2,0.6-0.6,0.8-1.1c0.2-0.6,0.4-0.9,0.8-1c0.6,0.8,1.4,0.9,2.2,0.2
		c0.5-0.6,0.5-1.1,0.1-1.7c0.3-0.5,1.1-0.9,2.1-1.1c1.1-0.2,1.7-0.6,1.9-1c0.5,0.1,0.8,0.1,0.8-0.2c0.1-0.3,0.1-0.7,0.1-1.3
		c0-0.6,0.1-1,0.3-1.3c0.3-0.3,0.8-0.7,1.6-0.9c0.8-0.3,1.2-0.4,1.4-0.5l1.8-1.1c0.2-0.3,0.2-0.4,0-0.4c1.3,0.1,2.3-0.2,3.2-1.1
		c0.7-0.8,0.5-1.5-0.6-2.1c0.2-0.4,0.1-0.7-0.3-1c-0.4-0.2-0.9-0.4-1.6-0.6c0.2-0.1,0.6-0.1,1.2-0.1c0.6,0,1,0,1.1-0.2
		c1-0.7,0.8-1.2-0.7-1.7c-1.2-0.3-2.7,0.1-4.5,1.3c-0.1,0.1-0.5,0.4-1,1c-0.5,0.5-0.9,0.9-1.3,1c0,0-0.1,0-0.1,0c0,0,0.1,0,0.1,0
		c0.1-0.1,0.2-0.2,0.4-0.5c0.2-0.3,0.3-0.7,0.5-1.1c0.2-0.4,0.3-0.7,0.4-0.7c0.4-0.5,1.2-1,2.3-1.6c1-0.4,2.8-0.8,5.4-1.3
		c2.4-0.6,4.1-0.2,5.3,1.1c-0.1-0.1,0.2-0.6,1-1.4c0.8-0.8,1.3-1.2,1.5-1.3c0.2-0.1,0.7-0.3,1.6-0.5c0.8-0.2,1.4-0.4,1.6-0.8
		l0.2-2.3c-0.8,0.1-1.4-0.2-1.8-0.7c-0.4-0.6-0.6-1.3-0.7-2.2c0,0.1-0.2,0.4-0.6,0.8c0-0.5-0.2-0.8-0.5-0.8c-0.3-0.1-0.7,0-1.2,0.1
		c-0.5,0.1-0.8,0.2-0.9,0.1c-0.7-0.2-1.2-0.5-1.6-0.8c-0.3-0.3-0.6-0.9-0.8-1.7c-0.2-0.8-0.3-1.4-0.4-1.6c-0.1-0.3-0.5-0.7-1-1.1
		c-0.5-0.4-0.9-0.7-1-1.1c-0.1-0.1-0.2-0.3-0.3-0.6s-0.2-0.5-0.3-0.7c-0.1-0.2-0.2-0.4-0.4-0.6c-0.2-0.2-0.4-0.3-0.6-0.3
		c-0.2,0-0.5,0.2-0.7,0.5c-0.3,0.3-0.5,0.7-0.8,1c-0.2,0.3-0.4,0.5-0.5,0.5c-0.2-0.1-0.4-0.2-0.6-0.2c-0.2,0-0.4,0.1-0.5,0.1
		c-0.1,0-0.3,0.1-0.5,0.3c-0.2,0.2-0.4,0.3-0.5,0.4c-0.2,0.1-0.5,0.2-0.9,0.3c-0.4,0.1-0.7,0.1-0.9,0.2c1-0.3,1-0.7-0.1-1.1
		c-0.7-0.3-1.3-0.4-1.7-0.3c0.6-0.3,0.9-0.7,0.8-1.3c-0.1-0.6-0.4-1-0.9-1.5h0.5c-0.1-0.3-0.4-0.6-0.9-0.9c-0.5-0.3-1.1-0.6-1.8-0.9
		c-0.7-0.3-1.1-0.5-1.4-0.6c-0.6-0.3-1.7-0.7-3.5-1c-1.8-0.3-3-0.3-3.4-0.1c-0.3,0.4-0.5,0.8-0.5,1.1c0,0.3,0.2,0.8,0.4,1.5
		c0.2,0.7,0.4,1.1,0.4,1.3c0.1,0.4-0.1,0.9-0.6,1.4c-0.5,0.5-0.7,0.9-0.7,1.3c0,0.5,0.5,1,1.5,1.6c1,0.6,1.3,1.3,1,2.2
		c-0.2,0.6-0.8,1.1-1.7,1.7c-0.9,0.6-1.5,1-1.7,1.3c-0.3,0.6-0.4,1.2-0.2,1.9c0.2,0.7,0.6,1.3,1.1,1.7c0.1,0.1,0.2,0.3,0.2,0.4
		c0,0.1-0.2,0.3-0.4,0.5c-0.2,0.2-0.4,0.3-0.6,0.4c-0.2,0.1-0.4,0.2-0.7,0.4l-0.3,0.2c-0.8,0.3-1.5,0.1-2.1-0.6
		c-0.7-0.8-1.1-1.7-1.4-2.7c-0.5-1.7-1-2.8-1.7-3.1c-1.6-0.6-2.6-0.5-3,0.1c-0.3-0.9-1.8-1.8-4.3-2.7c-1.7-0.6-3.8-0.8-6-0.4
		c0.4-0.1,0.4-0.6,0-1.6c-0.5-1-1.1-1.5-2-1.3c0.2-0.4,0.3-1,0.4-1.8c0.1-0.8,0.1-1.3,0.1-1.4c0.2-0.9,0.6-1.7,1.3-2.4
		c0.1-0.1,0.3-0.4,0.7-0.9c0.4-0.5,0.7-1,1-1.4c0.2-0.4,0.3-0.6,0.1-0.6c2.4,0.3,4.2-0.1,5.2-1.1c0.3-0.3,0.7-0.9,1.2-1.8
		c0.4-0.8,0.8-1.4,1.1-1.8c0.6-0.4,1.1-0.6,1.5-0.6c0.3,0,0.8,0.2,1.5,0.6c0.7,0.3,1.2,0.5,1.5,0.5c1,0.1,1.5-0.3,1.6-1.1
		c0.1-0.8-0.2-1.5-0.8-2.1c0.8,0.1,0.9-0.5,0.3-1.8c-0.3-0.5-0.6-0.8-0.8-0.9c-0.8-0.3-1.8-0.1-2.8,0.5c-0.6,0.3-0.5,0.6,0.2,0.8
		c-0.1-0.1-0.4,0.3-1,1.1c-0.6,0.8-1.2,1.4-1.7,1.8c-0.6,0.4-1.1,0.2-1.7-0.5c-0.1-0.1-0.3-0.5-0.6-1.4c-0.3-0.9-0.6-1.3-1-1.4
		c-0.6,0-1.1,0.5-1.7,1.6c0.2-0.6-0.2-1.1-1.1-1.6c-1-0.5-1.8-0.8-2.5-0.8c1.3-0.8,1-1.8-0.8-2.8c-0.5-0.3-1.2-0.5-2.1-0.5
		c-0.9-0.1-1.6,0.1-2,0.4c-0.3,0.5-0.5,0.9-0.6,1.2c0,0.3,0.1,0.6,0.5,0.8c0.4,0.2,0.7,0.4,1.1,0.6c0.3,0.1,0.7,0.3,1.2,0.4
		c0.4,0.1,0.7,0.2,0.9,0.3c1,0.7,1.2,1.2,0.8,1.5c-0.1,0.1-0.4,0.2-0.9,0.4c-0.5,0.2-0.9,0.3-1.2,0.5c-0.3,0.1-0.6,0.3-0.6,0.4
		c-0.2,0.3-0.2,0.8,0,1.5c0.2,0.7,0.1,1.2-0.2,1.5c-0.3-0.3-0.7-1-0.9-1.8c-0.3-0.9-0.5-1.4-0.7-1.7c0.5,0.6-0.4,0.8-2.6,0.6l-1-0.1
		c-0.3,0-0.8,0.1-1.7,0.2c-0.8,0.1-1.5,0.2-2.1,0.1c-0.6-0.1-1.1-0.3-1.4-0.8c-0.3-0.6-0.3-1.3,0-2.1c0.1-0.3,0.2-0.3,0.4-0.2
		c-0.3-0.2-0.7-0.5-1.1-1c-0.5-0.5-0.8-0.7-1-0.9c-3.2,1-6.5,2.5-9.8,4.3c0.4,0.1,0.8,0,1.3-0.1c0.3-0.1,0.8-0.4,1.4-0.7
		c0.6-0.3,0.9-0.5,1-0.6c2.4-1,3.8-1.2,4.4-0.7l0.5-0.5c1,1.1,1.7,2,2.1,2.6c-0.5-0.3-1.5-0.3-3.1-0.1c-1.4,0.4-2.2,0.8-2.3,1.3
		c0.5,0.8,0.7,1.5,0.5,1.9c-0.3-0.2-0.7-0.6-1.2-1c-0.5-0.5-1-0.9-1.5-1.1c-0.5-0.3-1-0.5-1.6-0.5c-1.1,0-1.9,0-2.3,0.1
		c-1.4,0.7-2.7,1.5-4,2.4L149.1,154.4C149.1,154.4,149.1,154.4,149.1,154.4z"/>
	<path fill="#503614" d="M216.8,190.5c7.2-12.3,10.7-25.7,10.7-40.2c0-14.5-3.6-27.9-10.7-40.2c-7.2-12.3-16.9-22-29.1-29.1
		c-12.3-7.2-25.7-10.7-40.2-10.7c-14.5,0-27.9,3.6-40.2,10.7c-1,0.6-1.9,1.2-2.9,1.8l7.1,11.4c1.3-0.8,2.6-1.6,4-2.4
		c0.4-0.1,1.2-0.1,2.3-0.1c0.6,0.1,1.1,0.2,1.6,0.5c0.5,0.3,1,0.7,1.5,1.1c0.5,0.5,0.9,0.8,1.2,1c0.1-0.4,0-1-0.5-1.9
		c0.1-0.4,0.9-0.8,2.3-1.3c1.6-0.2,2.6-0.2,3.1,0.1c-0.4-0.6-1.1-1.5-2.1-2.6l-0.5,0.5c-0.6-0.5-2-0.2-4.4,0.7
		c-0.1,0.1-0.5,0.3-1,0.6c-0.6,0.3-1,0.5-1.4,0.7c-0.4,0.1-0.8,0.2-1.3,0.1c3.3-1.8,6.6-3.2,9.8-4.3c0.2,0.1,0.6,0.4,1,0.9
		c0.5,0.5,0.9,0.8,1.1,1c-0.2-0.1-0.3-0.1-0.4,0.2c-0.3,0.8-0.3,1.5,0,2.1c0.3,0.5,0.8,0.8,1.4,0.8c0.6,0.1,1.3,0,2.1-0.1
		c0.8-0.1,1.4-0.2,1.7-0.2l1,0.1c2.2,0.2,3.1,0,2.6-0.6c0.2,0.3,0.5,0.9,0.7,1.7c0.3,0.9,0.6,1.5,0.9,1.8c0.3-0.3,0.4-0.8,0.2-1.5
		c-0.2-0.7-0.2-1.2,0-1.5c0.1-0.1,0.3-0.3,0.6-0.4c0.3-0.1,0.7-0.3,1.2-0.5c0.5-0.2,0.7-0.3,0.9-0.4c0.4-0.3,0.1-0.8-0.8-1.5
		c-0.1-0.1-0.4-0.2-0.9-0.3c-0.5-0.1-0.9-0.3-1.2-0.4c-0.3-0.1-0.7-0.3-1.1-0.6c-0.4-0.2-0.6-0.5-0.5-0.8c0-0.3,0.2-0.7,0.6-1.2
		c0.4-0.3,1.1-0.5,2-0.4c0.9,0.1,1.6,0.2,2.1,0.5c1.9,1,2.2,2,0.8,2.8c0.7,0.1,1.5,0.3,2.5,0.8c1,0.5,1.4,1,1.1,1.6
		c0.6-1,1.1-1.6,1.7-1.6c0.3,0.1,0.7,0.5,1,1.4c0.3,0.9,0.5,1.3,0.6,1.4c0.6,0.8,1.1,0.9,1.7,0.5c0.6-0.4,1.1-1,1.7-1.8
		c0.6-0.8,0.9-1.2,1-1.1c-0.7-0.3-0.8-0.6-0.2-0.8c1-0.6,2-0.8,2.8-0.5c0.2,0.1,0.5,0.5,0.8,0.9c0.6,1.3,0.5,1.8-0.3,1.8
		c0.6,0.6,0.9,1.3,0.8,2.1c-0.1,0.8-0.6,1.2-1.6,1.1c-0.3,0-0.9-0.2-1.5-0.5c-0.7-0.3-1.2-0.5-1.5-0.6c-0.3,0-0.8,0.2-1.5,0.6
		c-0.3,0.3-0.6,0.9-1.1,1.8c-0.5,0.8-0.9,1.4-1.2,1.8c-1,1-2.8,1.4-5.2,1.1c0.2,0,0.2,0.2-0.1,0.6c-0.2,0.4-0.6,0.9-1,1.4
		c-0.4,0.5-0.7,0.8-0.7,0.9c-0.6,0.7-1,1.5-1.3,2.4c0,0.1,0,0.6-0.1,1.4c-0.1,0.8-0.2,1.4-0.4,1.8c0.8-0.2,1.5,0.2,2,1.3
		c0.4,1,0.4,1.5,0,1.6c2.3-0.3,4.3-0.2,6,0.4c2.5,0.9,3.9,1.8,4.3,2.7c0.4-0.6,1.4-0.7,3-0.1c0.6,0.3,1.2,1.4,1.7,3.1
		c0.3,1,0.7,1.9,1.4,2.7c0.7,0.8,1.4,1,2.1,0.6l0.3-0.2c0.3-0.1,0.5-0.3,0.7-0.4c0.2-0.1,0.4-0.2,0.6-0.4c0.2-0.2,0.3-0.3,0.4-0.5
		c0-0.1,0-0.3-0.2-0.4c-0.5-0.4-0.9-1-1.1-1.7c-0.2-0.7-0.2-1.4,0.2-1.9c0.2-0.3,0.8-0.7,1.7-1.3c0.9-0.6,1.5-1.1,1.7-1.7
		c0.3-0.9-0.1-1.6-1-2.2c-1-0.6-1.5-1.1-1.5-1.6c0-0.3,0.2-0.8,0.7-1.3c0.5-0.5,0.6-0.9,0.6-1.4c0-0.2-0.1-0.6-0.4-1.3
		c-0.2-0.7-0.4-1.1-0.4-1.5c0-0.3,0.1-0.7,0.5-1.1c0.5-0.3,1.6-0.3,3.4,0.1c1.8,0.3,3,0.6,3.5,1c0.2,0.1,0.7,0.3,1.4,0.6
		c0.7,0.3,1.3,0.6,1.8,0.9c0.5,0.3,0.8,0.6,0.9,0.9h-0.5c0.5,0.4,0.8,0.9,0.9,1.5c0.1,0.6-0.2,1-0.8,1.3c0.4-0.1,1,0,1.7,0.3
		c1.1,0.4,1.1,0.8,0.1,1.1c0.2-0.1,0.5-0.1,0.9-0.2c0.4-0.1,0.7-0.2,0.9-0.3c0.1-0.1,0.3-0.2,0.5-0.4c0.2-0.2,0.4-0.3,0.5-0.3
		c0.1,0,0.3-0.1,0.5-0.1c0.2,0,0.4,0,0.6,0.2c0.1,0,0.2-0.2,0.5-0.5c0.2-0.3,0.5-0.7,0.8-1c0.3-0.3,0.5-0.5,0.7-0.5
		c0.2,0,0.4,0.1,0.6,0.3c0.2,0.2,0.3,0.4,0.4,0.6c0.1,0.2,0.2,0.4,0.3,0.7s0.2,0.4,0.3,0.6c0.1,0.3,0.5,0.7,1,1.1
		c0.5,0.4,0.8,0.7,1,1.1c0.1,0.2,0.2,0.7,0.4,1.6c0.2,0.8,0.5,1.4,0.8,1.7c0.3,0.3,0.9,0.6,1.6,0.8c0.1,0.1,0.4,0,0.9-0.1
		c0.5-0.1,0.9-0.2,1.2-0.1c0.3,0.1,0.5,0.3,0.5,0.8c0.4-0.4,0.6-0.7,0.6-0.8c0.1,0.9,0.3,1.6,0.7,2.2c0.4,0.6,1,0.8,1.8,0.7
		l-0.2,2.3c-0.2,0.3-0.7,0.6-1.6,0.8c-0.8,0.2-1.4,0.3-1.6,0.5c-0.2,0.1-0.7,0.5-1.5,1.3c-0.8,0.8-1.1,1.2-1,1.4
		c-1.2-1.3-3-1.7-5.3-1.1c-2.6,0.4-4.4,0.8-5.4,1.3c-1.1,0.6-1.9,1.1-2.3,1.6c-0.1,0.1-0.2,0.3-0.4,0.7c-0.2,0.4-0.3,0.8-0.5,1.1
		c-0.1,0.3-0.3,0.4-0.4,0.5c0.4-0.1,0.8-0.4,1.3-1c0.5-0.6,0.8-0.9,1-1c1.8-1.2,3.3-1.6,4.5-1.3c1.5,0.4,1.8,1,0.7,1.7
		c-0.1,0.1-0.5,0.2-1.1,0.2c-0.6,0-1,0-1.2,0.1c0.6,0.1,1.1,0.3,1.6,0.6c0.4,0.2,0.5,0.6,0.3,1c1.1,0.6,1.3,1.3,0.6,2.1
		c-0.9,0.9-2,1.3-3.2,1.1c0.2,0,0.2,0.1,0,0.4l-1.8,1.1c-0.1,0.1-0.6,0.2-1.4,0.5c-0.8,0.3-1.3,0.6-1.6,0.9
		c-0.2,0.3-0.3,0.7-0.3,1.3c0,0.6,0,1-0.1,1.3c-0.1,0.3-0.3,0.3-0.8,0.2c-0.2,0.4-0.9,0.7-1.9,1c-1.1,0.2-1.8,0.6-2.1,1.1
		c0.4,0.6,0.4,1.1-0.1,1.7c-0.8,0.7-1.6,0.6-2.2-0.2c-0.3,0.1-0.6,0.5-0.8,1c-0.2,0.6-0.4,0.9-0.8,1.1c0.5,0.8,0.4,1.3-0.2,1.7
		c0.1,0,0.2,0.1,0.5,0.2c0.2,0.1,0.5,0.3,0.8,0.5c0.3,0.2,0.5,0.3,0.5,0.3c-0.3,0.6-0.7,0.9-1.1,0.9c0.4,1.1-0.1,2.3-1.6,3.6
		c-0.3,0.3-0.7,0.6-1.3,0.8c-0.6,0.3-1.1,0.5-1.6,0.7c-0.5,0.2-0.8,0.3-0.8,0.4c-0.7,0.6-1.2,1.3-1.6,1.9c-0.3,0.7-0.4,1.3-0.2,1.9
		c0.2,0.6,0.9,1,1.9,1.3l0.1,0.8c0,0.6,0,1.2,0,1.9l0.1,0.8c0.1,0.5,0.1,0.9,0.2,1.3c0,0.4,0,0.9,0,1.5c0,0.6-0.2,0.9-0.5,1
		c-0.3,0.1-0.7,0-1.1-0.2c-0.6-0.3-1.2-1.8-2-4.6c-0.1-0.7-0.6-1.5-1.3-2.5c-0.3,0.3-0.6,0.6-0.9,0.7c-0.2,0.1-0.4,0.1-0.5,0.1
		c-0.1-0.1-0.3-0.2-0.6-0.5c-0.3-0.2-0.5-0.4-0.7-0.6c-0.3-0.2-1-0.4-1.8-0.5c-0.9-0.1-1.4-0.3-1.6-0.5c0,0,0,0,0,0l20.2,32.4
		c0.2-0.1,0.4-0.3,0.5-0.4c0.3-0.2,0.7-0.4,1.3-0.5c0.5-0.1,0.9,0.1,1.1,0.5c0.3,0.4,0.3,1.1-0.2,1.9c-0.5,0.9-0.5,1.5,0,1.8
		c0.1-0.2,0.1-0.7,0.2-1.4c0.1-0.7,0.3-1.2,0.6-1.6c0.4-0.4,0.8-0.7,1.2-0.7c0.4-0.1,0.7,0,1,0.2c0.3,0.2,0.7,0.4,1.1,0.7
		c0.4,0.3,0.8,0.5,1.1,0.6c1,0.3,2.3,1.1,3.8,2.3c-0.1-0.1-0.1-0.2,0-0.3c0.1-0.1,0.2-0.2,0.4-0.3c0.2-0.1,0.4-0.2,0.6-0.3
		c0.2-0.1,0.4-0.2,0.6-0.3l0.3-0.1c0.5,0,0.8,0,1-0.1c0.2-0.1,0.5,0,0.9,0.2c0.4,0.2,0.6,0.4,0.8,0.5c0.1,0.1,0.4,0.3,0.7,0.6
		c0.3,0.3,0.6,0.5,0.7,0.6c0.2,0.1,0.6,0.4,1.1,0.7c0.6,0.3,1,0.6,1.3,0.8c0.3,0.2,0.6,0.5,0.8,0.9c0.2,0.4,0.3,0.9,0.3,1.4
		c0.4,0.1,1.3,0.3,2.5,0.8c0.2,0.1,0.6,0.3,1.3,0.4c0.7,0.1,1.1,0.3,1.3,0.5c-4.2,4.4-8.7,8.1-13.6,11.1l7.1,11.4
		C200.7,211.7,210,202.3,216.8,190.5z"/>
	<path fill="#503614" d="M173.8,126.6c0,0-0.1,0-0.1,0C173.7,126.6,173.8,126.6,173.8,126.6z"/>
	<path fill="#F4C78C" d="M5.8,149c0,78.2,63.4,141.6,141.6,141.6c27,0,52.2-7.5,73.7-20.6l-31.9-51.2c-0.5,0.3-1,0.6-1.5,0.9
		c-12.3,7.2-25.7,10.7-40.2,10.7c-14.5,0-27.9-3.6-40.2-10.7c-12.3-7.2-22-16.9-29.1-29.1c-7.2-12.3-10.7-25.7-10.7-40.2
		c0-14.5,3.6-27.9,10.7-40.2c6.6-11.3,15.3-20.4,26.2-27.4L71.3,29.6C31.9,54.7,5.8,98.8,5.8,149z"/>
	<path opacity="0.2" fill="#FFFFFF" d="M5.8,149c0,78.2,63.4,141.6,141.6,141.6c27,0,52.2-7.5,73.7-20.6l-31.9-51.2
		c-0.5,0.3-1,0.6-1.5,0.9c-12.3,7.2-25.7,10.7-40.2,10.7c-14.5,0-27.9-3.6-40.2-10.7c-12.3-7.2-22-16.9-29.1-29.1
		c-7.2-12.3-10.7-25.7-10.7-40.2c0-14.5,3.6-27.9,10.7-40.2c6.6-11.3,15.3-20.4,26.2-27.4L71.3,29.6C31.9,54.7,5.8,98.8,5.8,149z"/>
	<path fill="#F4C78C" d="M167.6,188c-0.1,0.1-0.4,0.3-0.9,0.6c-0.5,0.3-0.7,0.6-0.9,0.8c-0.2,0.3-0.4,0.7-0.6,1.3
		c-0.2,0.6-0.4,0.9-0.5,1.1c-0.1-0.3-0.5-0.5-1.2-0.7c-0.7-0.2-1-0.4-1-0.6c0.1,0.7,0.3,1.9,0.4,3.6c0.1,1.7,0.3,3.1,0.5,4
		c0.5,2.2,0.1,3.8-1.3,5c-1.9,1.7-2.9,3.1-3,4.2c-0.3,1.5,0.1,2.4,1.3,2.7c0,0.5-0.3,1.2-0.8,2.1c-0.6,0.9-0.8,1.7-0.7,2.2
		c0,0.4,0.1,1,0.2,1.7c8.4-1.5,16.1-4.3,23-8.6l-12.8-20.6c-0.2,0.1-0.4,0.3-0.7,0.5C168.1,187.7,167.8,187.9,167.6,188z"/>
	<path opacity="0.2" fill="#FFFFFF" d="M167.6,188c-0.1,0.1-0.4,0.3-0.9,0.6c-0.5,0.3-0.7,0.6-0.9,0.8c-0.2,0.3-0.4,0.7-0.6,1.3
		c-0.2,0.6-0.4,0.9-0.5,1.1c-0.1-0.3-0.5-0.5-1.2-0.7c-0.7-0.2-1-0.4-1-0.6c0.1,0.7,0.3,1.9,0.4,3.6c0.1,1.7,0.3,3.1,0.5,4
		c0.5,2.2,0.1,3.8-1.3,5c-1.9,1.7-2.9,3.1-3,4.2c-0.3,1.5,0.1,2.4,1.3,2.7c0,0.5-0.3,1.2-0.8,2.1c-0.6,0.9-0.8,1.7-0.7,2.2
		c0,0.4,0.1,1,0.2,1.7c8.4-1.5,16.1-4.3,23-8.6l-12.8-20.6c-0.2,0.1-0.4,0.3-0.7,0.5C168.1,187.7,167.8,187.9,167.6,188z"/>
	<path fill="#F4C78C" d="M91,115c0.5,0.5,0.9,0.8,1.3,0.8c0.3,0.1,0.5,0.4,0.5,0.9c0.1,0.6,0.2,0.9,0.3,1.1c0.1,0.2,0.5,0.1,1.2-0.3
		c0.6,0.6,0.7,1.2,0.3,2c0.1-0.1,1.6,0.9,4.6,2.8c1.3,1.2,2,1.9,2.2,2.2c0.2,0.8-0.1,1.4-1,1.9c-0.1-0.1-0.4-0.4-0.9-0.9
		c-0.6-0.5-0.9-0.6-0.9-0.4c-0.2,0.3-0.2,1,0.1,1.9c0.2,0.9,0.6,1.4,1.1,1.3c-0.5,0-0.8,0.6-1,1.7c-0.2,1.1-0.3,2.3-0.3,3.7
		c0,1.4,0,2.2-0.1,2.4l0.2,0.1c-0.2,0.8,0,2,0.6,3.6c0.6,1.6,1.3,2.2,2.2,2c-0.9,0.2-0.2,1.7,2.1,4.5c0.4,0.6,0.7,0.9,0.8,0.9
		c0.2,0.1,0.6,0.4,1.3,0.8c0.6,0.4,1.1,0.7,1.6,1c0.4,0.3,0.8,0.7,1,1.1c0.3,0.3,0.6,1.1,1,2.3c0.4,1.2,0.9,2,1.5,2.4
		c-0.1,0.4,0.2,1.1,1,2.1c0.8,1,1.2,1.8,1.1,2.4c-0.1,0-0.2,0-0.3,0.1c-0.1,0.1-0.2,0.1-0.3,0.1c0.2,0.5,0.7,1,1.6,1.5
		c0.9,0.5,1.4,0.9,1.6,1.4c0.1,0.2,0.1,0.6,0.2,1c0.1,0.5,0.2,0.9,0.3,1.1c0.1,0.3,0.4,0.3,0.8,0.2c0.1-1.4-0.7-3.5-2.5-6.5
		c-1-1.7-1.6-2.7-1.8-3c-0.2-0.3-0.4-0.9-0.6-1.6c-0.2-0.7-0.3-1.2-0.5-1.5c0.1,0,0.3,0.1,0.6,0.2c0.3,0.1,0.6,0.2,0.9,0.4
		c0.3,0.1,0.6,0.3,0.8,0.4c0.2,0.1,0.3,0.2,0.2,0.3c-0.2,0.5-0.1,1.1,0.2,1.8c0.3,0.7,0.8,1.4,1.3,1.9c0.5,0.6,1.1,1.2,1.8,2
		c0.7,0.8,1.1,1.2,1.3,1.4c0.4,0.4,0.9,1.1,1.5,2c0.6,0.9,0.6,1.4,0,1.4c0.6,0,1.3,0.3,2.1,1c0.8,0.7,1.4,1.4,1.8,2.1
		c0.3,0.6,0.6,1.5,0.8,2.7c0.2,1.3,0.4,2.1,0.5,2.5c0.1,0.5,0.4,1,0.9,1.4c0.5,0.5,0.9,0.8,1.3,1c0.4,0.2,1,0.5,1.7,0.8
		c0.7,0.3,1.1,0.6,1.4,0.7c0.3,0.1,1,0.5,1.9,1.1c0.9,0.6,1.7,1,2.2,1.2c0.7,0.3,1.3,0.4,1.7,0.4c0.4,0,0.9-0.1,1.5-0.3
		c0.6-0.2,1.1-0.3,1.4-0.4c1-0.1,2,0.4,3,1.6c1,1.2,1.7,1.9,2.2,2.2c2.5,1.3,4.4,1.7,5.7,1.1c-0.1,0.1-0.1,0.3,0.1,0.8
		c0.2,0.5,0.5,1,0.8,1.6c0.4,0.6,0.7,1.1,0.9,1.5c0.2,0.4,0.4,0.7,0.6,0.9c0.3,0.4,1,0.9,1.9,1.6c0.9,0.6,1.5,1.1,1.9,1.6
		c0.4-0.3,0.7-0.6,0.7-0.9c-0.2,0.6,0,1.3,0.7,2.1c0.7,0.8,1.3,1.2,1.9,1c1-0.2,1.5-1.3,1.5-3.3c-2.2,1-3.9,0.4-5.1-1.9
		c0-0.1-0.1-0.3-0.3-0.6c-0.2-0.3-0.3-0.6-0.4-0.9c-0.1-0.3-0.2-0.6-0.3-0.9c-0.1-0.3-0.1-0.6,0-0.8c0.1-0.2,0.2-0.3,0.5-0.3
		c0.6,0,1-0.1,1-0.4c0.1-0.2,0-0.7-0.2-1.3c-0.2-0.6-0.3-1.1-0.4-1.4c-0.1-0.6-0.5-1.3-1.1-2.1c-0.7-0.8-1.1-1.4-1.3-1.6
		c-0.3,0.6-0.9,0.9-1.7,0.8c-0.8-0.1-1.3-0.4-1.7-0.9c0,0.1-0.1,0.3-0.2,0.6c-0.1,0.3-0.2,0.5-0.2,0.7c-0.9,0-1.4,0-1.6-0.1
		c0.1-0.2,0.2-0.8,0.3-1.8c0.1-1,0.2-1.8,0.4-2.3c0.1-0.3,0.3-0.7,0.6-1.3c0.3-0.6,0.6-1.1,0.8-1.5c0.2-0.5,0.3-0.9,0.4-1.3
		c0.1-0.4-0.1-0.7-0.5-1c-0.4-0.2-1-0.3-1.8-0.3c-1.3,0.1-2.2,0.8-2.7,2.1c-0.1,0.2-0.2,0.6-0.3,1.1c-0.1,0.5-0.3,0.9-0.5,1.2
		c-0.2,0.3-0.5,0.5-0.9,0.7c-0.5,0.2-1.3,0.3-2.5,0.2c-1.2-0.1-2-0.2-2.5-0.5c-0.9-0.6-1.7-1.6-2.3-3c-0.7-1.5-1-2.7-1-3.9
		c0-0.7,0.1-1.6,0.3-2.8c0.2-1.1,0.3-2,0.3-2.6c0-0.6-0.2-1.4-0.6-2.6c0.2-0.1,0.5-0.5,0.9-1c0.4-0.5,0.8-0.9,1-1.1
		c0.1-0.1,0.3-0.1,0.5-0.2c0.2,0,0.3,0,0.5,0c0.1,0,0.3,0,0.4-0.2c0.1-0.1,0.2-0.3,0.3-0.6c-0.1-0.1-0.2-0.2-0.4-0.3
		c-0.2-0.2-0.3-0.3-0.4-0.3c0.5,0.2,1.5,0.2,3-0.2c1.5-0.3,2.4-0.3,2.9,0.2c1,0.8,1.8,0.7,2.3-0.2c0-0.1-0.1-0.4-0.3-1
		c-0.2-0.6-0.2-1.1-0.1-1.4c0.3,1.9,1.4,2.2,3,0.9l-37.5-60.2C103.2,99.6,96.4,106.5,91,115z"/>
	<path opacity="0.2" fill="#FFFFFF" d="M91,115c0.5,0.5,0.9,0.8,1.3,0.8c0.3,0.1,0.5,0.4,0.5,0.9c0.1,0.6,0.2,0.9,0.3,1.1
		c0.1,0.2,0.5,0.1,1.2-0.3c0.6,0.6,0.7,1.2,0.3,2c0.1-0.1,1.6,0.9,4.6,2.8c1.3,1.2,2,1.9,2.2,2.2c0.2,0.8-0.1,1.4-1,1.9
		c-0.1-0.1-0.4-0.4-0.9-0.9c-0.6-0.5-0.9-0.6-0.9-0.4c-0.2,0.3-0.2,1,0.1,1.9c0.2,0.9,0.6,1.4,1.1,1.3c-0.5,0-0.8,0.6-1,1.7
		c-0.2,1.1-0.3,2.3-0.3,3.7c0,1.4,0,2.2-0.1,2.4l0.2,0.1c-0.2,0.8,0,2,0.6,3.6c0.6,1.6,1.3,2.2,2.2,2c-0.9,0.2-0.2,1.7,2.1,4.5
		c0.4,0.6,0.7,0.9,0.8,0.9c0.2,0.1,0.6,0.4,1.3,0.8c0.6,0.4,1.1,0.7,1.6,1c0.4,0.3,0.8,0.7,1,1.1c0.3,0.3,0.6,1.1,1,2.3
		c0.4,1.2,0.9,2,1.5,2.4c-0.1,0.4,0.2,1.1,1,2.1c0.8,1,1.2,1.8,1.1,2.4c-0.1,0-0.2,0-0.3,0.1c-0.1,0.1-0.2,0.1-0.3,0.1
		c0.2,0.5,0.7,1,1.6,1.5c0.9,0.5,1.4,0.9,1.6,1.4c0.1,0.2,0.1,0.6,0.2,1c0.1,0.5,0.2,0.9,0.3,1.1c0.1,0.3,0.4,0.3,0.8,0.2
		c0.1-1.4-0.7-3.5-2.5-6.5c-1-1.7-1.6-2.7-1.8-3c-0.2-0.3-0.4-0.9-0.6-1.6c-0.2-0.7-0.3-1.2-0.5-1.5c0.1,0,0.3,0.1,0.6,0.2
		c0.3,0.1,0.6,0.2,0.9,0.4c0.3,0.1,0.6,0.3,0.8,0.4c0.2,0.1,0.3,0.2,0.2,0.3c-0.2,0.5-0.1,1.1,0.2,1.8c0.3,0.7,0.8,1.4,1.3,1.9
		c0.5,0.6,1.1,1.2,1.8,2c0.7,0.8,1.1,1.2,1.3,1.4c0.4,0.4,0.9,1.1,1.5,2c0.6,0.9,0.6,1.4,0,1.4c0.6,0,1.3,0.3,2.1,1
		c0.8,0.7,1.4,1.4,1.8,2.1c0.3,0.6,0.6,1.5,0.8,2.7c0.2,1.3,0.4,2.1,0.5,2.5c0.1,0.5,0.4,1,0.9,1.4c0.5,0.5,0.9,0.8,1.3,1
		c0.4,0.2,1,0.5,1.7,0.8c0.7,0.3,1.1,0.6,1.4,0.7c0.3,0.1,1,0.5,1.9,1.1c0.9,0.6,1.7,1,2.2,1.2c0.7,0.3,1.3,0.4,1.7,0.4
		c0.4,0,0.9-0.1,1.5-0.3c0.6-0.2,1.1-0.3,1.4-0.4c1-0.1,2,0.4,3,1.6c1,1.2,1.7,1.9,2.2,2.2c2.5,1.3,4.4,1.7,5.7,1.1
		c-0.1,0.1-0.1,0.3,0.1,0.8c0.2,0.5,0.5,1,0.8,1.6c0.4,0.6,0.7,1.1,0.9,1.5c0.2,0.4,0.4,0.7,0.6,0.9c0.3,0.4,1,0.9,1.9,1.6
		c0.9,0.6,1.5,1.1,1.9,1.6c0.4-0.3,0.7-0.6,0.7-0.9c-0.2,0.6,0,1.3,0.7,2.1c0.7,0.8,1.3,1.2,1.9,1c1-0.2,1.5-1.3,1.5-3.3
		c-2.2,1-3.9,0.4-5.1-1.9c0-0.1-0.1-0.3-0.3-0.6c-0.2-0.3-0.3-0.6-0.4-0.9c-0.1-0.3-0.2-0.6-0.3-0.9c-0.1-0.3-0.1-0.6,0-0.8
		c0.1-0.2,0.2-0.3,0.5-0.3c0.6,0,1-0.1,1-0.4c0.1-0.2,0-0.7-0.2-1.3c-0.2-0.6-0.3-1.1-0.4-1.4c-0.1-0.6-0.5-1.3-1.1-2.1
		c-0.7-0.8-1.1-1.4-1.3-1.6c-0.3,0.6-0.9,0.9-1.7,0.8c-0.8-0.1-1.3-0.4-1.7-0.9c0,0.1-0.1,0.3-0.2,0.6c-0.1,0.3-0.2,0.5-0.2,0.7
		c-0.9,0-1.4,0-1.6-0.1c0.1-0.2,0.2-0.8,0.3-1.8c0.1-1,0.2-1.8,0.4-2.3c0.1-0.3,0.3-0.7,0.6-1.3c0.3-0.6,0.6-1.1,0.8-1.5
		c0.2-0.5,0.3-0.9,0.4-1.3c0.1-0.4-0.1-0.7-0.5-1c-0.4-0.2-1-0.3-1.8-0.3c-1.3,0.1-2.2,0.8-2.7,2.1c-0.1,0.2-0.2,0.6-0.3,1.1
		c-0.1,0.5-0.3,0.9-0.5,1.2c-0.2,0.3-0.5,0.5-0.9,0.7c-0.5,0.2-1.3,0.3-2.5,0.2c-1.2-0.1-2-0.2-2.5-0.5c-0.9-0.6-1.7-1.6-2.3-3
		c-0.7-1.5-1-2.7-1-3.9c0-0.7,0.1-1.6,0.3-2.8c0.2-1.1,0.3-2,0.3-2.6c0-0.6-0.2-1.4-0.6-2.6c0.2-0.1,0.5-0.5,0.9-1
		c0.4-0.5,0.8-0.9,1-1.1c0.1-0.1,0.3-0.1,0.5-0.2c0.2,0,0.3,0,0.5,0c0.1,0,0.3,0,0.4-0.2c0.1-0.1,0.2-0.3,0.3-0.6
		c-0.1-0.1-0.2-0.2-0.4-0.3c-0.2-0.2-0.3-0.3-0.4-0.3c0.5,0.2,1.5,0.2,3-0.2c1.5-0.3,2.4-0.3,2.9,0.2c1,0.8,1.8,0.7,2.3-0.2
		c0-0.1-0.1-0.4-0.3-1c-0.2-0.6-0.2-1.1-0.1-1.4c0.3,1.9,1.4,2.2,3,0.9l-37.5-60.2C103.2,99.6,96.4,106.5,91,115z"/>
	<path fill="#503614" d="M159.1,216c-0.1-0.7-0.2-1.3-0.2-1.7c-0.1-0.6,0.2-1.3,0.7-2.2c0.6-0.9,0.8-1.6,0.8-2.1
		c-1.1-0.3-1.5-1.2-1.3-2.7c0.1-1,1.1-2.4,3-4.2c1.3-1.2,1.7-2.8,1.3-5c-0.2-0.9-0.4-2.2-0.5-4c-0.1-1.7-0.3-3-0.4-3.6
		c0,0.2,0.3,0.4,1,0.6c0.7,0.2,1.1,0.4,1.2,0.7c0.1-0.2,0.3-0.6,0.5-1.1c0.2-0.6,0.4-1,0.6-1.3c0.1-0.2,0.4-0.5,0.9-0.8
		c0.5-0.3,0.7-0.5,0.9-0.6c0.1-0.1,0.5-0.3,0.9-0.7c0.2-0.2,0.5-0.4,0.7-0.5l-20.2-32.4c-1.7,1.2-2.7,0.9-3-0.9
		c-0.1,0.3-0.1,0.8,0.1,1.4c0.2,0.6,0.3,0.9,0.3,1c-0.5,0.9-1.3,1-2.3,0.2c-0.4-0.4-1.4-0.5-2.9-0.2c-1.5,0.3-2.5,0.4-3,0.2
		c0.1,0,0.2,0.1,0.4,0.3c0.2,0.1,0.3,0.2,0.4,0.3c-0.1,0.3-0.2,0.5-0.3,0.6c-0.1,0.1-0.3,0.2-0.4,0.2c-0.1,0-0.3,0-0.5,0
		c-0.2,0-0.3,0.1-0.5,0.2c-0.3,0.2-0.6,0.6-1,1.1c-0.4,0.5-0.7,0.9-0.9,1c0.4,1.1,0.6,2,0.6,2.6c0,0.6-0.1,1.5-0.3,2.6
		c-0.2,1.1-0.3,2.1-0.3,2.8c0,1.1,0.3,2.4,1,3.9c0.7,1.5,1.4,2.5,2.3,3c0.5,0.3,1.3,0.5,2.5,0.5c1.2,0.1,2,0,2.5-0.2
		c0.4-0.2,0.7-0.5,0.9-0.7c0.2-0.3,0.4-0.7,0.5-1.2c0.1-0.5,0.2-0.9,0.3-1.1c0.5-1.3,1.4-2,2.7-2.1c0.8-0.1,1.4,0,1.8,0.3
		c0.4,0.2,0.5,0.6,0.5,1c-0.1,0.4-0.2,0.9-0.4,1.3c-0.2,0.5-0.5,1-0.8,1.5c-0.3,0.6-0.5,1-0.6,1.3c-0.1,0.6-0.3,1.3-0.4,2.3
		c-0.1,1-0.2,1.6-0.3,1.8c0.1,0.1,0.7,0.1,1.6,0.1c0-0.1,0.1-0.4,0.2-0.7c0.1-0.3,0.2-0.5,0.2-0.6c0.3,0.6,0.9,0.9,1.7,0.9
		c0.8,0.1,1.3-0.2,1.7-0.8c0.1,0.2,0.6,0.7,1.3,1.6c0.7,0.8,1.1,1.5,1.1,2.1c0.1,0.3,0.2,0.7,0.4,1.4c0.2,0.6,0.3,1.1,0.2,1.3
		c-0.1,0.2-0.4,0.4-1,0.4c-0.3,0-0.5,0.1-0.5,0.3c-0.1,0.2-0.1,0.5,0,0.8c0.1,0.3,0.2,0.6,0.3,0.9c0.1,0.3,0.2,0.6,0.4,0.9
		c0.2,0.3,0.3,0.5,0.3,0.6c1.3,2.3,3,2.9,5.1,1.9c0,2-0.5,3.1-1.5,3.3c-0.6,0.1-1.2-0.2-1.9-1c-0.7-0.8-0.9-1.5-0.7-2.1
		c-0.1,0.3-0.3,0.7-0.7,0.9c-0.3-0.4-1-0.9-1.9-1.6c-0.9-0.6-1.5-1.1-1.9-1.6c-0.1-0.2-0.3-0.5-0.6-0.9c-0.2-0.4-0.6-0.9-0.9-1.5
		c-0.4-0.6-0.7-1.2-0.8-1.6c-0.2-0.5-0.2-0.7-0.1-0.8c-1.3,0.6-3.2,0.2-5.7-1.1c-0.5-0.3-1.2-1-2.2-2.2c-1-1.2-2-1.7-3-1.6
		c-0.3,0.1-0.8,0.2-1.4,0.4c-0.6,0.2-1.1,0.3-1.5,0.3c-0.4,0-1-0.1-1.7-0.4c-0.6-0.2-1.3-0.6-2.2-1.2c-0.9-0.6-1.6-1-1.9-1.1
		c-0.2-0.1-0.7-0.4-1.4-0.7c-0.7-0.3-1.3-0.6-1.7-0.8c-0.4-0.2-0.9-0.5-1.3-1c-0.5-0.5-0.7-0.9-0.9-1.4c-0.1-0.4-0.3-1.2-0.5-2.5
		c-0.2-1.3-0.5-2.2-0.8-2.7c-0.4-0.7-1-1.4-1.8-2.1c-0.8-0.7-1.5-1-2.1-1c0.6,0,0.6-0.5,0-1.4c-0.6-0.9-1-1.6-1.5-2
		c-0.1-0.1-0.6-0.6-1.3-1.4c-0.7-0.8-1.3-1.4-1.8-2c-0.5-0.6-0.9-1.2-1.3-1.9c-0.3-0.7-0.4-1.3-0.2-1.8c0.1-0.1,0-0.2-0.2-0.3
		c-0.2-0.1-0.5-0.3-0.8-0.4c-0.3-0.1-0.6-0.3-0.9-0.4c-0.3-0.1-0.5-0.2-0.6-0.2c0.1,0.3,0.3,0.8,0.5,1.5c0.2,0.7,0.4,1.3,0.6,1.6
		c0.1,0.3,0.7,1.3,1.8,3c1.8,2.9,2.6,5.1,2.5,6.5c-0.4,0.1-0.7,0.1-0.8-0.2c-0.1-0.3-0.2-0.7-0.3-1.1c-0.1-0.5-0.1-0.8-0.2-1
		c-0.2-0.4-0.7-0.9-1.6-1.4c-0.9-0.5-1.4-1-1.6-1.5c0.1,0,0.2,0,0.3-0.1c0.1-0.1,0.2-0.1,0.3-0.1c0.1-0.6-0.3-1.4-1.1-2.4
		c-0.8-1-1.1-1.7-1-2.1c-0.6-0.4-1-1.2-1.5-2.4c-0.4-1.2-0.8-2-1-2.3c-0.3-0.4-0.6-0.8-1-1.1c-0.4-0.3-0.9-0.7-1.6-1
		c-0.6-0.4-1-0.6-1.3-0.8c-0.1-0.1-0.4-0.4-0.8-0.9c-2.3-2.8-3-4.3-2.1-4.5c-0.9,0.2-1.7-0.5-2.2-2c-0.6-1.6-0.8-2.8-0.6-3.6
		l-0.2-0.1c0.1-0.3,0.1-1.1,0.1-2.4c0-1.4,0.1-2.6,0.3-3.7c0.2-1.1,0.5-1.7,1-1.7c-0.5,0.1-0.9-0.4-1.1-1.3
		c-0.2-0.9-0.3-1.6-0.1-1.9c0.1-0.2,0.4-0.1,0.9,0.4c0.6,0.5,0.9,0.8,0.9,0.9c0.9-0.5,1.3-1.1,1-1.9c-0.1-0.3-0.9-1-2.2-2.2
		c-3-1.9-4.5-2.9-4.6-2.8c0.4-0.8,0.3-1.4-0.3-2c-0.7,0.4-1.1,0.5-1.2,0.3c-0.1-0.2-0.2-0.6-0.3-1.1c-0.1-0.6-0.2-0.9-0.5-0.9
		c-0.3-0.1-0.8-0.3-1.3-0.8c5.4-8.5,12.2-15.5,20.5-20.8l-7.1-11.4c-10.9,7-19.7,16.1-26.2,27.4c-7.2,12.3-10.7,25.7-10.7,40.2
		c0,14.5,3.6,27.9,10.7,40.2c7.2,12.3,16.9,22,29.1,29.1c12.3,7.2,25.7,10.7,40.2,10.7c14.5,0,27.9-3.6,40.2-10.7
		c0.5-0.3,1-0.6,1.5-0.9l-7.1-11.4C175.2,211.7,167.5,214.6,159.1,216z"/>
	<path opacity="0.2" fill="#FFFFFF" d="M159.1,216c-0.1-0.7-0.2-1.3-0.2-1.7c-0.1-0.6,0.2-1.3,0.7-2.2c0.6-0.9,0.8-1.6,0.8-2.1
		c-1.1-0.3-1.5-1.2-1.3-2.7c0.1-1,1.1-2.4,3-4.2c1.3-1.2,1.7-2.8,1.3-5c-0.2-0.9-0.4-2.2-0.5-4c-0.1-1.7-0.3-3-0.4-3.6
		c0,0.2,0.3,0.4,1,0.6c0.7,0.2,1.1,0.4,1.2,0.7c0.1-0.2,0.3-0.6,0.5-1.1c0.2-0.6,0.4-1,0.6-1.3c0.1-0.2,0.4-0.5,0.9-0.8
		c0.5-0.3,0.7-0.5,0.9-0.6c0.1-0.1,0.5-0.3,0.9-0.7c0.2-0.2,0.5-0.4,0.7-0.5l-20.2-32.4c-1.7,1.2-2.7,0.9-3-0.9
		c-0.1,0.3-0.1,0.8,0.1,1.4c0.2,0.6,0.3,0.9,0.3,1c-0.5,0.9-1.3,1-2.3,0.2c-0.4-0.4-1.4-0.5-2.9-0.2c-1.5,0.3-2.5,0.4-3,0.2
		c0.1,0,0.2,0.1,0.4,0.3c0.2,0.1,0.3,0.2,0.4,0.3c-0.1,0.3-0.2,0.5-0.3,0.6c-0.1,0.1-0.3,0.2-0.4,0.2c-0.1,0-0.3,0-0.5,0
		c-0.2,0-0.3,0.1-0.5,0.2c-0.3,0.2-0.6,0.6-1,1.1c-0.4,0.5-0.7,0.9-0.9,1c0.4,1.1,0.6,2,0.6,2.6c0,0.6-0.1,1.5-0.3,2.6
		c-0.2,1.1-0.3,2.1-0.3,2.8c0,1.1,0.3,2.4,1,3.9c0.7,1.5,1.4,2.5,2.3,3c0.5,0.3,1.3,0.5,2.5,0.5c1.2,0.1,2,0,2.5-0.2
		c0.4-0.2,0.7-0.5,0.9-0.7c0.2-0.3,0.4-0.7,0.5-1.2c0.1-0.5,0.2-0.9,0.3-1.1c0.5-1.3,1.4-2,2.7-2.1c0.8-0.1,1.4,0,1.8,0.3
		c0.4,0.2,0.5,0.6,0.5,1c-0.1,0.4-0.2,0.9-0.4,1.3c-0.2,0.5-0.5,1-0.8,1.5c-0.3,0.6-0.5,1-0.6,1.3c-0.1,0.6-0.3,1.3-0.4,2.3
		c-0.1,1-0.2,1.6-0.3,1.8c0.1,0.1,0.7,0.1,1.6,0.1c0-0.1,0.1-0.4,0.2-0.7c0.1-0.3,0.2-0.5,0.2-0.6c0.3,0.6,0.9,0.9,1.7,0.9
		c0.8,0.1,1.3-0.2,1.7-0.8c0.1,0.2,0.6,0.7,1.3,1.6c0.7,0.8,1.1,1.5,1.1,2.1c0.1,0.3,0.2,0.7,0.4,1.4c0.2,0.6,0.3,1.1,0.2,1.3
		c-0.1,0.2-0.4,0.4-1,0.4c-0.3,0-0.5,0.1-0.5,0.3c-0.1,0.2-0.1,0.5,0,0.8c0.1,0.3,0.2,0.6,0.3,0.9c0.1,0.3,0.2,0.6,0.4,0.9
		c0.2,0.3,0.3,0.5,0.3,0.6c1.3,2.3,3,2.9,5.1,1.9c0,2-0.5,3.1-1.5,3.3c-0.6,0.1-1.2-0.2-1.9-1c-0.7-0.8-0.9-1.5-0.7-2.1
		c-0.1,0.3-0.3,0.7-0.7,0.9c-0.3-0.4-1-0.9-1.9-1.6c-0.9-0.6-1.5-1.1-1.9-1.6c-0.1-0.2-0.3-0.5-0.6-0.9c-0.2-0.4-0.6-0.9-0.9-1.5
		c-0.4-0.6-0.7-1.2-0.8-1.6c-0.2-0.5-0.2-0.7-0.1-0.8c-1.3,0.6-3.2,0.2-5.7-1.1c-0.5-0.3-1.2-1-2.2-2.2c-1-1.2-2-1.7-3-1.6
		c-0.3,0.1-0.8,0.2-1.4,0.4c-0.6,0.2-1.1,0.3-1.5,0.3c-0.4,0-1-0.1-1.7-0.4c-0.6-0.2-1.3-0.6-2.2-1.2c-0.9-0.6-1.6-1-1.9-1.1
		c-0.2-0.1-0.7-0.4-1.4-0.7c-0.7-0.3-1.3-0.6-1.7-0.8c-0.4-0.2-0.9-0.5-1.3-1c-0.5-0.5-0.7-0.9-0.9-1.4c-0.1-0.4-0.3-1.2-0.5-2.5
		c-0.2-1.3-0.5-2.2-0.8-2.7c-0.4-0.7-1-1.4-1.8-2.1c-0.8-0.7-1.5-1-2.1-1c0.6,0,0.6-0.5,0-1.4c-0.6-0.9-1-1.6-1.5-2
		c-0.1-0.1-0.6-0.6-1.3-1.4c-0.7-0.8-1.3-1.4-1.8-2c-0.5-0.6-0.9-1.2-1.3-1.9c-0.3-0.7-0.4-1.3-0.2-1.8c0.1-0.1,0-0.2-0.2-0.3
		c-0.2-0.1-0.5-0.3-0.8-0.4c-0.3-0.1-0.6-0.3-0.9-0.4c-0.3-0.1-0.5-0.2-0.6-0.2c0.1,0.3,0.3,0.8,0.5,1.5c0.2,0.7,0.4,1.3,0.6,1.6
		c0.1,0.3,0.7,1.3,1.8,3c1.8,2.9,2.6,5.1,2.5,6.5c-0.4,0.1-0.7,0.1-0.8-0.2c-0.1-0.3-0.2-0.7-0.3-1.1c-0.1-0.5-0.1-0.8-0.2-1
		c-0.2-0.4-0.7-0.9-1.6-1.4c-0.9-0.5-1.4-1-1.6-1.5c0.1,0,0.2,0,0.3-0.1c0.1-0.1,0.2-0.1,0.3-0.1c0.1-0.6-0.3-1.4-1.1-2.4
		c-0.8-1-1.1-1.7-1-2.1c-0.6-0.4-1-1.2-1.5-2.4c-0.4-1.2-0.8-2-1-2.3c-0.3-0.4-0.6-0.8-1-1.1c-0.4-0.3-0.9-0.7-1.6-1
		c-0.6-0.4-1-0.6-1.3-0.8c-0.1-0.1-0.4-0.4-0.8-0.9c-2.3-2.8-3-4.3-2.1-4.5c-0.9,0.2-1.7-0.5-2.2-2c-0.6-1.6-0.8-2.8-0.6-3.6
		l-0.2-0.1c0.1-0.3,0.1-1.1,0.1-2.4c0-1.4,0.1-2.6,0.3-3.7c0.2-1.1,0.5-1.7,1-1.7c-0.5,0.1-0.9-0.4-1.1-1.3
		c-0.2-0.9-0.3-1.6-0.1-1.9c0.1-0.2,0.4-0.1,0.9,0.4c0.6,0.5,0.9,0.8,0.9,0.9c0.9-0.5,1.3-1.1,1-1.9c-0.1-0.3-0.9-1-2.2-2.2
		c-3-1.9-4.5-2.9-4.6-2.8c0.4-0.8,0.3-1.4-0.3-2c-0.7,0.4-1.1,0.5-1.2,0.3c-0.1-0.2-0.2-0.6-0.3-1.1c-0.1-0.6-0.2-0.9-0.5-0.9
		c-0.3-0.1-0.8-0.3-1.3-0.8c5.4-8.5,12.2-15.5,20.5-20.8l-7.1-11.4c-10.9,7-19.7,16.1-26.2,27.4c-7.2,12.3-10.7,25.7-10.7,40.2
		c0,14.5,3.6,27.9,10.7,40.2c7.2,12.3,16.9,22,29.1,29.1c12.3,7.2,25.7,10.7,40.2,10.7c14.5,0,27.9-3.6,40.2-10.7
		c0.5-0.3,1-0.6,1.5-0.9l-7.1-11.4C175.2,211.7,167.5,214.6,159.1,216z"/>
</g>
</svg>
