<?xml version="1.0" encoding="utf-8"?>
<!-- Generator: Adobe Illustrator 18.0.0, SVG Export Plug-In . SVG Version: 6.00 Build 0)  -->
<!DOCTYPE svg PUBLIC "-//W3C//DTD SVG 1.1//EN" "http://www.w3.org/Graphics/SVG/1.1/DTD/svg11.dtd">
<svg version="1.1" id="Calque_1" xmlns="http://www.w3.org/2000/svg" xmlns:xlink="http://www.w3.org/1999/xlink" x="0px" y="0px"
	 viewBox="0 0 179.3 139.3" enable-background="new 0 0 179.3 139.3" xml:space="preserve">
<path fill="#FFF5E2" d="M147.1,95.1c0,0,0.4-2.1-3.9-1.8c-3.6,0.2-2.9,7.4-1.2,9.4s4.7,5.9,9.6,6.2c7.6,0.4,11.8-2.5,14-4.2
	c2.9-2.2,7.2-5.4,6.2-23.5c-0.9-16-10-39.3-12.9-44.5s-10.4-20.1-18.4-24.3c-8-4.2-22.5-5.6-27.8-2.4s-25.2,7.1-39.1,7.3
	s-28.5-0.6-39.8,8.6S19.7,44.5,18.6,45c-1.1,0.4-7-3.2-6.9,32C10.5,85,11,91.1,8.1,95.7c-2.9,4.6,6.2,4.6,7.7,2.1
	c5.8-9.5,2.4-36.8,2.4-36.8s3.9,23.1,4.7,27.6c0.8,4.5,2.9,10.2,0.8,22.2c-1.1,6.5-4.6,10.3-4.5,16c0.1,4.1-1.4,7.2,1.5,7.9
	s17.6,0.9,17.3-0.5c-0.3-1.4-1.8-20.2,0.5-25c2.3-4.7,1.9-8.4,5-7.7c3.2,0.7,9.2,11.6,10,13.9c0.5,1.5,8.5,15.6,8.5,15.6
	s4.3,3.5,6.9,3.7c7.7,0.6,13.5,1.4,11.9-5.2s-15.7-25.8-16.5-29.9c-0.8-3.8,4.4-5.1,8.3-6.8c4.8-2.1,7.2-1.5,10.5-1.9
	c3.3-0.4,4.8,2.9,4.8,6c-0.1,3.1-1.1,25.7-1.2,28.2c-0.1,2.5-3.4,9.7,9,10.1c12.4,0.4,10.4-4.1,6.7-19.6c-3.8-15.5-0.4-25.5,2.2-24
	c2.7,1.5,9.5,4.9,13.8,10.6c5.8,7.8,12.1,18,13.5,23c1.8,6.8,4.8,9.6,13.8,9.5c9-0.1,8.2-4.8,5-12.5c-2.8-6.7-15.6-18.9-16-20
	c-2-5.2-11.2-28.2-7.9-38.7s7.9-16.9,15.1-16.2s14.2,10.4,16.4,16.3c2.2,5.9,7.2,21.9,3.9,30.4c-3.8,9.8-7,7.3-10.2,7.3
	C148.9,101.2,146.6,100.3,147.1,95.1z"/>
<g>
	<path fill="#FFF5E2" d="M140.8,61.8c0,0,0.2,0.2,0.5,0.5c0.3,0.4,0.8,0.9,1.4,1.6c1.2,1.4,2.7,3.4,4.3,5.9c1.6,2.5,3.4,5.4,5.1,8.7
		c0.4,0.8,0.8,1.6,1.2,2.5c0.4,0.8,0.8,1.7,1.2,2.6c0.8,1.7,1.5,3.5,2.3,5.3c0.7,1.8,1.4,3.6,2,5.4c0.3,0.9,0.6,1.8,0.9,2.7
		c0.3,0.9,0.6,1.8,0.8,2.7c1,3.5,1.7,6.9,2.2,9.8c0.5,2.9,0.7,5.4,0.8,7.2c0.1,0.9,0,1.6,0.1,2.1c0,0.5,0,0.8,0,0.8
		s-0.2-0.2-0.5-0.5c-0.3-0.4-0.8-0.9-1.4-1.6c-1.2-1.4-2.7-3.4-4.3-5.8c-1.6-2.5-3.4-5.4-5.1-8.7c-0.4-0.8-0.8-1.6-1.2-2.5
		c-0.4-0.8-0.8-1.7-1.2-2.6c-0.8-1.7-1.5-3.5-2.3-5.3c-0.7-1.8-1.4-3.6-2-5.4c-0.3-0.9-0.6-1.8-0.9-2.7c-0.3-0.9-0.6-1.8-0.8-2.7
		c-1-3.5-1.7-6.9-2.2-9.8c-0.5-2.9-0.7-5.4-0.8-7.2c-0.1-0.9,0-1.6-0.1-2.1C140.8,62.1,140.8,61.8,140.8,61.8z"/>
</g>
<g id="Calque_2" display="none">
	<path display="inline" opacity="0.57" fill="#010202" d="M145.2,73.5c0,0-3.8-1-3.8-5.6c0-3.5,3.1-6.8,3.1-6.8s-0.3,3.7,1.6,4.7
		c1.9,1,2.7,2.2,2.9,4c0.2,2-1.1,3.6-2.1,3.6l0.9,3.9c0,0,1.1-2.2,1.7-4.2c0.6-1.9,0.7-5.5,0.7-5.5s1.2,1.4,1.3,3.2
		c0,1.5-0.4,3-0.4,3l2.4-2.5c0.3,3.7-3.2,9.2-4.3,10.8c-0.2,0.3-0.3,0.6-0.2,1l0.2,1.3c0,0,2.4-2.7,3.2-5.7c0,0,1,4-2,8.5
		c-0.1,0.2-0.2,0.6-0.2,0.9l0.6,2.3c0,0,3-5.2,4-11.3c1.7,1.8-1.4,11.3-1.7,12.3c-0.3,1-0.1,3.4-0.1,3.4l4-11.3
		c1.2,0.8,0.4,6.5-0.1,7.3c1.4-0.6,2.9-0.3,2.9-0.3c-2.9,1.6-4.2,4.2-4.4,5.3c-0.2,1.7-0.1,3.2,0,4.5c0,0.6,0.2,1.2,0.4,1.7
		c0.7,1.6,2.3,5.2,3.6,6.9c1.7,2.3,5.7,7,5.8,7.6c0.1,0.6,0.4,2.4-0.5,2.4s-4.2-6.3-5.2-7.8c-1-1.5-5.7-9.7-6.8-12.2
		c-1.3-3.2-1.9-5-4.7-5.8c-1.6-0.5-5.9,0.1-5.9,0.1s1.3-2.2,4.1-2c0,0-4.5-1.3-4.7-3.1c0,0,5.4,0.9,7.7,3.5
		c-0.8-1.7-4.1-4.4-4.9-5.1c-1.7-1.3-2.7-2.4-4.4-2.6c3.2-0.8,8.3,2.9,8.3,2.9s-0.3-2.3-2.1-3.5c-1.8-1.3-6.6-2.8-7.3-4.3
		c-0.7-1.5-0.5-3.6-0.5-3.6s2.9,2.9,4.8,3.8c1.8,0.9,3.6,2.3,3.6,2.3l0,0c-0.1-0.6-0.5-1.1-1-1.5c-1.8-1.5-6.1-5.2-6.7-7
		c-0.6-1.6,0-4,0-4c0.7,2.2,6.6,8.2,6.6,8.2L145.2,73.5z"/>
	<path display="inline" opacity="0.57" fill="#010202" d="M146,95.9c-1.1-0.9-3.1-1.2-3-0.3c0.1,0.9,1.2,4.5,2.3,4.2
		c1.1-0.4,1.8-1.3,1.6-2.3C146.8,96.4,146,95.9,146,95.9z"/>
	<path display="inline" opacity="0.57" fill="#010202" d="M141.1,97c-1.3-0.1,0.3,2.3,1.5,3.2c1.2,0.8,1.6,0.2,1.1-0.7
		C143,98.5,142.3,97.1,141.1,97z"/>
	<path display="inline" opacity="0.57" fill="#010202" d="M146.3,101.8c-1.5-0.2-2.1,1.5-1.7,2c0.4,0.5,0.9,2.1,1.7,2.1
		c0.8,0,1.6-1.3,1.2-2.3C147.1,102.5,147,101.9,146.3,101.8z"/>
	<path display="inline" opacity="0.57" fill="#010202" d="M149.5,103.1c-0.5,0.1-1.3,1.6-1,2.2c0.3,0.6,1.6,1.5,1.9,0.6
		C150.8,104.9,150.4,102.9,149.5,103.1z"/>
	<path display="inline" opacity="0.57" fill="#010202" d="M152.9,103.8c-1.2-0.7-1.7,1.4-0.9,2c0.8,0.6,1.2,1.3,1.9,1.1
		C154.7,106.7,153.8,104.3,152.9,103.8z"/>
	<path display="inline" opacity="0.57" fill="#010202" d="M151.9,107.6"/>
	<path display="inline" opacity="0.57" fill="#010202" d="M161.3,104.9c-1,0.3-2.3,1.6-1.8,2.7c0.5,1.1,2.6,1.4,2.6-0.3
		C162.1,105.5,162.1,104.6,161.3,104.9z"/>
	<path display="inline" opacity="0.57" fill="#010202" d="M158.8,102.8c-1.2,0-2.5,1.1-1.3,1.3c1.2,0.1,3.5,0.4,3.2-0.6
		C160.4,102.4,158.8,102.8,158.8,102.8z"/>
	<path display="inline" opacity="0.57" fill="#010202" d="M162.1,99.5c-0.7,0-2.9,0.1-2.1,1c0.8,0.9,0.7,1.5,2,1.5
		c1.2,0,2.7-0.6,2.7-1.5C164.6,99.7,162.1,99.5,162.1,99.5z"/>
	<path display="inline" opacity="0.57" fill="#010202" d="M164.1,102.5c-0.6,0.9-0.9,1.9-0.9,2.8s1.6,2.7,1.8,0
		C165.3,102.6,164.9,101.5,164.1,102.5z"/>
	<path display="inline" opacity="0.57" fill="#010202" d="M166.6,100c-0.4,0-0.6,2.2-0.4,3.2c0.2,1,0.1,2.8,1.2,2.6
		c1.1-0.2,1.7-2.3,0.6-3.7C167,100.7,167.6,100.1,166.6,100z"/>
	<path display="inline" opacity="0.57" fill="#010202" d="M165.3,95c-2.3,0.1-3.8,1.3-3.2,2.2s2.9,1.1,3.6-0.2
		C166.3,95.7,166.2,95,165.3,95z"/>
	<path display="inline" opacity="0.57" fill="#010202" d="M167.4,95.8c-0.8-0.1,0.3,4,0.9,4.7c0.6,0.7,3.4,2.8,2.5-0.2
		C170,97.4,168.2,95.9,167.4,95.8z"/>
	<path display="inline" opacity="0.57" fill="#010202" d="M167.4,89.2c-0.7-0.1-4.2,2-4.2,2.6s-0.3,2.3,0.9,2
		c1.1-0.2,2.4-2.3,3.1-2.1c0.7,0.2,1.7,3.7,3.1,4.1c1.4,0.4,2.2-0.9,1.8-1.5C171.7,93.7,168.8,89.4,167.4,89.2z"/>
	<path display="inline" opacity="0.57" fill="#010202" d="M167.4,83.4c-1.3,0-4,3.8-3.4,4.8c0.6,1,2.5,0.3,3.1-1.3
		c0.6-1.6,0.9-0.4,1.1,0.2c0.3,0.8,0.9,3.3,2.2,3.6s1.6-2.2,1.2-2.8C171.1,86.8,168.5,83.4,167.4,83.4z"/>
	<path display="inline" opacity="0.57" fill="#010202" d="M162.1,82.6c0-1,2.8-2.4,3.4-3c0.6-0.6,0.7-1.2,1.5-1.2s2.7,2.3,3.3,3
		c0.6,0.7,2.3,1.3,2.3,2c0,0.8-3,1-3.5-0.1c-0.4-1.2-1.3-2.8-1.8-2.6c-0.5,0.1-1.5,2.2-2.1,2.6c-0.6,0.4-1.6,1.1-2.4,1
		C162.1,84.1,162.1,82.6,162.1,82.6z"/>
	<path display="inline" opacity="0.57" fill="#010202" d="M166.4,72.8c0.6,0,2.3,1.8,3.3,2.5c1.3,1,2.7,1.3,2.3,3.1
		c-0.1,0.8-2.6,0-3.3-0.6c-0.7-0.6-1.8-2.5-2-2.5c-0.3,0-1.4,3.4-2.2,3.3c-0.8-0.1-2.8-0.9-1.5-2.2
		C164.3,75.1,165.7,72.8,166.4,72.8z"/>
	<path display="inline" opacity="0.57" fill="#010202" d="M165.4,67.9c-0.7,0.1-3.7,3.6-3.7,4.3c0,0.7,0.3,2,1.2,2
		c0.9,0,2.5-3.3,2.8-3.6s3.2,3.6,4.5,3.6s1.9-2.1,1.6-2.4C171.6,71.6,166,67.8,165.4,67.9z"/>
	<path display="inline" opacity="0.57" fill="#010202" d="M163.6,63.9c-0.5,0.1-2.6,2.5-2.6,3.4c0,0.8,0.7,2.3,1.8,1.1
		c1.1-1.2,1.5-3.2,1.9-3.1c0.4,0.1,2.9,2.9,4.2,2.9s1.6-1.6,1.2-1.8S165.9,63.2,163.6,63.9z"/>
	<path display="inline" opacity="0.57" fill="#010202" d="M162.8,58.1c-0.6,0-3.6,3.7-3.5,4.6c0.1,0.9,2.3,1.6,3,0s0.8-3.1,1.1-2.9
		c0.4,0.2,2.6,3.5,4.4,3.7c1.8,0.2,2-1.8,0.6-2.6C167.1,60,163.7,58.1,162.8,58.1z"/>
	<path display="inline" opacity="0.57" fill="#010202" d="M164.6,55.2c-1.4,0.6-1.6,1.2-0.3,1.7c1.3,0.5,1.9,0.4,1.9-0.6
		C166.3,55.5,165.7,54.8,164.6,55.2z"/>
	<path display="inline" opacity="0.57" fill="#010202" d="M161,53.5c-1.1,1.8-2.8,3.2-2.6,4.4c0.2,1.3,2,1.8,2.6-0.2
		c0.6-1.9,3.3-4.7,3.3-5.7c0-1-0.5-3.6-1.5-3.9c-0.9-0.4-2.7-2.4-3.1-1.8c-0.4,0.6,0.6,3.2,1.9,3.9C163.1,50.9,161,53.5,161,53.5z"
		/>
	<path display="inline" opacity="0.57" fill="#010202" d="M159.6,42.5c-0.4,0.4-1.3,2-0.3,2.5c1,0.5,3.8,1.6,4.7,1.4
		c0.9-0.2-0.9-2-2-1.9c-1.1,0.1-0.3-1.1-0.8-1.7C160.6,42.3,159.6,42.5,159.6,42.5z"/>
	<path display="inline" opacity="0.57" fill="#010202" d="M155.8,46.4c-0.5,0.3,1.3,2,1.4,2.9c0.2,0.9-0.3,1.7-1.1,2.3
		c-0.8,0.6-1.2,2.9-0.9,3.6c0.4,0.6,1,1.2,1.7,1.1c0.7-0.1,1.3-2,1.4-2.7c0-0.7,2-0.9,1.8-2.2s-1.2-3.1-1.8-3.6
		C157.7,47.3,156.9,45.8,155.8,46.4z"/>
	<path display="inline" opacity="0.57" fill="#010202" d="M150.4,44.6c0,0,2,1.7,2,3c0,1.3-0.7,3.6,0.4,3.7c1.1,0.1,1.6-2.3,1.6-3.3
		S151.7,43.1,150.4,44.6z"/>
	<path display="inline" opacity="0.57" fill="#010202" d="M154.7,38c-0.8-0.3,0,3,0.7,3.7s2,0.7,2,0.7S156.2,38.6,154.7,38z"/>
	<path display="inline" opacity="0.57" fill="#010202" d="M153.1,28c-0.8-0.4-2.7,1.8-1.6,3.2c1.1,1.4,3.6,4,4.1,5.1
		c0.5,1.1,1.8,4.3,2.3,3.2c0.4-1.1-0.3-5.4-1.7-7.8C154.8,29.3,154.3,28.6,153.1,28z"/>
	<path display="inline" opacity="0.57" fill="#010202" d="M148.5,20.1c-1.4-0.7-4.8-5.2-5.5-4.8c-0.7,0.4,0.7,3.6,2,4.5
		c1.3,0.9,4.7,3.1,4.7,4.1c0,1-0.2,1.7-0.8,1.2c-0.6-0.5-1.7-2.3-3-2.1c-1.3,0.2-2.5,1.2-2.3,2.3c0.2,1,3,3.6,4,4.1
		c1,0.5,2.7,1.2,1.8-0.2s-4-1.6-3.8-3.2c0.2-1.7,1.9-0.9,2.7,0c0.8,0.8,0.9,2.2,2,2.1c1.1,0,1.9-1.9,1.9-3
		C152.2,23.8,150.1,20.9,148.5,20.1z"/>
	<path display="inline" opacity="0.57" fill="#010202" d="M139.1,16.7c-1.2,0.1-1.3,1.1,0,2.2c1.3,1.2,4.2,1.5,3.8,2.4
		c-0.5,0.9-1.5,1.5-3.1,0.6c-1.6-0.9-2-3.2-2.9-2.4c-0.9,0.8,0.9,3.4,1.8,4c0.9,0.5,3.7,0.8,4.5-0.4c0.8-1.1,0.6-3.3,0-3.9
		C142.6,18.7,140.4,16.6,139.1,16.7z"/>
	<path display="inline" opacity="0.57" fill="#010202" d="M141.7,13.5c0-1.1-1.1-2.8-2.5-2.1c-1.3,0.7-4.2,3.8-4.4,4.3
		c-0.2,0.5-1,2.2-0.8,3.1c1.8-2.3,2.2-3.3,3.5-3.6c1.2-0.3,2.7-0.2,3.4-0.8C141.6,13.9,141.7,13.5,141.7,13.5z"/>
	<path display="inline" opacity="0.57" fill="#010202" d="M137,9.2c-0.9,0.1-3.3,2.2-3.6,3.2c-0.4,0.9-1.2,4.6-1.2,4.6
		s1.7-3.4,2.7-3.9c1-0.5,3.6-1.6,3.6-2.7S137,9.2,137,9.2z"/>
	<path display="inline" opacity="0.57" fill="#010202" d="M131.3,9.2c-1.2,0.2-1.4,2.1-1.4,3.2s-0.4,3.1,0,3.1s1.3-3.3,2.3-4.6
		C133.2,9.7,132.6,9,131.3,9.2z"/>
	<path display="inline" opacity="0.57" fill="#010202" d="M127.8,10.3c-0.9-1-3.8-1.9-3.7-0.4c0.1,1.5,1.5,3.2,2.7,3.6
		c1.2,0.4,1,0.7,2,0.7C129.8,14.1,127.8,10.3,127.8,10.3z"/>
	<path display="inline" opacity="0.57" fill="#010202" d="M134.5,21.4c0,0-2.7-3.7-3.3-3.2c-0.6,0.5-1.5,1.6,0,2.6
		C132.7,21.8,134,22.5,134.5,21.4z"/>
	<path display="inline" opacity="0.57" fill="#010202" d="M127.9,19.1c-0.5-0.3-2.5,0.4-2.5,1.2s1.1,1.5,2.1,1.7
		C128.5,22.1,130.4,20.5,127.9,19.1z"/>
	<path display="inline" opacity="0.57" fill="#010202" d="M123.6,17c-0.5-0.5-2.9-0.1-3.6,0.8c-0.6,0.9-1.1,3.2-0.8,3.6
		c0.3,0.4,2.9-2,3.6-2.3C123.6,18.9,124.6,18.1,123.6,17z"/>
	<path display="inline" opacity="0.57" fill="#010202" d="M120.7,23.1c-0.4-0.4-0.9,2-0.4,2.5c0.5,0.5,1.8,2,1.8,1.3
		S121.4,23.8,120.7,23.1z"/>
	<path display="inline" opacity="0.57" fill="#010202" d="M123.5,22c-0.8,0-0.8,2.7,0.6,4.2c1.4,1.5,0.5,2.5,2.5,2.5
		c2.1,0,2.7-0.8,2-1.9c-0.7-1.2-2.8-1.6-3.2-2.2C124.9,24.1,124.8,22,123.5,22z"/>
	<path display="inline" opacity="0.57" fill="#010202" d="M130.9,22c-0.7,0-2,1.5-1.1,3.1c0.9,1.6-0.1,1.9,1.1,2
		c1.2,0.2,2.4-3.2,1.8-3.8C132.1,22.6,132,22,130.9,22z"/>
	<path display="inline" opacity="0.57" fill="#010202" d="M134.8,23c0.8-0.2,1.1,2.4,0.9,3.3c-0.1,0.9-0.8,1.6-1.7,1.7
		C133,28,133.6,23.3,134.8,23z"/>
	<path display="inline" opacity="0.57" fill="#010202" d="M137.8,24.1c-0.6,0.3-1.7,1.9-0.7,2.7c1.1,0.8,2.4,1,2.4,0.3
		S138.3,23.9,137.8,24.1z"/>
	<path display="inline" opacity="0.57" fill="#010202" d="M142.6,28.3c1-0.1-0.5-3.1-0.9-2.8C140.9,26,141.6,28.4,142.6,28.3z"/>
	<path display="inline" opacity="0.57" fill="#010202" d="M129.1,16.8c-0.7-0.7-2.9-2.7-4.8-2.7c-1.9,0-4.5-0.2-6,0.9
		c-1.5,1-2.1,4.5-2,6.4c0.1,2,2.7,7.1,3.8,7.8c1.1,0.6,1.2,1.8,9,1.7c7.8-0.1,16.3-0.5,18.4,0.9c2.1,1.4,4.6,3.6,4.6,3.6
		c-0.5-1.9-4.1-4.7-6.1-5.4c-2.1-0.7-9.8-0.4-10.7-0.4c-0.8,0-9.9,0.7-11.3,0.4c-1.3-0.3-5-2.3-6.2-6s-0.5-6.8,0.9-7.7
		c1.4-0.9,4.6-1.6,6-1c1.4,0.6,3.6,3.1,4.3,2.9C129.8,17.9,129.7,17.5,129.1,16.8z"/>
	<path display="inline" opacity="0.57" fill="#010202" d="M135.7,34.2c-0.9-1.3-3.1-2.9-3.6-2.5c-0.5,0.5,1.8,2.9,3.6,4.2
		c1.8,1.3,9.9,6.2,12.3,6.8c2.5,0.6,6.7,2.7,8.1,2.7c1.3,0,3.6-0.2,1.2-1c-2.4-0.8-9.1-2.8-11.1-3.6C144.4,40,136.7,35.6,135.7,34.2
		z"/>
	<path display="inline" opacity="0.57" fill="#010202" d="M138.8,31.9c-1.5-0.4-1.6,2.2-0.9,2.8c0.7,0.6,1.7,1.5,1.7-0.6
		S139.6,32.2,138.8,31.9z"/>
	<path display="inline" opacity="0.57" fill="#010202" d="M143.7,32.9c-1.1-0.9-2.4-0.4-2,1.6s1.6,3.3,2,3.3
		C144.2,37.8,145,33.9,143.7,32.9z"/>
	<path display="inline" opacity="0.57" fill="#010202" d="M147.2,33.8c-0.9,0-1.9,1.3-1.6,2.4c0.3,1.1,2.6,3.7,3.4,3.7
		c0.8,0-0.5-2.6-0.4-4.2C148.7,34.1,148.1,33.9,147.2,33.8z"/>
	<path display="inline" opacity="0.57" fill="#010202" d="M151.4,36.9c-0.9,0-1.2,0.3-0.9,1.7c0.2,1.4,1,2.4,2,2.4
		C153.4,40.9,152.7,36.9,151.4,36.9z"/>
	<path display="inline" opacity="0.57" fill="#010202" d="M147,43.5c-0.7,0,1,1.3,0.8,2c-0.2,0.6-1.1,1-1.9,0c-0.8-1-0.7-1.8-1.9-2
		c-1.2-0.2-2.2,2.8-1.9,3.3c0.3,0.5,1.5-0.1,1.6-0.9s0-0.5,1.2,0.6c1.2,1,2.9,1.3,3.6,0.9c0.7-0.4,1-1.8,0.7-2.5
		C149,44,147.5,43.5,147,43.5z"/>
	<path display="inline" opacity="0.57" fill="#010202" d="M141.2,41.6c-0.6-0.6-1.6,0.2-1.6,1.8c-0.1,1.6-0.9,1.6-1.4,2
		c-0.5,0.4,1.6,2.1,2.1,0.9c0.5-1.1-0.2-1.8,0.2-2.6C140.9,43.1,142,42.4,141.2,41.6z"/>
	<path display="inline" opacity="0.57" fill="#010202" d="M134.9,42.4c-0.7,0.1-0.4,3.6,0,3.7c0.4,0.1,1.8,1,1.8-0.3
		c0-1.2,0.6-2.3-0.3-2.4C135.5,43.3,135.9,42.3,134.9,42.4z"/>
	<path display="inline" opacity="0.57" fill="#010202" d="M138.1,39.7c-0.4-0.4-1.1,0.5-1.2,1.7c-0.1,1.2,0.7,1.4,1.3,1
		C138.7,42.1,139.1,40.6,138.1,39.7z"/>
	<path display="inline" opacity="0.57" fill="#010202" d="M134.9,36.9c-1.2-0.2-1.9,2.3-2.5,2.5c-0.6,0.2-0.9,1.8,0.6,1.8
		c1.6-0.1,2.7-0.4,2.6-1.4C135.7,38.7,135.8,37,134.9,36.9z"/>
	<path display="inline" opacity="0.57" fill="#010202" d="M128.6,33.7c-0.7,0-4.2,0.2-5.3,0.8c-1.1,0.5-1.3,0.6,0,1.3
		c1.3,0.8,2.2,3,3.9,3.2c1.8,0.2,4.8-1.5,4.9-2.7c0.1-1.1-0.3-2.6-0.9-2.7S128.6,33.7,128.6,33.7z"/>
	<path display="inline" opacity="0.57" fill="#010202" d="M130.1,41.4c-0.7-0.9-1.1-2.1-2-0.3c-0.9,1.8-1,2.3,1,2.3
		C131.1,43.5,131,42.6,130.1,41.4z"/>
	<path display="inline" opacity="0.57" fill="#010202" d="M132.8,44.1c-1.4-0.2-3.6,1.3-2.4,2c1.1,0.7,0.7,2.8,1.7,3
		c1,0.1,1.3-3,1.4-4C133.6,44.1,132.8,44.1,132.8,44.1z"/>
	<path display="inline" opacity="0.57" fill="#010202" d="M129.1,55.2c-0.3-2.5-1-6.5-1.9-6.5c-0.9,0-1.3,2.3-1.3,4
		c0,1.7,1,4.5,1.6,5.3C128.1,59,129.3,57.1,129.1,55.2z"/>
	<path display="inline" opacity="0.57" fill="#010202" d="M120.1,31.7c-1.5,0.9-4.2,3-2.1,3.5c2.1,0.5,4-1.4,4-2.3
		C122.1,31.9,121.1,31,120.1,31.7z"/>
	<path display="inline" opacity="0.57" fill="#010202" d="M117.2,28.7c-1.1,0.2-2.8,1.8-2.7,3c0.1,1.1,0.5,1.8,2.3,0
		C118.5,29.9,117.7,28.6,117.2,28.7z"/>
	<path display="inline" opacity="0.57" fill="#010202" d="M115,25c0,0-1.8,1.5-3.1,3.2c-1.3,1.7-1.7,3.6-1.3,4.5
		c0.4,0.9,2.5,4.1,3.9,4.6c1.4,0.5,3.3,0.9,4,1.2s-0.1,1-0.7,1.9c-0.6,0.8-2,1-1.6,3c0.5,2.1,1.9,2.4,1.9,2
		c-0.1-1.2,0.6-3.3,1.5-2.3c0.8,1,1.4,1.6,1.9,2.7c0.2,0.3,0.6-2.4,0.5-3.2c-0.2-0.9-1.6-2.3-0.5-2.7c1.1-0.4,2.5,0.4,2.4,1.5
		c0,1.1,0.2,3.3,0,3.8c-0.2,0.5-1.6,2.6-1.7,3.5c-0.1,0.9,0,4.5,0,4.5s-1.7-1.2-2.3-1c-0.6,0.2,0.9,2,2,3.1c1.1,1.1,3.5,4.7,3.8,6.6
		c0.3,1.8,0.4,4.6,0,5.1c-0.4,0.5,0.2,3.5,1.6,0c1.4-3.5,0.2-6.6-0.3-7.4c-0.5-0.8-3.3-2.6-3.7-6s0.4-5.7,1.2-6.4
		c0.9-0.6,3-0.5,3.6,0.4c0.6,0.8,2,4,2,4c0.5-1.9-0.4-4.4-0.8-5s-2.1-1.8-4.3-1.1c0.2-3.3,0.1-5.3-0.5-5.8c-0.5-0.5-2.3-2.2-5-2.3
		c-2.7-0.1-6.3-1.2-7-2.3c-0.6-1-2.2-3.8-0.1-5.7S115,25,115,25z"/>
	<path display="inline" opacity="0.57" fill="#010202" d="M122.1,8.4c-0.7-0.6-1.5,4.1-0.7,4.3C122.2,12.8,122.8,9,122.1,8.4z"/>
	<path display="inline" opacity="0.57" fill="#010202" d="M119.4,8.4c-0.9-0.3-1.4,2.5-1.1,3.2c0.3,0.7,0.9,1.7,1.5,1.7
		c0.6,0-0.6-1.3-0.6-2C119.1,10.8,120.1,8.6,119.4,8.4z"/>
	<path display="inline" opacity="0.57" fill="#010202" d="M116.6,8.4c-0.7,0-1.2,2-1.1,2.5c0.1,0.5,1.3,3.2,2,3.3
		c0.7,0,0.4-1.4-0.2-2.1c-0.6-0.7-0.4-2-0.1-2.5C117.4,9.2,117.1,8.4,116.6,8.4z"/>
	<path display="inline" opacity="0.57" fill="#010202" d="M112.5,10.3c-1-0.3-1.3,1.4-0.6,1.8c0.7,0.4,1.6,1.6,2.5,2.5
		c0.9,0.9,1.2,0.4,1-0.6C115.3,12.9,113.6,10.6,112.5,10.3z"/>
	<path display="inline" opacity="0.57" fill="#010202" d="M109.3,12.3c-1-0.1-2.2,0.4-2.8,1.6c-0.6,1.2,0.4,3,1.4,3.1
		c1.1,0,2.6,0.3,3.6-0.7c1.2,0.4,2,0.7,2,2.5c0,1.8-0.5,3.3-1.6,4.5c-1.1,1.1-2.5,2.9-3.6,4.3c-1.1,1.4-0.6,4-0.6,4s-3.1-1.5-3-3
		c1.2,0.4,1.9-0.6,1.9-1.6c0-1-1.6-1.9-1.2-1.1c0.5,1-1,1.7-1,1.7s-1.9-0.9-2.8-1.7c-1.3-1.3-2.6-2.4-4.2-3.4
		c-1.3-0.8-4.7-2.7-5.2-2.5c-0.4,0.2-0.6,1.6,0,1.9c0.6,0.3,2,1.3,2.8,2.2c0.7,0.8-0.6,1.6-1.7,1.9c-1.3,0.4-1.7,1.7-0.7,2.3
		c0.8,0.5,2.2,0.4,3.7-0.8c1.2-0.9,1.7-2.3,1.2-2.8c1.2,0.7,2,1.2,1.9,1.8c-0.1,0.6-2.2,4.9-4.4,5.1c-1.4,0.1-2.7,0.1-3.4,0.1
		c-0.4,0-0.5,0.5-0.2,0.7c0.8,0.6,3,1.2,3,1.2c-0.7,1.5-1.8,1.3-2.8,1.3c-1.1,0-2.5-0.9-2.9-1.2c-0.4-0.3-3.4-2.9-4-3.9
		c-0.6-1-3-4.4-3.3-5.8c-0.3-1.4,0.2-4.1,0.5-5c0.2-0.7,0.2-1.3,0.2-1.7c0-0.5-0.6-0.6-0.9-0.3c-1,1.5-1.5,4.8-1.5,4.8
		c-2.2-2.5-4-5.5-5.4-5.4c-1.3,0.1-3.7,3.2-3.7,3.2c-0.1-2.4,0.3-2.5-0.3-2.6c-0.6-0.1-1.8-0.4-1.9,1.2c-0.1,1.6-2,4.7-3,4.8
		c-1,0-4.1-0.2-2.9-3.4c1.2-3.3,2.2,0.1,2.2,0.1c0.7-1.3,0.7-3.1-0.3-3.2c-1-0.1-3.4-0.1-4.2,2c-0.6,1.6-2.4,0.5-3.3-0.2
		c-0.2-0.1-0.4,0-0.3,0.2c0.3,0.9,1.1,1.5,1.1,2.1c0,0.7-2.2,2.3-2.2,2.9c0,0.6,0.1,1.7,0.9,1.4c0.6-1.5,2.4-4.4,3.8-3.9
		c2,0.7-0.6,3.9-0.6,3.9c2.1-0.4,2.8-1.9,4.1-1c1.3,0.9,3.6,1.1,4.4,0.7c0.8-2.9,4.9-5.8,5.8-5.8c0.9,0,3.8,3,4.5,3.9
		c0.7,0.8,3.6,6.2,5.3,8c1.7,1.7,3.5,4.6,5.7,5.4c2.2,0.8,4.7,0.7,6.4-1.9c1.7-2.6,3.4-4.8,3.8-5.4c0.5-0.7,2.8-0.5,4,0.7
		c1.2,1.2,2,1.7,1.8,2.5c-0.1,0.9-2.8,3.8-3.4,4.4c-0.6,0.6-0.8,3.9-0.8,3.9s-3.1,0.5-4.5-0.8c-1.4-1.3-2.7-1.7-3-0.5
		c-0.3,1.2,0.3,3.4,1,4c0.7,0.5,2.5,0.6,2.7,0.2c-1.6-0.7-2.8-1.6-2.6-2.9c0.2-1.3,1.2,0.4,1.8,0.8c0.6,0.4,3.3,0.5,3.6,0.4
		c-0.4,1.3-4.2,3.3-4.5,4.8C95.9,48,95.8,50,96,50.7c1.4-1.8,3.9-5.5,5.4-6.2c1.5-0.7,1.3-5,1.4-5.8c0.1-0.8,3-5,4-4.7
		c1.4,1,3,3.5,4,4.2c0.9,0.8,2.7,2.2,4.4,2.2c-2.8-2.8-5.7-4.6-5.7-6.1s-1-3.5,0.1-5.6c1.2-2.1,4.4-5.1,5-7c0.5-1.9,0.5-4.5-0.3-5.5
		C113.5,15.2,112,12.7,109.3,12.3z"/>
	<path display="inline" opacity="0.57" fill="#010202" d="M106.2,22c-1.4-0.7-3.6-1.7-5-1.4c-1.4,0.4-1.7,0.9-1,1.4
		c0.7,0.5,1.8,2.8,2.8,3.1c1,0.3,1.6-1.6,2.8-1.5c1.2,0.2,0.9,1.6,2,1.5c1.1-0.1,1.5-1.5,1.1-2.2C108.3,22.1,106.7,22.2,106.2,22z"
		/>
	<path display="inline" opacity="0.57" fill="#010202" d="M93.7,18.6c0-0.9,3-3.2,4-3.2c1,0,2,1.9,2.9,1.9s1.1-2.1,2.2-2
		c1.1,0.1,3.6,2.9,4.7,3.3c1,0.4,3.8,0.1,3.6,0.7c-0.2,0.5-2.5,1.2-3.5,0.9c-1.1-0.3-3-2.2-3.8-2.4c-0.8-0.2-1.9-0.1-3,0.8
		c-1.1,0.9-2.2,2.1-3.4,2.1S93.8,20.2,93.7,18.6z"/>
	<path display="inline" opacity="0.57" fill="#010202" d="M90,22.8c-0.7,0.1-1.5,0.6-1,1.7c0.5,1.1,0.8,1.5,1.3,1.5
		c0.5,0,1.6-1.1,1.6-1.9C91.8,23.3,90.4,22.8,90,22.8z"/>
	<path display="inline" opacity="0.57" fill="#010202" d="M88,16.3c-0.5,0.1-1.1,1.3-0.9,1.8c0.2,0.6,2,3.1,2.3,2.9
		c0.4-0.2,0.5-1,0.4-1.9S89,16.1,88,16.3z"/>
	<path display="inline" opacity="0.57" fill="#010202" d="M84.3,17.9c-1,0.4-0.3,1.4,0.7,2.3c0.9,0.8,2.1,2.1,2.7,2
		c0.5-0.1,0.3-0.9-0.2-1.6c-0.5-0.7-1.4-2.6-2-2.6C84.8,17.9,84.9,17.7,84.3,17.9z"/>
	<path display="inline" opacity="0.57" fill="#010202" d="M83.8,21.2c-0.9,0.4-1.1,2-0.5,2.5c0.6,0.4,2.9,0.6,2.9-0.2
		C86.2,22.6,84.8,20.7,83.8,21.2z"/>
	<path display="inline" opacity="0.57" fill="#010202" d="M87.3,24.9c-0.5-0.3-2.1,0.7-2.1,1.4s-0.3,2.1,0.2,2.5
		c0.5,0.4,1.9-0.6,1.9-1.4C87.3,26.6,87.7,25.1,87.3,24.9z"/>
	<path display="inline" opacity="0.57" fill="#010202" d="M89.4,26.9c-0.2,0-1.6,1.3-1.5,2.6c0.1,1.2-0.1,2.4,0.7,2.4
		s1.2-1.3,1.2-2.1C90,28.8,90.1,27,89.4,26.9z"/>
	<path display="inline" opacity="0.57" fill="#010202" d="M102.9,30.7c-0.6-0.8-1.6-1.1-2-0.4c-0.4,0.8,0.2,1.6,1,2
		C102.6,32.6,104,32.1,102.9,30.7z"/>
	<path display="inline" opacity="0.57" fill="#010202" d="M100.5,33.3c-1-0.7-1.8-1.4-2.1-0.5c-0.3,0.8,0.2,1.8,1.5,2.1
		C101.2,35.1,101.3,33.9,100.5,33.3z"/>
	<path display="inline" opacity="0.57" fill="#010202" d="M99,35.5c-0.9-0.3-2.2,0.9-2.2,1.4s1.4,1.7,2.2,1.7c0.8-0.1,2-0.5,1.8-1.5
		C100.6,36,100.1,35.8,99,35.5z"/>
	<path display="inline" opacity="0.57" fill="#010202" d="M93.7,43.7c-1.3,0-0.9,1.6-0.5,2.1c0.4,0.5,1.3,0,1.4-0.4
		C94.7,45.1,94.6,43.7,93.7,43.7z"/>
	<path display="inline" opacity="0.57" fill="#010202" d="M91.9,39.7c-1-1.3-1.6-1.9-2.5-1.1c-0.9,0.8,2.7,2.7,2.8,3.3
		c0.1,0.6,0.6,0.3,0.7-0.5C92.9,40.7,92.2,40.1,91.9,39.7z"/>
	<path display="inline" opacity="0.57" fill="#010202" d="M86.8,40.3c-0.8,0-1,1.3,0.4,2c1.4,0.6,2.2,0.9,1.9,1.2
		c-0.3,0.3-3.3,0.6-3.7,1c-0.4,0.4-0.8,0.8,1.4,0.8c2.2,0,4.2-0.9,4.2-1.7C91,42.8,87.5,40.4,86.8,40.3z"/>
	<path display="inline" opacity="0.57" fill="#010202" d="M91,45.6c-0.3-0.4-2.7,1.6-3,2.2c-0.2,0.6-0.9,1.9,0,2.6
		c0.9,0.7,1.9-0.6,2-1.7C90.1,47.7,91.3,46,91,45.6z"/>
	<path display="inline" opacity="0.57" fill="#010202" d="M93.3,47.5c-0.8-0.2-2.2,0.9-2.3,1.8c-0.1,0.9-0.6,2.2,0.3,2.3
		c0.9,0.2,2.5-0.2,2.5-1.6C94,48.6,94.3,47.7,93.3,47.5z"/>
	<path display="inline" opacity="0.57" fill="#010202" d="M94.3,52.2c-0.6,0-0.9,1.3-0.5,2.4c0.5,1.1,1,2.5,1.6,2.5
		c0.6,0,0.6-3.5,0.3-4C95.4,52.4,94.8,52.2,94.3,52.2z"/>
	<path display="inline" opacity="0.57" fill="#010202" d="M99.3,52.2c-0.7-0.1-1.6,2.2-1.8,3c-0.2,0.8-1.1,2.3,0.4,2
		c1.6-0.2,2.9-1.4,2.9-2.5C100.8,53.6,100.4,52.3,99.3,52.2z"/>
	<path display="inline" opacity="0.57" fill="#010202" d="M92.2,55.8c-0.7-0.8-2.1-2.9-2.9-1.3c-0.7,1.6,1.1,2.8,2.2,3.1
		c1.1,0.3,1.7,1.3,2.2,0.6C94.3,57.4,92.8,56.4,92.2,55.8z"/>
	<path display="inline" opacity="0.57" fill="#010202" d="M95.5,58.7c-0.8-0.6-1.6,0.9-1.2,1.9c0.5,1,0.7,1.6,1.2,1.6
		c0.5,0,1.3-0.8,1.3-1.7C96.7,59.6,96.2,59.2,95.5,58.7z"/>
	<path display="inline" opacity="0.57" fill="#010202" d="M90.6,59.2c-1.7-0.2-3.3,0.6-3,1.2c0.3,0.5,0.4,1.9,2,1.8
		c1.6-0.1,3.3-1.2,3.3-1.6C93,60.1,91.5,59.3,90.6,59.2z"/>
	<path display="inline" opacity="0.57" fill="#010202" d="M101.5,58.1c-1,0-3.5,1.1-3.5,1.4s2.7,2.5,3.8,2.6
		c1.1,0.1,2.8-0.5,2.7-1.6C104.5,59.3,102.4,58.1,101.5,58.1z"/>
	<path display="inline" opacity="0.57" fill="#010202" d="M98,62c-0.6,0,0.1,3.8,1.1,4.5c1,0.8,2.3,1.6,3.2,0.8
		c0.8-0.9-0.1-2.5-1-3.2C100.3,63.5,98.7,62,98,62z"/>
	<path display="inline" opacity="0.57" fill="#010202" d="M95.8,63.9c-0.4-0.1-1.2,1.9-1,3.2c0.2,1.3,0.7,2.1,1.6,1.8
		c0.9-0.3,2.1-2.1,1.4-2.8S96.6,64.1,95.8,63.9z"/>
	<path display="inline" opacity="0.57" fill="#010202" d="M93.8,62.7c-0.2-0.2-4.2,1.5-4.3,2.5c-0.1,1-0.2,2.2,1,2.2
		c1.2,0,2.9-1.1,2.9-2.1C93.4,64.4,94.1,63.1,93.8,62.7z"/>
	<path display="inline" opacity="0.57" fill="#010202" d="M87.6,63c-1.1-0.6-1.4,0.8-1.9,0.8c-0.5,0.1-0.4-1.5-0.9-1.2
		c-0.5,0.3-0.9,1.7-0.6,2.4c0.2,0.7,0.9,1,1.7,0.5c0.8-0.6,2.2-0.5,2.2-1.1C88.1,63.9,88.2,63.3,87.6,63z"/>
	<path display="inline" opacity="0.57" fill="#010202" d="M80.6,67.7c-0.8,0.4,0.7,3,1.3,3.8c0.5,0.8,1,2.2,1.8,2.3
		c0.7,0,4.5-4.5,4.4-5.4c-0.1-0.9-0.4-1.6-1.3-1.5c-0.9,0.1-1.9,2.5-2.2,3.3c-0.4,0.7-1.2,1-1.6,0.1c-0.4-0.8-1.1-2.6-1.5-2.6
		C81.1,67.7,81,67.5,80.6,67.7z"/>
	<path display="inline" opacity="0.57" fill="#010202" d="M110.1,39.8c-1.3-0.8-2.2-3.2-3.5-3.2c-1.2,0-2.7,2.5-2.1,3.6
		c0.6,1,1.5-1.6,2.3-0.3c0.8,1.3,3,3.1,4.1,3C112,42.7,111,40.4,110.1,39.8z"/>
	<path display="inline" opacity="0.57" fill="#010202" d="M114.2,42.8c-0.4-0.7-1.9,0.1-1.9,0.6c0,0.5,0.8,1.8,1.6,1.9
		C114.7,45.3,114.6,43.5,114.2,42.8z"/>
	<path display="inline" opacity="0.57" fill="#010202" d="M107.9,43.2c-1.4-1-2.3-1.8-3.1-0.4c-0.8,1.4-0.4,1.8,0.7,2.8
		c1.1,1,1.6,1.3,2.8,0C109.5,44.3,108.5,43.6,107.9,43.2z"/>
	<path display="inline" opacity="0.57" fill="#010202" d="M106.7,49.8c-1.1-1.4-1.4-3.3-3.1-3.3s-4.1,2.4-3.9,3.1
		c0.2,0.7,1.5,1.1,3,0.7c1.5-0.4,2.6,1.8,3.5,2.6c0.9,0.8,2.3,1.2,2.3,0C108.5,51.7,106.7,49.8,106.7,49.8z"/>
	<path display="inline" opacity="0.57" fill="#010202" d="M111.4,45.6c-1.1-0.7-2.3,0.4-1,1.6c1.3,1.2,2.3,2.2,2.8,2.3
		C113.7,49.7,112.4,46.2,111.4,45.6z"/>
	<path display="inline" opacity="0.57" fill="#010202" d="M115.7,46.5c-0.8,0.2-1.4,2.7-0.6,3.6c0.8,1,2-1,2.1-1.8
		C117.3,47.4,117,46.1,115.7,46.5z"/>
	<path display="inline" opacity="0.57" fill="#010202" d="M112,50.7c-0.6-0.8-2.2-2.4-2.5-1.1c-0.4,1.3,0,2.7,0.9,2.7
		C111.3,52.1,112.8,51.7,112,50.7z"/>
	<path display="inline" opacity="0.57" fill="#010202" d="M116,51.3c-1-0.3-1.4-0.4-1.5,1.1s1.1,1.3,1.8,1.3
		C117,53.7,117.9,52,116,51.3z"/>
	<path display="inline" opacity="0.57" fill="#010202" d="M120.5,47.4c-0.8-0.2-2.3,1.2-2.8,2.1c-0.5,0.9-0.4,2.2,1,2
		c1.3-0.2,2.6-1.6,2.6-2.5C121.2,48.2,121.3,47.7,120.5,47.4z"/>
	<path display="inline" opacity="0.57" fill="#010202" d="M111.9,53.5c-0.8,0.1-2.2,0.6-2,1.7s0,1.6,1,1.6c1,0,2.6-1.2,2.6-2.1
		C113.4,53.8,112.8,53.4,111.9,53.5z"/>
	<path display="inline" opacity="0.57" fill="#010202" d="M115.8,55.2c-0.4-0.2-1.5,1.3-0.7,2.4c0.8,1.1,1.4,1.3,2.1,1.3
		C118,58.9,116.8,55.6,115.8,55.2z"/>
	<path display="inline" opacity="0.57" fill="#010202" d="M118.8,54.1c-0.2-0.1,0.6,3.7,0.9,4.7c0.3,1.1,1.9,3.9,2.9,3.7
		c1-0.2,1.6-1.4,1.4-2.3C123.8,59.5,119.5,54.4,118.8,54.1z"/>
	<path display="inline" opacity="0.57" fill="#010202" d="M102.2,52.4c-0.6,0-1.1,1-0.5,2.2c0.5,1.2,5.6,2.9,6.3,3.7
		c0.7,0.8,0.3,2.6,1.5,2.6c1.1,0,1.7-2.1,1-2.6c-0.7-0.6-2.2-3.3-3.5-3.6c-1.3-0.3-3.3-0.5-3.3-1.2
		C103.7,52.8,102.9,52.4,102.2,52.4z"/>
	<path display="inline" opacity="0.57" fill="#010202" d="M86.3,37.2c0-1.4-0.2-2.7-0.9-2.5c-0.7,0.3-1.4,3.6-2.2,3.5
		c-0.7-0.1-2.9-2.6-4-2.8c-1.2-0.2-1.2,0.5-0.5,1.3c0.7,0.8,3.6,3.4,4.5,4.1c1,0.7,1.3,0.2,1.9-0.8C85.6,39,86.3,38,86.3,37.2z"/>
	<path display="inline" opacity="0.57" fill="#010202" d="M83,32.8c-0.4-1-0.9-2.1-1.4-1.9c-0.5,0.2-0.8,0.9-0.4,1.9
		c0.4,1,0.4,1.9,1.1,1.9C83,34.7,83.2,33.4,83,32.8z"/>
	<path display="inline" opacity="0.57" fill="#010202" d="M74.9,23.8c-0.8-0.1-0.4-1.7-1.4-1.6c-0.9,0.1-3.1,1.4-3.1,2.2
		s1.5,2.4,3.5,2.5c2,0.1,4.3,1.1,5.4,1c1.1,0,0.5-2.5-0.6-3.1s-1.7-2.8-2.5-2.7C75.5,22.3,75.6,23.9,74.9,23.8z"/>
	<path display="inline" opacity="0.57" fill="#010202" d="M70.4,26.5c-1.3-0.5-2.3-0.4-2.3,0.8c0,1.2,0.7,1.5,1.3,1.6
		c0.7,0,2.1-1,2.1-1.4C71.5,27.2,71.2,26.8,70.4,26.5z"/>
	<path display="inline" opacity="0.57" fill="#010202" d="M67.7,28.9c-0.7-0.1-2,0.9-2.1,1.6c-0.1,0.7,0.4,1.3,1,1.3
		c0.6,0,1.6-0.7,1.8-1.2C68.6,30.1,68.3,29,67.7,28.9z"/>
	<path display="inline" opacity="0.57" fill="#010202" d="M65.9,32.7c-0.7-0.2-1.4,1-1.2,1.6c0.2,0.5,0.4,1.3,0.9,1.3
		c0.5,0,1-0.8,1.1-1.3C66.7,33.9,66.4,32.9,65.9,32.7z"/>
	<path display="inline" opacity="0.57" fill="#010202" d="M66.2,36.7c-0.9-0.2-2.6,1-2.6,1.7c0,0.7,0.6,1.1,1,1.1s1.9-1.2,2-1.9
		C66.8,37,67,36.9,66.2,36.7z"/>
	<path display="inline" opacity="0.57" fill="#010202" d="M66.7,40.3c-1.1-0.3-2.2,1.2-2,1.8c0.2,0.6,2.3,0.5,2.7,0
		S67.5,40.6,66.7,40.3z"/>
	<path display="inline" opacity="0.57" fill="#010202" d="M64.9,26.9c-0.6-0.9-1.4-1.4-2.1-0.9c-0.8,0.5,1.1,1.7,0.9,2.2
		c-0.2,0.5-0.3,1.4-1.5,0.9c-1.2-0.5-1.3-1.8-1.9-1.5c-0.7,0.3-0.7,1.5,0.6,2.1c1.3,0.6,2.6,1.2,3.2,0.7s1.3-1.4,1.3-2.2
		S65.1,27.2,64.9,26.9z"/>
	<path display="inline" opacity="0.57" fill="#010202" d="M57.9,28.7c-0.5,0.3,0.6,2.3,1.6,2.8c1,0.6,2.3,2,2.3,2.9
		c0,0.9-0.2,2.5,0.2,2.4c0.5-0.1,1.2-2.2,0.9-3c-0.3-0.8-1.4-2.6-2-2.9c-0.6-0.3-1.9-1.1-2-1.7C58.7,28.5,58.2,28.4,57.9,28.7z"/>
	<path display="inline" opacity="0.57" fill="#010202" d="M57.3,31.8c-0.4,0-1,1.7-0.4,2.2c0.6,0.5,3,2.6,2.9,3.1
		c-0.1,0.5-0.2,3.4,0.3,3.4c0.5,0,1-2,0.8-3.3c-0.2-1.4-0.8-2.9-1.5-3.7C58.7,32.8,57.8,31.8,57.3,31.8z"/>
	<path display="inline" opacity="0.57" fill="#010202" d="M62.3,39.6c-0.4,0-0.4,2.9-1,3c-0.6,0.1-1.8,1-1.1,1.6
		c0.7,0.6,1.7,1.6,2.4,0.7s1.1-2.9,1-3.5C63.6,40.8,62.7,39.6,62.3,39.6z"/>
	<path display="inline" opacity="0.23" fill="#010202" d="M78.7,33.1c0,0,1.3-1.4,0.4-2.7c-0.9-1.4-3.3-2.4-4.6-2.2
		c-1.3,0.2-4.6,2-5.3,3.7c-0.8,1.7-1,4.2-0.7,6.1c0.3,1.9,1.3,5.1,2.7,4.9c1.3-0.1,5.9-3.5,5.6-4.6c-0.2-1.1-1.1-1.7-1.9-2.8
		c-0.9-1-0.9-3.7,0.1-3.6c0.9,0.1,1,1.8,2.7,1.8C78.1,33.6,78.7,33.1,78.7,33.1z"/>
	<path display="inline" opacity="0.57" fill="#010202" d="M78.2,39.6c-0.6,0-4.8,3.8-5.3,4.5c-0.5,0.8,0.1,2.2,2.4,0
		c2.3-2.2,3.4-2.9,3.6-3.6C79.1,39.8,78.9,39.6,78.2,39.6z"/>
	<path display="inline" opacity="0.23" fill="#010202" d="M70.4,46.8c-0.2-1.8-1-3.5-2.1-3.4c-1.1,0.1-5.4,4.7-6.6,5.2
		c-2.4,1-5.2,4-3,4.4c2.1,0.5,5.7,0.7,7.2-0.2C67.4,51.9,70.8,49.7,70.4,46.8z"/>
	<path display="inline" opacity="0.23" fill="#010202" d="M72.2,49.2c0,0,0.9,4.7-0.3,5.9s-6,5.6-7.3,5.8
		c-1.3,0.2-11.9,1.1-14.8,0.2c-2.9-0.9-5.7-3.4-4.9-3.9c0.7-0.5,2.2,1.5,4.8,0.5c2.7-0.9,4.3-4.6,5.9-4.3c1.6,0.3,3.7,2.9,5.5,3.1
		c1.9,0.2,8.1-3.7,9-4.8C71.1,50.6,72.2,49.2,72.2,49.2z"/>
	<path display="inline" opacity="0.23" fill="#010202" d="M80.9,42.7c-0.3-0.3-0.8-0.4-1.2-0.2c-1.7,1-5.4,3.6-5.5,4.7
		c-0.1,1.3,1.1,7.2-0.3,8.9c-1.4,1.7-8.1,6.4-9.3,7c-1.2,0.6-12.5,0.4-12.8,0.7c-0.3,0.3,6.5,7,9.3,6.8C59,73.1,54,78.2,54,78.9
		c0.1,0.6,2.9,1.7,6.1-0.2c3.3-1.8,15.9-9.2,18.1-11.6c2.2-2.4,8.3-7,8.6-10.4c0.3-3.3-1.4-8.2-2.7-9.8
		C83.3,45.7,81.7,43.7,80.9,42.7z"/>
	<path display="inline" opacity="0.57" fill="#010202" d="M77.2,70.9c-0.3-1-8.2,3.9-8.3,4.9c-0.2,1,7.4,8.8,8.3,8.2
		c0.9-0.6-5.9-6.5-5.2-7.3C72.6,75.8,77.7,72.6,77.2,70.9z"/>
	<path display="inline" opacity="0.57" fill="#010202" d="M80.4,78.5c-1.6-2.3-2.3-3.5-3.5-2.5c-1.3,1.1-0.6,1.8,0.7,3.5
		c1.3,1.7,1.8,2.3,3.1,1.7C82,80.6,81,79.4,80.4,78.5z"/>
	<path display="inline" opacity="0.57" fill="#010202" d="M83.9,76.2c-0.2,0.3-0.7,0.3-0.9-0.1c-1-1.5-3.1-4.7-3.6-4.7
		c-0.6,0.1-1.8,0.5-1,1.1c0.8,0.6,4.5,4.7,4.5,6.5c0,1.8-0.6,2.7-1.4,3.9c-0.6,1-3.5,4.5-4.5,4.7c-1,0.2-4-4.5-4.8-5.1
		c-0.8-0.6-4.5,0.5-4.8-0.2c-0.3-0.7,0.6-3.5-0.2-3.9c-0.8-0.4-4.6-0.2-4.6,0.7c0,0.9,3.8,0.6,3.7,1.4c-0.2,0.7,0.5,4.4-0.9,5.8
		s-2.1,3.7-2.2,5.2c-0.1,1.5-0.2,8.1-0.6,8.4c-0.4,0.2-4.8-3.4-5.7-4.2c-0.8-0.7-3.9-3.3-4.1-2c-0.2,1.3,1.8,3.2,2.8,3.9
		c1,0.7,2.1,4,3.8,4.1c1.6,0.1,3.3-0.1,4,1.4c0.7,1.5,2.7,3.8,2.3,4.5c-0.4,0.7-2.7-2.6-3.4-2.6c-0.7,0-0.2,2.2-0.7,2.5
		c-0.5,0.2-3.7,1-4.6,2.1c-0.9,1.1-1,1.9-1.8,1.8c-0.7-0.1,0.4-4.3,0.4-4.3c1.3-0.7,3.8-2.1,3.3-3c-0.5-0.9-4.7,1.8-4.7,1.8
		c-0.2-2.3,1.7-3.2,1.8-3.8c0.1-0.5-0.5-2.6-1.3-2.3c-0.9,0.3-3.8,3.8-3.8,5c0,1.3,1.5,6.2,2.5,7.2c1.1,1,2,4.5,2.8,4.4
		c0.9-0.1,3.6-6,5.6-6c2,0,5,0.2,5.3,1.6c-1.7,0.5-4.4,2.2-5.3,2.9c0,0-0.5-1.8-0.3-2.3c-1.5,0.9-2.9,3.8-3,4.7
		c-0.1,0.9,2.2,4,2.2,5.1c0,1.1-0.4,2.7,0.4,2.7c0.7,0,0.6-4.1,0.5-5c0-0.9-0.1-3,0.9-4.2c1-1.2,2.2-1.7,3.5-1.6
		c1.3,0.1,2.5,1.2,2.6,2.3c0.1,1.1,0,8.5,0,8.5s0.6,2.7-0.1,3s-3,2.6-3.3,3.2c-0.3,0.7-0.1,1.9,1.3,1.9c1.3-0.1,2-2,2-3
		c0-1,2.1-2.4,2-4.5c0-2.1,0.1-11,0.1-11s-1.6-3.3-2.8-5.8c-0.3-2.3-0.4-3.2-1-4.9c-0.7-1.7-2-3.3-2-6.9c0-3.6,0.9-8.1,2.1-9.5
		c1.2-1.4,2.6-4.1,4-3.1c1.3,1,4.2,4,4.2,5.2s-3.3,2.2-3.3,3.1c-0.1,0.9,0.1,2.6,1.4,2.9c1.3,0.2,2.2-4.1,2.8-4.1
		c0.7,0,1,3.4,2.4,3.4s3.1-1.3,2.8-2.4s-2.6-0.6-3.2-1.1c-0.6-0.5,0.4-3.3,1.4-4.1c0.9-0.8,2.5-4.4,3.6-3.6c1,0.8,2.1,2.5,2.8,2.1
		c0.6-0.4-0.2-2.5-1-3.5c-0.2-2.1-0.5-3.6,0.4-4.9c0.9-1.3,2.1-3.2,0.9-3C85.2,74.8,84.4,75.6,83.9,76.2z"/>
	<path display="inline" opacity="0.57" fill="#010202" d="M65,120.6c-0.9,1.6-2.6,1.3-1.8-0.6c0.8-1.9,1.4-3.3,2.7-3
		c1.3,0.2,1.7,1.3,1.6,3c-0.1,1.7-0.2,4.1-1.3,6c-1,2-0.3,4.1-1.6,4.2c-1.3,0.1-2-4-1-4.9c0.9-0.9,2.3-2.3,2.3-3.8
		C65.9,120.1,65,120.6,65,120.6z"/>
	<path display="inline" opacity="0.57" fill="#010202" d="M72.3,115.9c-0.9-0.2-1.3,3-0.5,4.7c0.9,1.6,0,4.1,1.3,3.7
		c1.3-0.4,1.6-3.8,0.9-5.3C73.3,117.4,74.1,116.3,72.3,115.9z"/>
	<path display="inline" opacity="0.57" fill="#010202" d="M78.6,122.8c-0.1-1.6-0.7-3.3-1.9-2.4c-1.2,0.9-1.5,3.4-1.2,3.9
		c0.3,0.4,3.4,3.4,4.1,5.3c0.6,1.9-0.2,4.4,1.3,3.9c1.5-0.5,1.9-1.5,1.4-3.3C81.9,128.5,78.9,125.5,78.6,122.8z"/>
	<path display="inline" opacity="0.57" fill="#010202" d="M77.5,129.9c-0.9-1.7-3.2-5-3.8-4c-0.5,1-0.1,3.9,1.3,4.3
		c1.4,0.4,2.3,1.4,2.4,2c0.1,0.6-2,1.4-0.7,2.1c1.3,0.7,2.4,1.1,2.4-0.3C79.2,132.6,77.5,129.9,77.5,129.9z"/>
	<path display="inline" opacity="0.57" fill="#010202" d="M72.1,125.7c-0.8,0-1.1,2.1-1.6,3.2c-0.5,1.2-2.3,2.6-1.8,3
		c0.5,0.3,0,2.3,2.3,2.2c2.3-0.2,4-0.5,3.9-1.5c-0.1-0.9-1.8-1.8-2-3.8C72.7,126.9,73,125.7,72.1,125.7z"/>
	<path display="inline" opacity="0.57" fill="#010202" d="M89.8,74.9c-0.8,0.3-2.8-1.6-1.8-3.7c1-2.1,4.1-3,5.8-2.2
		c1.7,0.8,4.6,3.1,5.9,5.6c1.4,2.8,1.4,6.4,0.4,8.4c-1,2.1-3.9,2.5-3.9,2.5c0.2,1.4,0.4,4.5,0.4,4.5s5.7-3,5.9-6.6
		c0.1-3.6,0.3-7.4,0-8.5c-0.3-1.1-4.4-5.5-3.8-6.1c0.6-0.6,3.7,4.9,4.3,3.8c0.6-1.1,1.6-4.2,2.3-6.2c0.8-2,0.9-6.8,1.4-6.3
		c0.5,0.5,0.1,5.7,0.7,5.7c0.6,0,2.8-2,3.5-3.6c0.7-1.6,0.6-5.3,1.5-4.1c0.9,1.2,0.6,4.1,0,5.4c-0.6,1.3-4.1,4.2-5.2,5.5
		c-1,1.3-3,3.3-2.9,4.9c0.1,1.6,0.2,7.9,0,9.1c-0.3,2-1.1,3.8-3.3,6c-1.4,1.4-5.6,3.8-7.1,5.5c-1.5,1.7-3.6,3.6-3.5,5.1
		c0.1,1.5,0.3,3,0.3,3c1-0.3,1.8-1.1,2.6-1.6c0.2-0.1,0.3-0.3,0.3-0.5c0.3-2.9,1.6-5,2.9-5.9c1.3-0.9,6.4-3.7,7.4-6.3
		c0.3,2.2,0.1,4.8-0.6,5.6c-0.7,0.8-7,2.3-7.2,3.8c-0.2,1.5,0.4,2.8,1.4,2.4c1.1-0.4,1.1-2.9,3.5-2.5c2.4,0.4,1.8,3.3,1.8,3.3
		c-1.2-1.6-3.8-0.6-3.8,0c0.1,0.6,2.4,2.2,2.5,3.8c-2.6-1.5-3.3-3.3-5.5-3c-2.2,0.3-3.9,1.9-4.8,3.4c-0.9,1.5-0.9,4.5,0,5.7
		c0.9,1.2,2.1,3.4,5.1,5.3c3,1.9,7.6,7.7,7.7,9c-2.1-1.7-5.7-6.6-7.6-6.6c-1.9,0-3.5,1.9-3.8,3.3c-0.2,1.4-0.3,5.6,1,6.6
		c0.6-4.2,0.1-6.3,1.5-6.3c1.4,0,4.1,0.9,6.4,3.8c2.3,2.9,5.4,4.7,5.4,6.1c0,1.4-2.5,2.1-4.2,1.9c-2.2-0.3-2.4-0.8-2.3-1.9
		c-1.9,0-1.8,2.5-4.4,2.2c-2.3-0.2-3.4-0.8-3.6-1.8c-0.1-0.3-0.2-0.6-0.3-0.9c-1-2.2-1.7-5.9-1.7-6.9c0-1.1,0.8-6.3,3.3-7.4
		c-0.5-0.9-0.5-2.6-1.4-1.6c-0.9,1-2.2,3.8-2.3,5.1c-0.2,1.3-0.9,3.9-0.5,5.9c0.3,2,0.8,4,1,5.4c0.2,1.4-1.3,2-2.3,1.9
		c-0.9-0.1-2.1-3.4-1.7-4.8c0.4-1.3,1-7.8,2.7-10.3c1.6-2.5,2.7-4.1,1.7-6c-0.9-1.9-3.7-4.2-3.7-6.8c0-2.5,0.8-8.3,2.4-9.7
		c1.6-1.4,2-3.1,1.7-4.6c-0.2-1.5-1-3.8-1.8-3.5c-0.8,0.3-0.1,3.4-1.3,3.5c-1.2,0.1-2.5-2.4-1.4-3.7c1.1-1.3,0.1-2.7-0.5-3.8
		c-0.5-1.1-1.1-3.5-0.5-4.5c0.8,2.2,1.9,4.8,3,5.3c1,0.5,2.7,2.5,3.1,3.5c0.4,1,1.2,3.4,1.2,3.4c0.9-2.3,1.7-4.8,1.3-6.5
		c-2.3-0.7-4.3-0.5-5.4-2.8c-0.5-1.2-0.1-4.3,1.3-5.6c1.4-1.3,2.5-2.1,2.5-2.1s0-3.2-1.3-3.9c-1.3-0.7-2.5,0.1-2.8,0.9
		C89.1,73.2,89.8,74.9,89.8,74.9z"/>
	<path display="inline" opacity="0.57" fill="#FFFFFF" d="M101.1,129.2c0,0-0.8-1.8-2.8-3.1c-1.9-1.3-2.9-0.5-2.8,0.7
		c0.1,1.3,0.7,4.1,2.8,4.1C100.4,131,101.3,130.6,101.1,129.2z"/>
	<path display="inline" opacity="0.57" fill="#010202" d="M102.5,118.4c0,0-0.4-10.7-3.3-12.1c-2.9-1.3-5.5-1.2-5.9,1
		c-0.4,2.2,0.5,5.9,3.1,6.3C99,113.9,102.5,118.4,102.5,118.4z"/>
	<path display="inline" opacity="0.57" fill="#010202" d="M109.3,74.7c-0.3-1.6,1.4-4.4,1.4-5.7c-2.4,1.7-3.4,3.4-3.2,4.7
		c0.1,1.3,2.1,4.7,3,4.7c0.9,0,1.5-1.1,0.6-1.7C110.2,76.1,109.6,76.2,109.3,74.7z"/>
	<path display="inline" opacity="0.57" fill="#010202" d="M115.1,60.3c0,0,0.7,3.4,0,4.5c-0.7,1.1-2.8,3.3-2.9,4.9
		c0,1.6,1,3.8,1.6,4.8c0.7,1.2,2.2,4.2,3.1,3.5c0.8-0.6,4.2-4.4,5.6-4.4c1.3,0.1,5.2,5.1,5.9,5.2c0.4-3.6,0.9-5.7-0.8-7.2
		c-1.7-1.5-5.3-0.2-5.3-0.2c0.5-3.5,1.8-3.6,1.2-5.1c-0.6-1.6-2.9-2.3-2.9-2.3c-0.2,2.3-0.3,4.9-1.1,6.6c-0.5,1.1-2.3,2.8-3.3,2
		c-1-0.8,0.5-3.5,1.5-4.7c1-1.2,1.2-4.2,0.4-5.4C117.1,61.5,115.1,60.3,115.1,60.3z"/>
	<path display="inline" opacity="0.57" fill="#010202" d="M111.5,83.3c0,0,2-0.5,2.8-2.3s-0.5-2.1,0-3.5
		C112.3,78.3,110.8,79.7,111.5,83.3z"/>
	<path display="inline" opacity="0.57" fill="#010202" d="M115.3,84.1c0,0,1.9-3,4.2-4.9s2.9-3.3,3.9-2.9c1.1,0.4,5.7,5,5.7,6
		c0,1-1.2,0.8-1.7,0.3c-0.5-0.5-1.5-3-2.2-2.1c-0.7,0.9-0.8,2.1-3,2.1c-2.3,0-1.4,1.5-2.9,2.1C117.8,85.2,115.3,86,115.3,84.1z"/>
	<path display="inline" opacity="0.57" fill="#010202" d="M113.8,85.3c-0.7-0.1-0.2,1.2-0.1,1.6c0.6,1.7,2.1,4.6,4,5
		c2.5,0.5,4.4,1.2,4.4,1.2c-0.9-1.7-2.5-3.1-2.2-4.8c0.3-1.7-0.4-2.3-0.4-2.3c-0.4,1.9-1,2.4-2.3,2.4
		C116.4,88.4,115,85.5,113.8,85.3z"/>
	<path display="inline" opacity="0.57" fill="#010202" d="M105.5,76.7c0,0,3.6,6.6,4.3,9.4c0.6,2.8,3.6,8.4,6.3,8.9
		c2.7,0.5,3.2,0.6,3.2,2c0,1.4-1.1,5.3-0.8,6.3c0.3,1.1,3.2,2.5,3.8,1.3c-1.6-1.3-2.8-4.6-0.9-6.3c1.9-1.8,3.6-1.5,6.1-1.4
		c2.5,0.2,5.5,0.8,6.6,4.3c1.1,3.5,1.2,5.3,0.7,7.4c-0.5,2.1-3.6,6.7-4,7.8c-0.4,1.1-1.3,3.9-1,4.9c1.5-2.9,2.6-6,4-7.9
		c1.4-1.8,3.3-5.9,3-8.7c-0.3-2.8-0.5-6.7-3-8.7c-2.5-2-6.4-3.1-7.7-3.9c-1.3-0.8-3-3.5-2.2-5.3c1-2.3,3.4-1.2,4.2-0.7
		c0.8,0.5,1.4,1.6,1.2,2.6c-0.3,1.2-2,0.1-2.2-0.4c0.2,2,0.8,3.2,2.2,2.9c1.3-0.2,2-2.7,1.8-4.2c-0.3-2-2.1-3.1-3.3-3.3
		c-1.2-0.2-3.3-0.2-4.4,0.9c-1.1,1.2-1.2,3.8-1.1,4.6c0.4,2.1,0.9,2.9,2.2,3.6c1.3,0.7,3.1,1.9,3.1,1.9c-2.3,0-6,0.3-7,0
		c-1-0.3-3-0.8-5.2-2.9c-2.2-2.1-3.4-4.2-4-6.1c-0.6-1.9-2.1-6.1-2.9-7.1C107.5,77.9,106.8,77,105.5,76.7z"/>
	<path display="inline" opacity="0.57" fill="#010202" d="M117.3,96.7c0,0-1.9-0.4-2,0.3c-0.2,0.7,0.4,2,1.3,2
		C117.4,99.1,118.6,96.7,117.3,96.7z"/>
	<path display="inline" opacity="0.57" fill="#010202" d="M125.6,104c0,0-1.8-0.5-1.9,0.6c-0.1,1.1-0.9,2.2,1,2.2
		c1.9,0,3.5,0.4,3.2-0.9C127.6,104.5,126.2,104.3,125.6,104z"/>
	<path display="inline" opacity="0.57" fill="#010202" d="M125,101.3c-0.1-1.5-0.7-2.3-1.4-2.2c-0.7,0.1-1.5,0-1.4,1.1
		c0,1.2,1.6,2.6,2.1,2.7C124.7,102.9,125.1,101.9,125,101.3z"/>
	<path display="inline" opacity="0.57" fill="#010202" d="M128.7,99c-0.7,0.1-1.7,1.1-1.7,1.9c0,0.8-0.3,1.5,0,2.1
		c0.3,0.6,2.2,0.1,2.7-0.4c0.5-0.5,1.4-2.1,0.6-3C129.6,98.6,128.7,99,128.7,99z"/>
	<path display="inline" opacity="0.57" fill="#010202" d="M129.2,105.3c-0.1-0.5,1.2-1.4,2.3-1.5c1.1-0.1,2.1,1.2,2.1,1.8
		c0,0.6-1,2.5-1.9,2C130.7,107.2,129.3,106,129.2,105.3z"/>
	<path display="inline" opacity="0.57" fill="#010202" d="M124.5,108.7c-1.2-1.1-2.5,1.1-2.5,2.4c0,1.3,0.4,2.6,1.3,2.6
		c0.9,0,1.7-0.7,1.8-1.8C125.1,110.8,125,109.1,124.5,108.7z"/>
	<path display="inline" opacity="0.57" fill="#010202" d="M129.2,108c-0.7,0.3,0.2,1,0,1.8c-0.2,0.9-0.2,2.4,0.7,2.4
		c0.9,0,2-0.5,2-1.7C131.9,109.5,130.1,107.6,129.2,108z"/>
	<path display="inline" opacity="0.57" fill="#010202" d="M126.9,109.9c-0.8,0-1,2.1-0.7,3.8c0.3,1.7,0.4,3.7,1.3,3.7
		c0.9,0,1.7-1.2,1.4-2.8C128.7,113.1,127.7,109.9,126.9,109.9z"/>
	<path display="inline" opacity="0.57" fill="#010202" d="M139.3,107c-1,0.1-2.5,4.2-2.5,5.1c0,0.9,0.4,4.5,1.1,4.9s1.9-1.8,1.9-2.9
		s1.1-3.4,1.1-4.2S140,106.9,139.3,107z"/>
	<path display="inline" opacity="0.57" fill="#010202" d="M142.4,110.9c-0.6-0.3-1.2,6-1.2,7.7c0,1.7,0.3,3.9,0.3,3.9
		c-1.2-1.1-3.7-2.8-4.3-4.3c-0.6-1.4-2.9-2.5-3.1-1.6c-0.2,0.9,0.5,3.2,0.2,3.6c-0.3,0.4-2.7,1.1-2.6,2.2c0,1.2,3.8,2.4,3.1,3.2
		c-0.6,0.8-1.2,3.2,0,3.3c1.2,0.1,5-4.2,4.6-5.5c2.5,1.3,4.6,3.2,4.6,3.6c-3.4,0.4-6.6,2.7-6.4,3.6c0.2,0.9,0.7,2.5,4.5,2.8
		s7.7,0,7.8-1.1c0-1.1-2.7-4.9-3.2-5.7c-0.7-1.2-1.5-4.5-1.3-5.5s2.7-2.3,4.2-1.2c0.9-1.1-0.3-3.7-1.6-3.8c-1.2,0-3.1,0.7-3.6,1.7
		s-0.1,6.3-0.1,6.3c-1.1-0.9-1.8-1.6-1.8-2.8c0-1.2,0.9-3.8,1.1-6.1C143.6,113.1,143.3,111.3,142.4,110.9z"/>
	<path display="inline" opacity="0.57" fill="#010202" d="M151.7,121.4c-1.8-0.7-4.2-0.6-4.2,0.9s1.3,5.4,3,5.2
		c1.7-0.2,2.9-1.9,2.9-3.4C153.4,122.5,152.9,121.9,151.7,121.4z"/>
	<path display="inline" opacity="0.57" fill="#010202" d="M156.1,124.2c-0.7-0.7-4,4.2-4.1,5.2c-0.1,1,0.3,3.5,2,4.1
		c1.7,0.5,4.6-0.1,4.2-1.4c-0.4-1.4-3.1-2.9-3.1-2.9C155.9,127.8,157.5,125.5,156.1,124.2z"/>
	<path display="inline" opacity="0.57" fill="#010202" d="M59.8,79.7c-0.8-0.9-5.4,0.9-3.3,1.7c2.1,0.7,3.9,3.3,6.2,3.4
		c2.3,0.1,2.8-0.9,2-1.5C63.8,82.7,60.7,80.7,59.8,79.7z"/>
	<path display="inline" opacity="0.57" fill="#010202" d="M61.6,87.2c-1.1-0.5-2.7,0.5-2.9,1.8c-0.2,1.3-3.1,2.4-2.7,3.3
		c0.4,0.9,4.2,5.9,5.1,4.7c0.9-1.3,1.3-2.5,0.5-3.2c-0.7-0.7-2.7-2.7-1.9-3.4c0.8-0.8,2.7-0.7,2.7-1.6
		C62.4,87.7,62.6,87.7,61.6,87.2z"/>
	<path display="inline" opacity="0.57" fill="#010202" d="M56.9,70.8c-0.8-0.6-5.1,4.4-6,5.9c-1.3,2.2-2,5.5-0.8,6.6
		c1.2,1.1,3.6,2.2,4.9,1.5c1.3-0.7-0.8-1-1.7-2c-0.9-1-2.6-2.8-1.2-4.7c1.3-1.9,3.9-3.6,4.5-4.9C57.2,71.8,57.9,71.5,56.9,70.8z"/>
	<path display="inline" opacity="0.57" fill="#010202" d="M47.9,80.4c-0.6-0.4-1.3,3.2-0.7,4.6c0.6,1.4,2,6.1,4.3,6.1
		c2.3,0,4.4,0.1,5.2-1.9c0.8-2.1,1.5-3,1-3.8c-0.5-0.7-1.3,1.8-2.1,2.2c-0.7,0.5-3.7,1.3-4.7,0c-1-1.3-2.5-2.1-2.5-4.4
		C48.6,81,48.8,81,47.9,80.4z"/>
	<path display="inline" opacity="0.57" fill="#010202" d="M45.4,84.8c-0.5-0.2-0.6,2.4,0,3.4c0.6,1,2.7,4.7,1.9,5
		c-0.8,0.3-1.6-3.2-2.4-3.9c-0.7-0.7-1.7-2-1.7-0.8c0,1.2,1.8,3.3,2.1,4.5c0.3,1.2,0.7,4.6,0.7,5.9c0.1,1.2,2,6.2,2.8,6.2
		c0.8,0,1.3-1.3,0.6-1.9c-0.6-0.6-2.5-5.5-1.8-6.2c0.7-0.7,1.5-0.8,2.5-0.4c0.9,0.5,1.9,2.8,3,2.7c1.1-0.1,1.1-1.6,0.2-2.1
		c-0.9-0.4-2.9-2.6-3.5-3.5c-1.1-1.5-2.4-3.5-3-5.2C46.3,86.6,46.5,85.3,45.4,84.8z"/>
	<path display="inline" opacity="0.57" fill="#010202" d="M51.3,100.3c-0.2-0.4-1.2-2.6-1.7-2.2c-0.5,0.4-0.1,1.8,0.4,2.8
		C50.4,101.7,51.8,101.4,51.3,100.3z"/>
	<path display="inline" opacity="0.57" fill="#010202" d="M41.6,90.2c-0.8,0-0.7,3.6,0,4.7s1.9,3.6,2.4,3.1c0.5-0.4,0.5-3.2,0-4.2
		C43.5,92.7,42.1,90.2,41.6,90.2z"/>
	<path display="inline" opacity="0.57" fill="#010202" d="M39.4,94.9c-1.3-0.4-0.2,4.9,0.6,5.8c0.8,0.8,0.7,3.3,1.6,3.3
		c0.9,0,1.4-2.3,1.1-3.6C42.3,99,40.4,95.2,39.4,94.9z"/>
	<path display="inline" opacity="0.57" fill="#010202" d="M34.4,99.4c-0.9,1-5.4,1.5-5.5,2.5c-0.1,0.9,2.9,3,3.6,3.1
		c0.7,0.1,1.9-3,3-3.3c1.2-0.4,2.9-1.1,2.3-2.2C37.3,98.3,35.7,97.9,34.4,99.4z"/>
	<path display="inline" opacity="0.57" fill="#010202" d="M33.4,112.3c0,0,0.6-2.2,0.7-4.5c0.1-2.3,2.1-4.8,3.4-4.8
		c1.3,0,3.5,0.6,3.3,2.4c-0.2,1.8-1.9,5.6-2.4,6.5c-0.5,0.9-2.3,4-3.1,3.9c-0.8-0.1-0.8-2,0.3-3.1c1.1-1.1,2.8-3.5,2.8-4.6
		s-0.2-3.5-1.2-2.5c-1.1,0.9-1.5,3-1.7,4.2c-0.2,1.1-0.7,3.5-1.5,3.9C33.1,114.2,32.6,112.9,33.4,112.3z"/>
	<path display="inline" opacity="0.57" fill="#010202" d="M27.9,133.8c-1.2,0-1.6-0.2-1.3-1.6c-0.8-0.8-1.5,0-1.5,0
		c0.4,0.6,0.8,1.5-0.6,1.5c-1.5,0-4.6,0.3-3.6-0.8c0.9-1.1-0.4-4.9-0.7-6.7c-0.3-2,0.1-4.2,1.1-4.9c1.8-1.4,0.2,5.8,0.8,7.2
		c0.3,0.8,1.9,1.6,3,1.5c1.1-0.1,2.8-0.4,2.8-1.3c0-0.9-1.9-3.5-2.7-3.8c-0.8-0.3-2.4-3.3-2.5-4.3c-0.1-1.1-0.9-4.6,0-5.5
		c0.9-0.9,3.8-2.8,4.2-3.6c0.4-0.9,1.4-2.3,0.9-3c-0.5-0.8-1.5,1.1-1.5,1.1c-1.4,0.6-1.2-0.7-1.2-0.7c-0.3-1.1,0.5-4.4,2.4-4.5
		c1.9-0.1,3.8,0.5,4.3,1.5c0.5,1.1,0.8,4.6,0.8,5.5c-0.1,0.9-1.8,2.9-2.5,2.5c-0.7-0.5,1.1-2.3,0.9-3.2c-0.2-0.9-0.8-2.6-1.3-1.5
		c-0.6,1.1-1.7,4.3-2.8,5.2c-1.1,0.9-2.7,1.9-2.8,3c-0.1,1.1-0.3,4,1.3,5.4c1.6,1.3,5.7,3.2,6.3,4.2c0.6,0.9,0.9,3.6,2,5.5
		c0.7,1.2-0.1,1.8-1.5,1.8"/>
	<path display="inline" opacity="0.57" fill="#010202" d="M23.7,126.2c-1.1-0.2-1.4,1.4-0.8,1.9c0.6,0.6,1.5,1.4,2.3,1.1
		C25.8,128.9,24.5,126.3,23.7,126.2z"/>
	<path display="inline" opacity="0.57" fill="#010202" d="M25.5,119.5c-0.7-1.2,1.6-4.1,2.3-3.9c0.8,0.2,1.3,1.7,0.5,2.7
		S25.9,120.3,25.5,119.5z"/>
	<path display="inline" opacity="0.57" fill="#010202" d="M30.5,114.9c-0.6-0.1-1.6-0.2-1,0.8c0.6,1,2.9,1.6,3.4,3.4
		c0.4,1.1-0.4,2.4-0.7,2.4c-0.3,0-1.1-1.7-2.1-1.8c-1-0.1-2.5,0.7-2.6,1.5c0,0.8,2,1.9,3.1,2.7c1.1,0.8,3.4,3.4,3.6,3.9
		c0.2,0.5,0.4,4.1,0.3,4.5c-0.2,0.5-0.2,1.5,2,1.4c2.2-0.1,2.7-0.2,1.9-1.4c-0.6-1-0.9-4.5-2.1-6.4c-0.5-0.7-3.2-2.3-2.9-3
		c0.3-0.7,2.2-3.7,1.7-4.8C34.7,117,31.9,115,30.5,114.9z"/>
	<path display="inline" opacity="0.57" fill="#010202" d="M24.5,102.4c-1.9,0,2.3-4.9,3.8-5.3c2.8-1.3,2.6-1.3,4-3.7
		c0.9-2,1.5-5.5,4.1-5.2c2.7,0.3,0,1.4-0.5,2c-0.5,0.6-0.9,2.6-0.1,2.5c0.9-0.1,3.4-2.1,3.4-3.8c0-1.6,1-4.6,1.9-5.9
		c0.8-1.3,4.9-5.5,5.5-6.4c0.6-0.9,4.8-7.7,6.3-7.8c1.4-0.1,1.4,0.5,0.3,1.6c-1.1,1-4.4,5.6-6.1,7.6c-1.7,2-4.9,6.7-5.2,8.2
		c-0.3,1.5-1.6,5.2-2.6,6.4c-1,1.3-2.9,4.1-4.5,4.7c-1.6,0.6-4.2,0.8-5.9,2.2C27.2,100.9,26.1,102.5,24.5,102.4z"/>
	<path display="inline" opacity="0.57" fill="#010202" d="M26.9,88.4c0.2-0.7-0.1-1.5-0.7-1.8c-1.4-0.7-3.5-2.2-3.6-4.4
		c-0.1-3.2,0.4-3.3,2-1c1.6,2.3,2.6,3.4,5.2,3.3c2.6-0.1,7.7-4.5,9.1-5.7c1.5-1.2,6.3-6.8,7.3-7.9c0.9-1.2,4.1-6.5,4.8-4.9
		c0.7,1.6-9.9,14.2-11.3,15.4c-1.3,1.2-6.1,4.8-8,6.9c-1.9,2-2.6,6.6-3.4,6.7c-0.9,0.2-2.9-3-2.1-4.7C26.5,89.5,26.8,88.9,26.9,88.4
		z"/>
	<path display="inline" opacity="0.57" fill="#010202" d="M26.4,79.7c-0.2-1.1,2.4,0.4,4.6-0.6c2.2-1,6.6-5.1,8.3-7.2
		c1.6-2.1,7.2-8.7,8.2-8.6c1,0.1,0.6,1.6-0.6,3.5c-1.2,1.9-6.5,7.6-8.6,9.8c-2.1,2.2-4.9,5.6-6.2,5.5C31,82,26.8,81.6,26.4,79.7z"/>
	<path display="inline" opacity="0.23" fill="#010202" d="M48.7,27.9c0,0-1.4-2-3-0.3c-1.6,1.7-2.5,4.1-1.6,7.3
		c0.8,3.2,4.8,9.2,7,9.4c2.1,0.2,5.7-0.5,6.4,0.6c0.7,1.2,1.9,3.9,2.3,3.2c0.4-0.7-1.6-3.8-1.8-4.4c-0.2-0.6,0.4-4.4-0.1-5.6
		c-0.5-1.2-4.5-4.3-6-4.5c-1.5-0.2-5.3-1-5.4-2.5C46.3,29.7,48.6,29.7,48.7,27.9z"/>
	<path display="inline" opacity="0.57" fill="#010202" d="M53,25c-0.7-0.8-1.9,2-1.9,2.9S49.7,29.2,50,30c0.2,0.8,2.2,1.3,2.6,0.6
		c0.4-0.7,0-3,0.7-3.7C54,26.2,53.4,25.5,53,25z"/>
	<path display="inline" opacity="0.57" fill="#010202" d="M55.7,25.8c-0.5-0.3-0.8,1.8-0.8,2.8c0,1-1.6,2-0.9,2.6s2.4,0.5,2.6-0.6
		C56.8,29.5,56.5,26.3,55.7,25.8z"/>
	<path display="inline" opacity="0.57" fill="#010202" d="M53.8,20.1c-0.8-0.4-1.1-2.1-2.4-2.3c-0.8-0.2,0.7,2.1,0.7,2.8
		s-1.5,1.5-1.9,1c-0.4-0.5-0.3-2.9-1.8-3.1c-1.1-0.2,0.5,2.4,0.4,2.9c-0.2,0.5-1.6,1.3-1.9,0.7c-0.4-0.6-0.6-2.6-2.1-2.6
		c-1.2,0,0.8,2.3,0.6,2.8c-0.2,0.5-0.9,1.1-1.5,0.5c-0.6-0.6-1-2.1-2.2-1.8c-1.2,0.4-0.9,1.4-0.4,2c0.5,0.6,1.2,2,0.5,2.6
		c-0.6,0.6-0.5,2.2-1.3,2.1c-0.8,0-0.8-2.2-2.2-3.4c-0.9-0.8-3.9,0.1-3.5,1.8c0.4,1.7,1.5,2,2.6,1.9c1.1-0.1-1-0.5-0.4-1.6
		c0.6-1.2,1.9,0.2,2.1,0.7c0.1,0.5,0.4,3,0.2,4.6c-0.1,1.6,0.4,1.2,1.2,0.9c0.8-0.3,0.4-2,1.2-3.3c0.8-1.3,1.2-3.2,3.1-4.1
		c1.9-1,3.5,0.6,5.4-0.7c1.9-1.3,1.9-2,3.6-2.4s2.8-0.4,1.9-1.1C54.8,20.4,54.6,20.5,53.8,20.1z"/>
	<path display="inline" opacity="0.57" fill="#010202" d="M33.7,27.9c-0.4,0.1,2.2,3.8,2.4,4.7c0.2,1,0,2.5,0.9,2
		c0.9-0.4,0.5-3.2,0.2-3.8C36.9,30.3,34.9,27.5,33.7,27.9z"/>
	<path display="inline" opacity="0.57" fill="#010202" d="M35.4,38.6c0,0,0-5.2-1.1-6.4c-1-1.3-2.9-3.7-3.3-3.6
		c-0.4,0.2,0.4,3.4,0.4,3.8c-1.3-0.9-3.1-1.1-2.9-0.6c0.2,0.4,1.5,2.3,1.5,2.3c-1.3-0.4-3.1-1.3-3.2-0.5c-0.1,0.8,3.2,3.9,4.3,4.4
		C32.2,38.6,35.4,38.6,35.4,38.6z"/>
	<path display="inline" opacity="0.57" fill="#010202" d="M26.1,42.4c0,0,4.1-0.9,3.7-2.1c-0.4-1.1-3.6-4.8-4.5-4.8
		c-0.9,0-0.1,1.1,0,1.7c0.1,0.5-1.8,0.6-1.8,1.7C23.5,40.1,25,42.3,26.1,42.4z"/>
	<path display="inline" opacity="0.57" fill="#010202" d="M57.7,48.5c-0.2-1.6-2.5-2.3-3.1-1.8c-0.6,0.5,0,2.2,1,2.3
		C56.7,49,58,50.4,57.7,48.5z"/>
	<path display="inline" opacity="0.57" fill="#010202" d="M54.9,51.3c0,0-2.9-4.9-4.3-5.6c-1.4-0.6-6.3-4.6-6.6-5.9
		c-0.3-1.3-1.3-0.1-0.7,1.6c-1.7-0.1-4,0.4-4.1-0.9c-0.1-1.3-0.6-4.3,0.5-4.6c1.1-0.3,1.9,0,1.9,0.8c-0.1,0.8-1.4,0.8-1.4,0.8
		c0.9,1.7,2.6,1.2,2.7,0.6c0.1-0.7,0.4-2.8-0.9-3.4c-1.3-0.5-2.6-0.8-3.5,0.3c-0.9,1.1-1.1,3-0.8,4c0.3,1,0.3,1.6,0.3,1.6
		s-2-1.3-2-2c-0.8,0.9-0.5,2.2-0.5,2.2c-2.3,0.2-6.4,1.2-8,3.2s-3.5,4.5-3.6,7.7c-0.1,3.2,0.9,7.1,2,8.7c2.1,3,5.6,3.9,7.9,3.8
		c2.3-0.1,5.4-1.8,6.2-2.6c0.8-0.8,1.6-3.1,1.1-4.5c-0.5-1.4-3-2.8-3.3-1.6c-0.3,1.1,1.7,0.7,1.7,2.3c0,1.5-1,3.4-2,3.9
		c-1,0.5-4.4,1.6-6.7,0.6s-6.5-4-5.2-10.7c1.3-6.7,6.4-9,9.9-9c3.5-0.1,8,0.1,10.6,1.8c2.6,1.8,5.7,4.2,6.2,5
		C52.6,50,54,52.4,54.9,51.3z"/>
	<path display="inline" opacity="0.57" fill="#010202" d="M53,53c0,0-2.6-4.8-3.8-5s-3.8-0.4-4,1.5c-0.2,1.9,0.2,4.5,1.5,5.2
		c1.2,0.7,3.5,1,3.5,0c0-1-0.5-3.7-1.7-3.4c-1.2,0.3-2.3-0.4-1.6-1.3c0.8-0.9,2.2-1.6,2.8-0.5C50.1,50.6,51.6,53.8,53,53z"/>
	<path display="inline" opacity="0.57" fill="#010202" d="M40.6,54.1c0,0,1.8,0.4,2.2-0.9c0.4-1.3-0.7-2.6-1.3-2.2
		C40.8,51.4,39.9,52.8,40.6,54.1z"/>
	<path display="inline" opacity="0.57" fill="#010202" d="M41.4,49.9c0,0-0.9-0.5,0.9-2.4c0,0-0.4-2.7,1.8-2.2c2.1,0.5,0.4,3,0,3.6
		C43.4,49.8,41.9,50.2,41.4,49.9z"/>
	<path display="inline" opacity="0.57" fill="#010202" d="M39.5,49.2c0,0-1.3-0.5-1.3-2.1c0-1.7,0-2.9,1-2.7c1.1,0.2,1.2,2.5,1,3.6
		C40.2,49.1,39.5,49.2,39.5,49.2z"/>
	<path display="inline" opacity="0.57" fill="#010202" d="M36.2,44.3c-0.6,0.1-1.3,1.6-0.8,2.4c0.4,0.9,1.3,2.6,1.7,2.4
		C37.4,49.1,38.1,44,36.2,44.3z"/>
	<path display="inline" opacity="0.57" fill="#010202" d="M35,50.2c0,0-0.5-4.1-1.3-4.5c-0.8-0.4-2.6-0.7-2.2,1.1
		C31.8,48.5,34.4,50.2,35,50.2z"/>
	<path display="inline" opacity="0.57" fill="#010202" d="M33,52.1c0,0-4.5-1.6-4.4-3.1c0.1-1.5,1.2-2.2,1.9-1.5
		C31.1,48.1,33,52.1,33,52.1z"/>
	<path display="inline" opacity="0.57" fill="#010202" d="M32.5,54.1c0,0-3.9-4.2-4.7-3.2c-0.8,0.9-1.6,3.1-0.3,3.4
		C28.7,54.6,32.2,55.5,32.5,54.1z"/>
	<path display="inline" opacity="0.57" fill="#010202" d="M32.2,56.1c-0.5-1.1-4.4-0.4-4.5,0.7c-0.2,1.1,0,2.5,1.7,2.4
		C31.1,59.1,32.6,57,32.2,56.1z"/>
	<path display="inline" opacity="0.57" fill="#010202" d="M33,59.2c-0.7,0-2.3,0.3-1.6,1.1c0.7,0.9,2,1.1,2.6,0.8
		C34.5,60.7,33.7,59.1,33,59.2z"/>
	<path display="inline" opacity="0.57" fill="#010202" d="M36.7,58.1c-0.5-0.2-1.9,1.3-1.4,1.8c0.5,0.5,2.2,0.5,2.5-0.5
		C38,58.5,37.3,58.3,36.7,58.1z"/>
	<path display="inline" opacity="0.57" fill="#010202" d="M35.2,55.1c-1-0.4-2,0.9-1.8,1.4c0.2,0.4,2.6,0.4,2.9,0
		C36.6,56.1,35.9,55.3,35.2,55.1z"/>
	<path display="inline" opacity="0.57" fill="#010202" d="M35.2,51.4c-0.9,0.1-1.2,1-0.8,1.6c0.4,0.6,1.6,1.1,2.4,1.1
		c0.7,0-0.4-0.9-0.5-1.6C36.3,51.8,35.7,51.4,35.2,51.4z"/>
	<path display="inline" opacity="0.57" fill="#010202" d="M38.6,50.2c-0.6-0.4-1.2,0.2-1.1,1c0.1,0.8,0.6,0.5,0.8,0.9
		c0.2,0.4,0.2,1.1,0.7,1.1C39.4,53.2,39.5,50.7,38.6,50.2z"/>
	<path display="inline" opacity="0.57" fill="#010202" d="M44.2,59.2c0,0-0.9-3.5-1.6-2.5c-0.6,1,0,3.6-0.6,4.5
		c-0.6,0.9-3.3,1.5-3,2.9c0.4,1.4,2.1,3.2,3.1,2.3c1-0.9,3-2.1,3.1-4C45.2,60.6,44.5,60.1,44.2,59.2z"/>
	<path display="inline" opacity="0.57" fill="#010202" d="M38.9,66.7c-0.7-0.1-1.2,2.1-0.6,2.5c0.5,0.4,2.1,0.6,2.1-0.5
		C40.4,67.7,39.6,66.8,38.9,66.7z"/>
	<path display="inline" opacity="0.57" fill="#010202" d="M36,65.3c-1-0.3-1.7,1.6-1.1,2.2c0.7,0.5,2.5,0.8,2.6-0.8
		C37.5,65.2,36.5,65.5,36,65.3z"/>
	<path display="inline" opacity="0.57" fill="#010202" d="M28,63.9c-1-0.1,0.4,2.9,1.2,3.4c0.9,0.5,1.6,0.6,1.6-1
		C30.8,64.6,28.6,63.9,28,63.9z"/>
	<path display="inline" opacity="0.57" fill="#010202" d="M28.6,69.1c-0.7-2.2-0.9,4.3,0,4.3C29.5,73.4,29,70.5,28.6,69.1z"/>
	<path display="inline" opacity="0.57" fill="#010202" d="M31.4,69.1c-0.5-0.1-1.2,2.5-0.6,2.8c0.6,0.3,2.3,0.4,2.2-0.4
		C32.9,70.6,32.3,69.3,31.4,69.1z"/>
	<path display="inline" opacity="0.57" fill="#010202" d="M33,67.6c-0.1,0.5,1.3,0.7,1.2,1.9c-0.1,1.3,0,2.6,1.4,2.5
		c1.4-0.1,2.2-0.8,1.8-1.8C37,69.4,33.2,66.7,33,67.6z"/>
	<path display="inline" opacity="0.57" fill="#010202" d="M33.7,72.7c-0.8-0.3-2.9,2.3-4.1,2.3c-1.2-0.1-2.5-0.4-2.4,0.8
		c0.1,1.2,2,2.2,3.5,1.9c1.5-0.4,4-2.3,4.2-3.3C35.1,73.3,34.4,73,33.7,72.7z"/>
	<path display="inline" opacity="0.57" fill="#010202" d="M26.1,62.3c-0.4-0.2-0.4,4.5-0.4,5.9c0,1.3-0.4,5.1-1,5.6
		c-0.6,0.5-2.5,1.6-2.5,2.9c0,1.3,1.4,2.3,2.3,1.7c0.9-0.6,2.3-1.6,2.3-3.1C26.8,73.7,27,62.7,26.1,62.3z"/>
	<path display="inline" opacity="0.57" fill="#010202" d="M24,65.7c-0.7-0.6-1.1,3.7-2.2,5c-1.1,1.2-1.8,1.7-1.5,2.7
		c0.3,1,2,1.4,2.8,0.4c0.8-1,1.3-2.8,1.4-3.8C24.6,69.1,24.7,66.3,24,65.7z"/>
	<path display="inline" opacity="0.57" fill="#010202" d="M23.2,57.8c0,0-1.5,5.3-2.2,6.3c-0.6,1-2.6,2.7-2.4,3.7
		c0.2,1.1,1.3,2.8,2.6,1.2c1.3-1.6,1.9-5,1.9-6.4C23.2,61.2,23.2,57.8,23.2,57.8z"/>
	<path display="inline" opacity="0.57" fill="#010202" d="M21.2,55.4c-0.4-0.8-1.9,4.6-3.6,4.9c-1.8,0.3-0.8,4,0.6,3.5
		c1.5-0.5,2.5-2.8,3-4.2C21.7,58.2,21.5,56,21.2,55.4z"/>
	<path display="inline" opacity="0.57" fill="#010202" d="M22.4,53.2c0,0,0.1-5.5,1.3-6.9c1.2-1.4,2.1-2,1.2-2.9
		c-0.9-0.8-2.4-2.6-3-2c-0.6,0.6-0.2,2.1-1.5,2.5c-1.3,0.4-3.9,1-5,3.2c-1.2,2.2-1.6,7.6-1.6,9.6c0,2-0.6,12-0.9,13.6
		c-0.3,1.6-0.6,17.3-1.1,19.2c-0.5,1.9-3.6,2.5-2.8,6.9c0.8,4.4,3-0.6,3.1-2.3c0.1-1.6,1.2,2.4,2.8,2.8c1.6,0.4,2.8-0.6,1.7-2.5
		c-1.1-1.9-3.3-3.3-2.6-5.3c1.8,2.4,3.1,2.8,4,2.1c0.9-0.6-1.2-3.8-2.2-4.6c-1-0.8-2.3-2.1-2-4.3c2.7,3.1,4.6,4.7,5.2,3.5
		c0.6-1.3-0.9-4.2-2-4.7c-1-0.5-3.3-3.8-3.1-5.6c2.3,2.8,3.1,4.7,4.6,4.3c1.5-0.4,1.6-2.7,1.1-3.5c-0.5-0.8-3.3-0.5-3.3-2.2
		c2.1,0.3,2.7,0.5,2.5-1.1c-0.2-1.6-3.9-3-3.8-6.6c0.2-3.6,0.3-9.6,0.7-12.6c0.4-3,0.9-7.5,4.5-8.1c-0.2,1.8-1.8,4.2-2.2,5.5
		s-0.8,2.6-0.9,4.7c0,2.1,0.2,4.9,1.5,2.6c1.3-2.3,1.2-4,1.2-5.6c0.1-1.5,1.3-6,2.3-6c-0.4,1.4-0.7,4-0.6,5.1
		C21.6,52.7,21.1,53.8,22.4,53.2z"/>
</g>
</svg>
