<?xml version="1.0" encoding="utf-8"?>
<!-- Generator: Adobe Illustrator 18.0.0, SVG Export Plug-In . SVG Version: 6.00 Build 0)  -->
<!DOCTYPE svg PUBLIC "-//W3C//DTD SVG 1.1//EN" "http://www.w3.org/Graphics/SVG/1.1/DTD/svg11.dtd">
<svg version="1.1" id="Logo" xmlns="http://www.w3.org/2000/svg" xmlns:xlink="http://www.w3.org/1999/xlink" x="0px" y="0px"
	 viewBox="0 0 304 292" enable-background="new 0 0 304 292" xml:space="preserve">
<g id="Fleurs">
	<path fill="#FFFFFF" d="M40.9,146.9c0,0-2.5,3.5-2,1.1c0.5-2.4,4.3-7.6,1.8-9.3c-1.1-0.1-1.9-0.4-2.8,1c-1,1-0.7-2,0.6-3.7
		c1.3-1.7,2.3-2.2,2.9-3.1c0.7-1,1.4-0.5,1.2,1.6c-0.2,2.1,0.5,2.3,0.8,4.3c0.3,2-0.2,4.7-0.5,5.3C42.6,144.7,40.9,146.9,40.9,146.9
		z"/>
	<path fill="#FFFFFF" d="M34.7,125.8c0,0-0.9,1.2-2.3,2.6c-1.4,1.4-2.4,5.6-2.1,7.9c0.3,2.3,0.6,1,0.6-0.3c-0.1-1.3,1.2-3.7,1.6-1.8
		c0.4,1.8,0.4,2.6,0.6,3.1c0.2,0.5,1,0.7,0.5-0.8c-0.5-1.5-0.1-3.4,0.9-4.2c1-0.8,1.3-1.3,1.5-0.8c0.2,0.4,0.2,4.3-0.1,6
		c-0.3,1.7-0.5,2.3-0.5,3.5c0,1.2,0.4,3.3,1-1s0.9-10.7,0.1-13.1c-0.8-2.5,0-1.2-0.4-1.8C35.7,124.2,34.7,125.8,34.7,125.8z"/>
	<path fill="#FFFFFF" d="M16.1,132.4c0.3,0.9,1.5,2.9,2.5,3.5c1,0.6,4.4,2.6,5,2.6s-3-2.5-1.5-3.8c1.5-1.3,4.1,0.8,5.2,2.1
		c1.1,1.3,1.5,2.1,1.5,1.6c0-0.5-1.4-3.2-3.1-4.5c-1.7-1.2-1.6-1.3-3.3-2.3c-1.7-1-3.8,0.1-4.9-0.4c-1.1-0.6-2.2-1.5-1.8-0.2
		C16.1,132.4,16.1,132.4,16.1,132.4z"/>
	<path fill="#FFFFFF" d="M18.6,139.7c-1.2,0.4-5,2-5.6,2.6c-0.6,0.5-0.2,0.8,1.6,0.5c1.3,0.5,2.2,1.6,2.8,1.5c0.6-0.1,0.7,0.6,2-1.7
		c1.3-2.3,3.8-2,4.5-2.1c0.7,0,1-0.4-0.3-0.6C22.2,139.7,20.1,139.1,18.6,139.7z"/>
	<path fill="#FFFFFF" d="M12.9,145.1c-1.3,0.4-1.9,2.4-1.9,2.4c1.2,0.1,2.1,1.2,2.1,1.2s1.4-1.3,2.5-1.7c1.1-0.5,0.8-1.1-0.3-1.6
		C14.1,144.9,14.2,144.7,12.9,145.1z"/>
	<path fill="#FFFFFF" d="M14.4,150.3c-0.8,0.6-1.5,0.9-1.9,0.8c-0.5-0.1,1.3,1.3,1.7,1.4c0.4,0.1,1.3,0.9,1.5,0.5
		c0.2-0.3,1.1-1.1,1.7-1.4c-0.6-1-2.1-1.9-2.1-1.9L14.4,150.3z"/>
	<path fill="#FFFFFF" d="M12.1,153.4c-0.9,0.4-1.8-0.1-1.8,0.7s1.1,2.2,2,2.6s3,1.4,3.6,1c0.6-0.5,0.6-0.4-0.9-1
		c-1.5-0.5-2.1-1.5-2-2.6S12.1,153.4,12.1,153.4z"/>
	<path fill="#FFFFFF" d="M16.6,159.3l-2.5,3.6c0,0,3.6,0.8,4.8,0.3s4.9-1.5,7-2.5c2.1-1,5.6-3.3,6.1-4.1c0.5-0.7,0.4-1.1-4.4,2.4
		c-2.5,1-5.1,1.8-6.3,1.2c-1.2-0.6-0.5-1.9-1.7-2.1C18.6,158.1,17.8,157.9,16.6,159.3z"/>
	<path fill="#FFFFFF" d="M15.6,154.7c0,0,1.2,0,2.3,0.6c1.2,0.5,1.6,1.7,2.8,2c1.2,0.3,4.5,0.6,6.4,0c1.9-0.6,4.4-1.3,5.3-2.5
		c0.8-1.2,0.1-0.9-0.7,0c-0.8,0.9-4.9,1.4-6.6,0.8c-1.7-0.6-3.1-1.8-4.3-2.3c-1.1-0.5-2.1-0.6-3.1,0S15.6,154.7,15.6,154.7z"/>
	<path fill="#FFFFFF" d="M33.9,156.5c0,0-0.9,4.6-2.8,7.2c-1.9,2.5-4.5,3.8-4.7,1.9c-0.2-1.9,0.5-4.1,0.5-4.1s-0.8-0.2-2.1,2.4
		c-1.4,2.5-0.5,7.6-0.3,8.3c0.2,0.7,0.5,1.4,0.8,1.4c0.3,0,0.5-2.2,2.1-3.1c1.6-0.9,2.9-1.6,4-3.5c1.1-1.9,2.2-4.6,2.5-7.1
		C34.2,157.4,33.9,156.5,33.9,156.5z"/>
	<path fill="#FFFFFF" d="M36.7,151.6c0,0,3,4,3.6,5c0.6,1,1.1,1.6,0.4,2.8c-0.7,1.2-2.5-1.3-3.2-2.2c-0.7-0.9-1.7-1.2-0.7,0.7
		c1,1.9,2,2.5,2.1,3.5c0.1,0.9-0.7,1.6-1.9,0.6c-1.2-1-1.3-1.4-1.7-2.2c-0.3-0.8-0.9-0.2,0.5,2.2c1.4,2.5,1.5,3,2.4,3.5
		c0.9,0.4,4.3,2.3,4.8,2.6c0.5,0.3,1.1-3.1,0.4-6.2c-0.7-3.1-2.2-6.9-3-7.8C39.5,153.3,38.8,151.8,36.7,151.6z"/>
	<path fill="#FFFFFF" d="M36.5,150.3c0,0-3.5,2.1-6.8,1.6c-3.3-0.5-6.1-2.4-6-4.7c0-2.4,1.8-4.1,4-3.7c2.2,0.4,4.7,1.7,6.2,2.7
		c1.4,0.9,1.8,0.4,0.2-0.9c-1.7-1.3-5-4.1-8.2-3.3s-3.4,0.3-5.7,3c-2.3,2.7-2.6,3.3-2.6,3.3s2.7,2.7,3.6,3.1
		c0.9,0.4,4.5,1.8,6.5,1.9c2.1,0.1,6.4-0.8,7.2-1.3C35.6,151.5,36.5,150.3,36.5,150.3z"/>
	<path fill="#FFFFFF" d="M265.1,142.9c0,0,2.5,3.5,2,1.1c-0.5-2.4-4.3-7.6-1.8-9.3c1.1-0.1,1.9-0.4,2.8,1c1,1,0.7-2-0.6-3.7
		c-1.3-1.7-2.3-2.2-2.9-3.1c-0.7-1-1.4-0.5-1.2,1.6c0.2,2.1-0.5,2.3-0.8,4.3c-0.3,2,0.2,4.7,0.5,5.3
		C263.4,140.7,265.1,142.9,265.1,142.9z"/>
	<path fill="#FFFFFF" d="M271.3,121.8c0,0,0.9,1.2,2.3,2.6c1.4,1.4,2.4,5.6,2.1,7.9c-0.3,2.3-0.6,1-0.6-0.3c0.1-1.3-1.2-3.7-1.6-1.8
		c-0.4,1.8-0.4,2.6-0.6,3.1c-0.2,0.5-1,0.7-0.5-0.8s0.1-3.4-0.9-4.2c-1-0.8-1.3-1.3-1.5-0.8c-0.2,0.4-0.2,4.3,0.1,6
		c0.3,1.7,0.5,2.3,0.5,3.5c0,1.2-0.4,3.3-1-1s-0.9-10.7-0.1-13.1c0.8-2.5,0-1.2,0.4-1.8C270.3,120.2,271.3,121.8,271.3,121.8z"/>
	<path fill="#FFFFFF" d="M289.9,128.4c-0.3,0.9-1.5,2.9-2.5,3.5c-1,0.6-4.4,2.6-5,2.6c-0.6,0,3-2.5,1.5-3.8
		c-1.5-1.3-4.1,0.8-5.2,2.1c-1.1,1.3-1.5,2.1-1.5,1.6c0-0.5,1.4-3.2,3.1-4.5s1.6-1.3,3.3-2.3c1.7-1,3.8,0.1,4.9-0.4
		c1.1-0.6,2.2-1.5,1.8-0.2C289.9,128.4,289.9,128.4,289.9,128.4z"/>
	<path fill="#FFFFFF" d="M287.4,135.7c1.2,0.4,5,2,5.6,2.6c0.6,0.5,0.2,0.8-1.6,0.5c-1.3,0.5-2.2,1.6-2.8,1.5
		c-0.6-0.1-0.7,0.6-2-1.7c-1.3-2.3-3.8-2-4.5-2.1c-0.7,0-1-0.4,0.3-0.6C283.8,135.7,285.9,135.1,287.4,135.7z"/>
	<path fill="#FFFFFF" d="M293.1,141.1c1.3,0.4,1.9,2.4,1.9,2.4c-1.2,0.1-2.1,1.2-2.1,1.2s-1.4-1.3-2.5-1.7c-1.1-0.5-0.8-1.1,0.3-1.6
		C291.9,140.9,291.8,140.7,293.1,141.1z"/>
	<path fill="#FFFFFF" d="M291.6,146.3c0.8,0.6,1.5,0.9,1.9,0.8c0.5-0.1-1.3,1.3-1.7,1.4c-0.4,0.1-1.3,0.9-1.5,0.5
		c-0.2-0.3-1.1-1.1-1.7-1.4c0.6-1,2.1-1.9,2.1-1.9L291.6,146.3z"/>
	<path fill="#FFFFFF" d="M293.9,149.4c0.9,0.4,1.8-0.1,1.8,0.7s-1.1,2.2-2,2.6c-0.9,0.4-3,1.4-3.7,1c-0.6-0.5-0.6-0.4,0.9-1
		c1.5-0.5,2.1-1.5,2-2.6C292.9,149,293.9,149.4,293.9,149.4z"/>
	<path fill="#FFFFFF" d="M289.4,155.3l2.5,3.6c0,0-3.6,0.8-4.8,0.3c-1.2-0.4-4.9-1.5-7-2.5c-2.1-1-5.6-3.3-6.1-4.1
		c-0.5-0.7-0.4-1.1,4.4,2.4c2.5,1,5.1,1.8,6.3,1.2c1.2-0.6,0.5-1.9,1.7-2.1S288.2,153.9,289.4,155.3z"/>
	<path fill="#FFFFFF" d="M290.4,150.7c0,0-1.2,0-2.3,0.6c-1.2,0.5-1.6,1.7-2.8,2c-1.2,0.3-4.5,0.6-6.4,0c-1.9-0.6-4.4-1.3-5.3-2.5
		c-0.8-1.2-0.1-0.9,0.7,0c0.8,0.9,4.9,1.4,6.6,0.8c1.7-0.6,3.1-1.8,4.3-2.3c1.1-0.5,2.1-0.6,3.1,0S290.4,150.7,290.4,150.7z"/>
	<path fill="#FFFFFF" d="M272.1,152.5c0,0,0.9,4.6,2.8,7.2c1.9,2.5,4.5,3.8,4.7,1.9c0.2-1.9-0.5-4.1-0.5-4.1s0.8-0.2,2.1,2.4
		c1.4,2.5,0.5,7.6,0.3,8.3s-0.5,1.4-0.8,1.4c-0.3,0-0.5-2.2-2.1-3.1c-1.6-0.9-2.9-1.6-4-3.5c-1.1-1.9-2.2-4.6-2.5-7.1
		C271.8,153.4,272.1,152.5,272.1,152.5z"/>
	<path fill="#FFFFFF" d="M269.3,147.6c0,0-3,4-3.6,5c-0.6,1-1.1,1.6-0.4,2.8c0.7,1.2,2.5-1.3,3.2-2.2c0.7-0.9,1.7-1.2,0.7,0.7
		c-1,1.9-2,2.5-2.1,3.5c-0.1,0.9,0.7,1.6,1.9,0.6c1.2-1,1.3-1.4,1.7-2.2c0.3-0.8,0.9-0.2-0.5,2.2c-1.4,2.5-1.5,3-2.4,3.5
		c-0.9,0.4-4.3,2.3-4.8,2.6c-0.5,0.3-1.1-3.1-0.4-6.2c0.7-3.1,2.2-6.9,3-7.8C266.5,149.3,267.2,147.8,269.3,147.6z"/>
	<path fill="#FFFFFF" d="M269.5,146.3c0,0,3.5,2.1,6.8,1.6c3.3-0.5,6.1-2.4,6-4.7c0-2.4-1.8-4.1-4-3.7c-2.2,0.4-4.7,1.7-6.2,2.7
		c-1.4,0.9-1.8,0.4-0.2-0.9c1.7-1.3,5-4.1,8.2-3.3c3.3,0.8,3.4,0.3,5.7,3c2.3,2.7,2.6,3.3,2.6,3.3s-2.7,2.7-3.6,3.1
		s-4.5,1.8-6.5,1.9c-2.1,0.1-6.4-0.8-7.2-1.3C270.4,147.5,269.5,146.3,269.5,146.3z"/>
</g>
<g id="Elephant">
	<path fill="#FFFFFF" d="M206.5,138.5c0,0-4.8-1.2-4.8-7c0-4.5,3.9-8.6,3.9-8.6s-0.4,4.7,2,6c2.3,1.3,3.5,2.8,3.7,5
		c0.2,2.5-1.4,4.6-2.6,4.6l1.2,4.9c0,0,1.4-2.8,2.1-5.3s0.9-6.9,0.9-6.9s1.6,1.7,1.6,4c0,1.9-0.5,3.8-0.5,3.8l3-3.2
		c0.4,4.6-4.1,11.7-5.4,13.7c-0.2,0.4-0.3,0.8-0.3,1.2l0.3,1.6c0,0,3-3.4,4.1-7.2c0,0,1.2,5.1-2.6,10.7c-0.2,0.3-0.3,0.8-0.2,1.1
		l0.7,2.9c0,0,3.8-6.5,5-14.3c2.1,2.3-1.7,14.2-2.1,15.5c-0.4,1.3-0.1,4.3-0.1,4.3l5-14.3c1.6,1,0.5,8.2-0.1,9.2
		c1.8-0.8,3.7-0.4,3.7-0.4c-3.6,2.1-5.3,5.2-5.5,6.7c-0.3,2.2-0.1,4,0,5.6c0,0.7,0.2,1.5,0.5,2.2c0.9,2,2.8,6.5,4.5,8.7
		c2.2,2.9,7.2,8.9,7.4,9.6c0.2,0.7,0.5,3-0.6,3c-1.1,0.1-5.3-8-6.5-9.9c-1.2-1.9-7.2-12.3-8.6-15.4c-1.7-4-2.4-6.3-5.9-7.4
		c-2-0.6-7.4,0.1-7.4,0.1s1.6-2.8,5.2-2.5c0,0-5.7-1.7-5.9-4c0,0,6.8,1.1,9.8,4.4c-1-2.2-5.1-5.6-6.2-6.4c-2.1-1.6-3.5-3-5.5-3.3
		c4-1,10.5,3.6,10.5,3.6s-0.4-2.8-2.6-4.4c-2.3-1.6-8.3-3.5-9.2-5.5c-0.9-1.9-0.6-4.6-0.6-4.6s3.7,3.7,6.1,4.8
		c2.3,1.1,4.5,2.9,4.5,2.9l0,0c-0.2-0.8-0.6-1.5-1.2-2c-2.2-1.8-7.7-6.5-8.5-8.8c-0.7-2,0.1-5,0.1-5c0.9,2.8,8.4,10.4,8.4,10.4
		L206.5,138.5z"/>
	<path fill="#FFFFFF" d="M210,167.2c-1.1-0.9-3.1-1.2-3-0.3c0.1,0.9,1.2,4.5,2.3,4.2s1.8-1.3,1.6-2.3
		C210.9,167.8,210,167.2,210,167.2z"/>
	<path fill="#FFFFFF" d="M205.1,168.4c-1.3-0.1,0.3,2.3,1.5,3.2c1.2,0.8,1.6,0.2,1.1-0.7C207.1,169.9,206.3,168.5,205.1,168.4z"/>
	<path fill="#FFFFFF" d="M206.7,174c-0.8-0.2-1.1-1.9-2.1-1.2c-0.9,0.7-0.8,2.1,0,2.6c0.8,0.5,1.6,1.1,2.4,0.8
		C207.8,175.9,208.3,174.5,206.7,174z"/>
	<path fill="#FFFFFF" d="M210.3,173.2c-1.5-0.2-2.1,1.5-1.7,2c0.4,0.5,0.9,2.1,1.7,2.1c0.8,0,1.6-1.3,1.2-2.3
		S211.1,173.3,210.3,173.2z"/>
	<path fill="#FFFFFF" d="M207.8,177.2c-0.9,0-1.6,1.2-1.2,2.1c0.5,0.9,1.6,1.1,2,0C208.9,178.3,209.2,177.2,207.8,177.2z"/>
	<path fill="#FFFFFF" d="M212.2,179c-1.4,0.4-1.9,0.9-1.6,1.7c0.3,0.8,0.6,1.5,1.6,1.3c1-0.2,1.6-0.9,1.4-1.9
		C213.3,179,212.2,179,212.2,179z"/>
	<path fill="#FFFFFF" d="M213.6,174.4c-0.5,0.1-1.3,1.6-1,2.2c0.3,0.6,1.6,1.5,1.9,0.6C214.9,176.3,214.4,174.2,213.6,174.4z"/>
	<path fill="#FFFFFF" d="M217,175.2c-1.2-0.7-1.7,1.4-0.9,2c0.8,0.6,1.2,1.3,1.9,1.1C218.7,178.1,217.8,175.7,217,175.2z"/>
	<path fill="#FFFFFF" d="M216,179"/>
	<path fill="#FFFFFF" d="M215.7,179.8c-1.2,0.9-1.7,2.7,0,3.1c1.7,0.4,1.8-2,1.8-2.4C217.5,180.1,216.5,179.1,215.7,179.8z"/>
	<path fill="#FFFFFF" d="M219.6,180c-1.5,0.2-2,1.3-1.1,1.7c0.8,0.4,2,1.3,2.1,0.5C220.6,181.5,220.7,179.9,219.6,180z"/>
	<path fill="#FFFFFF" d="M225.3,176.2c-1,0.3-2.3,1.6-1.8,2.7c0.5,1.1,2.6,1.4,2.6-0.3C226.1,176.9,226.2,176,225.3,176.2z"/>
	<path fill="#FFFFFF" d="M222.9,174.2c-1.2,0-2.5,1.1-1.3,1.3c1.2,0.1,3.5,0.4,3.2-0.6C224.5,173.8,222.9,174.2,222.9,174.2z"/>
	<path fill="#FFFFFF" d="M226.1,170.9c-0.7,0-2.9,0.1-2.1,1c0.8,0.9,0.7,1.5,2,1.5c1.2,0,2.7-0.6,2.7-1.5
		C228.7,171,226.1,170.9,226.1,170.9z"/>
	<path fill="#FFFFFF" d="M228.2,173.9c-0.6,0.9-0.9,1.9-0.9,2.8c0,0.9,1.6,2.7,1.8,0C229.3,174,229,172.8,228.2,173.9z"/>
	<path fill="#FFFFFF" d="M230.7,171.4c-0.4,0-0.6,2.2-0.4,3.2c0.2,1,0.1,2.8,1.2,2.6c1.1-0.2,1.7-2.3,0.6-3.7
		C231,172.1,231.6,171.5,230.7,171.4z"/>
	<path fill="#FFFFFF" d="M229.4,166.4c-2.3,0.1-3.8,1.3-3.2,2.2c0.5,0.9,2.9,1.1,3.6-0.2C230.4,167,230.3,166.4,229.4,166.4z"/>
	<path fill="#FFFFFF" d="M231.5,167.2c-0.8-0.1,0.3,4,0.9,4.7c0.6,0.7,3.4,2.8,2.5-0.2C234,168.7,232.3,167.3,231.5,167.2z"/>
	<path fill="#FFFFFF" d="M231.5,160.6c-0.7-0.1-4.2,2-4.2,2.6c0,0.7-0.3,2.3,0.9,2c1.1-0.2,2.4-2.3,3.1-2.1c0.7,0.2,1.7,3.7,3.1,4.1
		c1.4,0.4,2.2-0.9,1.8-1.5C235.7,165.1,232.8,160.8,231.5,160.6z"/>
	<path fill="#FFFFFF" d="M231.5,154.8c-1.3,0-4,3.8-3.4,4.8c0.6,1,2.5,0.3,3.1-1.3c0.6-1.6,0.9-0.4,1.1,0.2c0.3,0.8,0.9,3.3,2.2,3.6
		c1.3,0.3,1.6-2.2,1.2-2.8C235.1,158.1,232.6,154.8,231.5,154.8z"/>
	<path fill="#FFFFFF" d="M226.2,153.9c0-1,2.8-2.4,3.4-3c0.6-0.6,0.7-1.2,1.5-1.2c0.8,0,2.7,2.3,3.3,3c0.6,0.7,2.3,1.3,2.3,2
		c0,0.8-3,1-3.5-0.1c-0.4-1.2-1.3-2.8-1.8-2.6c-0.5,0.1-1.5,2.2-2.1,2.6c-0.6,0.4-1.6,1.1-2.4,1
		C226.2,155.5,226.2,153.9,226.2,153.9z"/>
	<path fill="#FFFFFF" d="M230.5,144.1c0.6,0,2.3,1.8,3.3,2.5c1.3,1,2.7,1.3,2.3,3.1c-0.1,0.8-2.6,0-3.3-0.6c-0.7-0.6-1.8-2.5-2-2.5
		c-0.3,0-1.4,3.4-2.2,3.3c-0.8-0.1-2.8-0.9-1.5-2.2C228.3,146.5,229.8,144.1,230.5,144.1z"/>
	<path fill="#FFFFFF" d="M229.5,139.3c-0.7,0.1-3.7,3.6-3.7,4.3c0,0.7,0.3,2,1.2,2c0.9,0,2.5-3.3,2.8-3.6c0.4-0.3,3.2,3.6,4.5,3.6
		c1.3,0,1.9-2.1,1.6-2.4C235.7,143,230.1,139.2,229.5,139.3z"/>
	<path fill="#FFFFFF" d="M227.7,135.2c-0.5,0.1-2.6,2.5-2.6,3.4c0,0.8,0.7,2.3,1.8,1.1c1.1-1.2,1.5-3.2,1.9-3.1s2.9,2.9,4.2,2.9
		c1.3,0,1.6-1.6,1.2-1.8C233.8,137.4,229.9,134.5,227.7,135.2z"/>
	<path fill="#FFFFFF" d="M226.9,129.5c-0.6,0-3.6,3.7-3.5,4.6c0.1,0.9,2.3,1.6,3,0c0.7-1.6,0.8-3.1,1.1-2.9c0.4,0.2,2.6,3.5,4.4,3.7
		c1.8,0.2,2-1.8,0.6-2.6S227.8,129.5,226.9,129.5z"/>
	<path fill="#FFFFFF" d="M228.7,126.6c-1.4,0.6-1.6,1.2-0.3,1.7c1.3,0.5,1.9,0.4,1.9-0.6C230.4,126.9,229.8,126.2,228.7,126.6z"/>
	<path fill="#FFFFFF" d="M225,124.9c-1.1,1.8-2.8,3.2-2.6,4.4c0.2,1.3,2,1.8,2.6-0.2c0.6-1.9,3.3-4.7,3.3-5.7c0-1-0.5-3.6-1.5-3.9
		c-0.9-0.4-2.7-2.4-3.1-1.8c-0.4,0.6,0.6,3.2,1.9,3.9C227.2,122.3,225,124.9,225,124.9z"/>
	<path fill="#FFFFFF" d="M223.7,113.9c-0.4,0.4-1.3,2-0.3,2.5c1,0.5,3.8,1.6,4.7,1.4c0.9-0.2-0.9-2-2-1.9c-1.1,0.1-0.3-1.1-0.8-1.7
		C224.7,113.7,223.7,113.9,223.7,113.9z"/>
	<path fill="#FFFFFF" d="M219.9,117.8c-0.5,0.3,1.3,2,1.4,2.9c0.2,0.9-0.3,1.7-1.1,2.3c-0.8,0.6-1.2,2.9-0.9,3.6
		c0.4,0.6,1,1.2,1.7,1.1c0.7-0.1,1.3-2,1.4-2.7c0-0.7,2-0.9,1.8-2.2c-0.1-1.3-1.2-3.1-1.8-3.6C221.8,118.7,221,117.2,219.9,117.8z"
		/>
	<path fill="#FFFFFF" d="M214.5,116c0,0,2,1.7,2,3c0,1.3-0.7,3.6,0.4,3.7c1.1,0.1,1.6-2.3,1.6-3.3S215.8,114.5,214.5,116z"/>
	<path fill="#FFFFFF" d="M218.8,109.4c-0.8-0.3,0,3,0.7,3.7s2,0.7,2,0.7S220.2,110,218.8,109.4z"/>
	<path fill="#FFFFFF" d="M217.1,99.4c-0.8-0.4-2.7,1.8-1.6,3.2c1.1,1.4,3.6,4,4.1,5.1c0.5,1.1,1.8,4.3,2.3,3.2
		c0.4-1.1-0.3-5.4-1.7-7.8C218.9,100.7,218.4,100,217.1,99.4z"/>
	<path fill="#FFFFFF" d="M212.6,91.4c-1.4-0.7-4.8-5.2-5.5-4.8c-0.7,0.4,0.7,3.6,2,4.5c1.3,0.9,4.7,3.1,4.7,4.1c0,1-0.2,1.7-0.8,1.2
		c-0.6-0.5-1.7-2.3-3-2.1c-1.3,0.2-2.5,1.2-2.3,2.3c0.2,1,3,3.6,4,4.1c1,0.5,2.7,1.2,1.8-0.2s-4-1.6-3.8-3.2c0.2-1.7,1.9-0.9,2.7,0
		c0.8,0.8,0.9,2.2,2,2.1c1.1,0,1.9-1.9,1.9-3S214.1,92.3,212.6,91.4z"/>
	<path fill="#FFFFFF" d="M203.2,88.1c-1.2,0.1-1.3,1.1,0,2.2c1.3,1.2,4.2,1.5,3.8,2.4c-0.5,0.9-1.5,1.5-3.1,0.6
		c-1.6-0.9-2-3.2-2.9-2.4c-0.9,0.8,0.9,3.4,1.8,4c0.9,0.5,3.7,0.8,4.5-0.4c0.8-1.1,0.6-3.3,0-3.9C206.7,90.1,204.4,87.9,203.2,88.1z
		"/>
	<path fill="#FFFFFF" d="M205.8,84.9c0-1.1-1.1-2.8-2.5-2.1c-1.3,0.7-4.2,3.8-4.4,4.3c-0.2,0.5-1,2.2-0.8,3.1
		c1.8-2.3,2.2-3.3,3.5-3.6c1.2-0.3,2.7-0.2,3.4-0.8C205.6,85.2,205.8,84.9,205.8,84.9z"/>
	<path fill="#FFFFFF" d="M201.1,80.6c-0.9,0.1-3.3,2.2-3.6,3.2c-0.4,0.9-1.2,4.6-1.2,4.6s1.7-3.4,2.7-3.9c1-0.5,3.6-1.6,3.6-2.7
		C202.6,80.7,201.1,80.6,201.1,80.6z"/>
	<path fill="#FFFFFF" d="M195.4,80.6c-1.2,0.2-1.4,2.1-1.4,3.2s-0.4,3.1,0,3.1c0.4,0,1.3-3.3,2.3-4.6
		C197.3,81.1,196.6,80.4,195.4,80.6z"/>
	<path fill="#FFFFFF" d="M191.9,81.7c-0.9-1-3.8-1.9-3.7-0.4s1.5,3.2,2.7,3.6c1.2,0.4,1,0.7,2,0.7C193.8,85.5,191.9,81.7,191.9,81.7
		z"/>
	<path fill="#FFFFFF" d="M198.6,92.7c0,0-2.7-3.7-3.3-3.2c-0.6,0.5-1.5,1.6,0,2.6C196.8,93.2,198,93.9,198.6,92.7z"/>
	<path fill="#FFFFFF" d="M191.9,90.5c-0.5-0.3-2.5,0.4-2.5,1.2c0,0.7,1.1,1.5,2.1,1.7C192.5,93.4,194.5,91.9,191.9,90.5z"/>
	<path fill="#FFFFFF" d="M187.7,88.4c-0.5-0.5-2.9-0.1-3.6,0.8c-0.6,0.9-1.1,3.2-0.8,3.6c0.3,0.4,2.9-2,3.6-2.3
		C187.7,90.3,188.7,89.5,187.7,88.4z"/>
	<path fill="#FFFFFF" d="M184.7,94.4c-0.4-0.4-0.9,2-0.4,2.5c0.5,0.5,1.8,2,1.8,1.3S185.4,95.2,184.7,94.4z"/>
	<path fill="#FFFFFF" d="M187.5,93.3c-0.8,0-0.8,2.7,0.6,4.2c1.4,1.5,0.5,2.5,2.5,2.5c2.1,0,2.7-0.8,2-1.9s-2.8-1.6-3.2-2.2
		C189,95.4,188.9,93.4,187.5,93.3z"/>
	<path fill="#FFFFFF" d="M194.9,93.3c-0.7,0-2,1.5-1.1,3.1c0.9,1.6-0.1,1.9,1.1,2c1.2,0.2,2.4-3.2,1.8-3.8
		C196.2,94,196.1,93.4,194.9,93.3z"/>
	<path fill="#FFFFFF" d="M198.8,94.4c0.8-0.2,1.1,2.4,0.9,3.3c-0.1,0.9-0.8,1.6-1.7,1.7C197.1,99.4,197.7,94.6,198.8,94.4z"/>
	<path fill="#FFFFFF" d="M201.9,95.5c-0.6,0.3-1.7,1.9-0.7,2.7c1.1,0.8,2.4,1,2.4,0.3C203.7,97.7,202.4,95.3,201.9,95.5z"/>
	<path fill="#FFFFFF" d="M206.7,99.6c1-0.1-0.5-3.1-0.9-2.8C205,97.4,205.6,99.8,206.7,99.6z"/>
	<path fill="#FFFFFF" d="M193.1,88.2c-0.7-0.7-2.9-2.7-4.8-2.7c-1.9,0-4.5-0.2-6,0.9c-1.5,1-2.1,4.5-2,6.4c0.1,2,2.7,7.1,3.8,7.8
		c1.1,0.6,1.2,1.8,9,1.7c7.8-0.1,16.3-0.5,18.4,0.9c2.1,1.4,4.6,3.6,4.6,3.6c-0.5-1.9-4.1-4.7-6.1-5.4c-2.1-0.7-9.8-0.4-10.7-0.4
		c-0.8,0-9.9,0.7-11.3,0.4c-1.3-0.3-5-2.3-6.2-6s-0.5-6.8,0.9-7.7c1.4-0.9,4.6-1.6,6-1c1.4,0.6,3.6,3.1,4.3,2.9
		C193.9,89.3,193.8,88.9,193.1,88.2z"/>
	<path fill="#FFFFFF" d="M199.8,105.6c-0.9-1.3-3.1-2.9-3.6-2.5c-0.5,0.5,1.8,2.9,3.6,4.2c1.8,1.3,9.9,6.2,12.3,6.8
		c2.5,0.6,6.7,2.7,8.1,2.7c1.3,0,3.6-0.2,1.2-1c-2.4-0.8-9.1-2.8-11.1-3.6C208.5,111.4,200.7,107,199.8,105.6z"/>
	<path fill="#FFFFFF" d="M202.8,103.3c-1.5-0.4-1.6,2.2-0.9,2.8c0.7,0.6,1.7,1.5,1.7-0.6S203.7,103.5,202.8,103.3z"/>
	<path fill="#FFFFFF" d="M207.8,104.2c-1.1-0.9-2.4-0.4-2,1.6c0.4,1.9,1.6,3.3,2,3.3S209.1,105.2,207.8,104.2z"/>
	<path fill="#FFFFFF" d="M211.3,105.2c-0.9,0-1.9,1.3-1.6,2.4c0.3,1.1,2.6,3.7,3.4,3.7c0.8,0-0.5-2.6-0.4-4.2
		C212.7,105.5,212.2,105.2,211.3,105.2z"/>
	<path fill="#FFFFFF" d="M215.4,108.3c-0.9,0-1.2,0.3-0.9,1.7c0.2,1.4,1,2.4,2,2.4C217.5,112.3,216.7,108.2,215.4,108.3z"/>
	<path fill="#FFFFFF" d="M211,114.8c-0.7,0,1,1.3,0.8,2c-0.2,0.6-1.1,1-1.9,0c-0.8-1-0.7-1.8-1.9-2c-1.2-0.2-2.2,2.8-1.9,3.3
		c0.3,0.5,1.5-0.1,1.6-0.9c0.1-0.9,0-0.5,1.2,0.6c1.2,1,2.9,1.3,3.6,0.9c0.7-0.4,1-1.8,0.7-2.5C213,115.4,211.6,114.8,211,114.8z"/>
	<path fill="#FFFFFF" d="M205.3,113c-0.6-0.6-1.6,0.2-1.6,1.8c-0.1,1.6-0.9,1.6-1.4,2c-0.5,0.4,1.6,2.1,2.1,0.9s-0.2-1.8,0.2-2.6
		C204.9,114.4,206.1,113.8,205.3,113z"/>
	<path fill="#FFFFFF" d="M199,113.8c-0.7,0.1-0.4,3.6,0,3.7c0.4,0.1,1.8,1,1.8-0.3c0-1.2,0.6-2.3-0.3-2.4
		C199.6,114.7,200,113.7,199,113.8z"/>
	<path fill="#FFFFFF" d="M202.2,111.1c-0.4-0.4-1.1,0.5-1.2,1.7c-0.1,1.2,0.7,1.4,1.3,1C202.8,113.4,203.1,112,202.2,111.1z"/>
	<path fill="#FFFFFF" d="M199,108.3c-1.2-0.2-1.9,2.3-2.5,2.5c-0.6,0.2-0.9,1.8,0.6,1.8c1.6-0.1,2.7-0.4,2.6-1.4
		C199.7,110.1,199.9,108.4,199,108.3z"/>
	<path fill="#FFFFFF" d="M192.6,105c-0.7,0-4.2,0.2-5.3,0.8c-1.1,0.5-1.3,0.6,0,1.3c1.3,0.8,2.2,3,3.9,3.2c1.8,0.2,4.8-1.5,4.9-2.7
		c0.1-1.1-0.3-2.6-0.9-2.7C194.6,104.9,192.6,105,192.6,105z"/>
	<path fill="#FFFFFF" d="M194.2,112.8c-0.7-0.9-1.1-2.1-2-0.3c-0.9,1.8-1,2.3,1,2.3C195.2,114.9,195.1,114,194.2,112.8z"/>
	<path fill="#FFFFFF" d="M196.9,115.5c-1.4-0.2-3.6,1.3-2.4,2c1.1,0.7,0.7,2.8,1.7,3c1,0.1,1.3-3,1.4-4
		C197.7,115.5,196.9,115.5,196.9,115.5z"/>
	<path fill="#FFFFFF" d="M193.2,126.6c-0.3-2.5-1-6.5-1.9-6.5c-0.9,0-1.3,2.3-1.3,4c0,1.7,1,4.5,1.6,5.3
		C192.2,130.4,193.4,128.5,193.2,126.6z"/>
	<path fill="#FFFFFF" d="M184.1,103c-1.5,0.9-4.2,3-2.1,3.5c2.1,0.5,4-1.4,4-2.3C186.2,103.3,185.2,102.4,184.1,103z"/>
	<path fill="#FFFFFF" d="M181.3,100.1c-1.1,0.2-2.8,1.8-2.7,3c0.1,1.1,0.5,1.8,2.3,0S181.8,100,181.3,100.1z"/>
	<path fill="#FFFFFF" d="M179,96.4c0,0-1.8,1.5-3.1,3.2c-1.3,1.7-1.7,3.6-1.3,4.5c0.4,0.9,2.5,4.1,3.9,4.6c1.4,0.5,3.3,0.9,4,1.2
		c0.8,0.3-0.1,1-0.7,1.9c-0.6,0.8-2,1-1.6,3c0.5,2.1,1.9,2.4,1.9,2c-0.1-1.2,0.6-3.3,1.5-2.3c0.8,1,1.4,1.6,1.9,2.7
		c0.2,0.3,0.6-2.4,0.5-3.2c-0.2-0.9-1.6-2.3-0.5-2.7c1.1-0.4,2.5,0.4,2.4,1.5c0,1.1,0.2,3.3,0,3.8c-0.2,0.5-1.6,2.6-1.7,3.5
		c-0.1,0.9,0,4.5,0,4.5s-1.7-1.2-2.3-1c-0.6,0.2,0.9,2,2,3.1c1.1,1.1,3.5,4.7,3.8,6.6c0.3,1.8,0.4,4.6,0,5.1c-0.4,0.5,0.2,3.5,1.6,0
		c1.4-3.5,0.2-6.6-0.3-7.4c-0.5-0.8-3.3-2.6-3.7-6c-0.4-3.4,0.4-5.7,1.2-6.4c0.9-0.6,3-0.5,3.6,0.4c0.6,0.8,2,4,2,4
		c0.5-1.9-0.4-4.4-0.8-5c-0.4-0.7-2.1-1.8-4.3-1.1c0.2-3.3,0.1-5.3-0.5-5.8c-0.5-0.5-2.3-2.2-5-2.3c-2.7-0.1-6.3-1.2-7-2.3
		c-0.6-1-2.2-3.8-0.1-5.7C179,99,179,96.4,179,96.4z"/>
	<path fill="#FFFFFF" d="M186.1,79.8c-0.7-0.6-1.5,4.1-0.7,4.3C186.2,84.2,186.8,80.4,186.1,79.8z"/>
	<path fill="#FFFFFF" d="M183.5,79.8c-0.9-0.3-1.4,2.5-1.1,3.2c0.3,0.7,0.9,1.7,1.5,1.7c0.6,0-0.6-1.3-0.6-2
		C183.2,82.1,184.2,80,183.5,79.8z"/>
	<path fill="#FFFFFF" d="M180.7,79.8c-0.7,0-1.2,2-1.1,2.5c0.1,0.5,1.3,3.2,2,3.3c0.7,0,0.4-1.4-0.2-2.1c-0.6-0.7-0.4-2-0.1-2.5
		C181.4,80.5,181.2,79.8,180.7,79.8z"/>
	<path fill="#FFFFFF" d="M176.6,81.7c-1-0.3-1.3,1.4-0.6,1.8c0.7,0.4,1.6,1.6,2.5,2.5c0.9,0.9,1.2,0.4,1-0.6
		C179.4,84.3,177.6,81.9,176.6,81.7z"/>
	<path fill="#FFFFFF" d="M173.3,83.7c-1-0.1-2.2,0.4-2.8,1.6c-0.6,1.2,0.4,3,1.4,3.1c1.1,0,2.6,0.3,3.6-0.7c1.2,0.4,2,0.7,2,2.5
		c0,1.8-0.5,3.3-1.6,4.5c-1.1,1.1-2.5,2.9-3.6,4.3c-1.1,1.4-0.6,4-0.6,4s-3.1-1.5-3-3c1.2,0.4,1.9-0.6,1.9-1.6c0-1-1.6-1.9-1.2-1.1
		c0.5,1-1,1.7-1,1.7s-1.9-0.9-2.8-1.7c-1.3-1.3-2.6-2.4-4.2-3.4c-1.3-0.8-4.7-2.7-5.2-2.5c-0.4,0.2-0.6,1.6,0,1.9
		c0.6,0.3,2,1.3,2.8,2.2c0.7,0.8-0.6,1.6-1.7,1.9c-1.3,0.4-1.7,1.7-0.7,2.3c0.8,0.5,2.2,0.4,3.7-0.8c1.2-0.9,1.7-2.3,1.2-2.8
		c1.2,0.7,2,1.2,1.9,1.8c-0.1,0.6-2.2,4.9-4.4,5.1c-1.4,0.1-2.7,0.1-3.4,0.1c-0.4,0-0.5,0.5-0.2,0.7c0.8,0.6,3,1.2,3,1.2
		c-0.7,1.5-1.8,1.3-2.8,1.3c-1.1,0-2.5-0.9-2.9-1.2c-0.4-0.3-3.4-2.9-4-3.9c-0.6-1-3-4.4-3.3-5.8c-0.3-1.4,0.2-4.1,0.5-5
		c0.2-0.7,0.2-1.3,0.2-1.7c0-0.5-0.6-0.6-0.9-0.3c-1,1.5-1.5,4.8-1.5,4.8c-2.2-2.5-4-5.5-5.4-5.4c-1.3,0.1-3.7,3.2-3.7,3.2
		c-0.1-2.4,0.3-2.5-0.3-2.6c-0.6-0.1-1.8-0.4-1.9,1.2c-0.1,1.6-2,4.7-3,4.8c-1,0-4.1-0.2-2.9-3.4c1.2-3.3,2.2,0.1,2.2,0.1
		c0.7-1.3,0.7-3.1-0.3-3.2c-1-0.1-3.4-0.1-4.2,2c-0.6,1.6-2.4,0.5-3.3-0.2c-0.2-0.1-0.4,0-0.3,0.2c0.3,0.9,1.1,1.5,1.1,2.1
		c0,0.7-2.2,2.3-2.2,2.9c0,0.6,0.1,1.7,0.9,1.4c0.6-1.5,2.4-4.4,3.8-3.9c2,0.7-0.6,3.9-0.6,3.9c2.1-0.4,2.8-1.9,4.1-1
		c1.3,0.9,3.6,1.1,4.4,0.7c0.8-2.9,4.9-5.8,5.8-5.8c0.9,0,3.8,3,4.5,3.9c0.7,0.8,3.6,6.2,5.3,8c1.7,1.7,3.5,4.6,5.7,5.4
		c2.2,0.8,4.7,0.7,6.4-1.9c1.7-2.6,3.4-4.8,3.8-5.4c0.5-0.7,2.8-0.5,4,0.7c1.2,1.2,2,1.7,1.8,2.5c-0.1,0.9-2.8,3.8-3.4,4.4
		c-0.6,0.6-0.8,3.9-0.8,3.9s-3.1,0.5-4.5-0.8c-1.4-1.3-2.7-1.7-3-0.5c-0.3,1.2,0.3,3.4,1,4c0.7,0.5,2.5,0.6,2.7,0.2
		c-1.6-0.7-2.8-1.6-2.6-2.9c0.2-1.3,1.2,0.4,1.8,0.8c0.6,0.4,3.3,0.5,3.6,0.4c-0.4,1.3-4.2,3.3-4.5,4.8c-0.2,1.6-0.3,3.5-0.1,4.2
		c1.4-1.8,3.9-5.5,5.4-6.2s1.3-5,1.4-5.8c0.1-0.8,3-5,4-4.7c1.4,1,3,3.5,4,4.2c0.9,0.8,2.7,2.2,4.4,2.2c-2.8-2.8-5.7-4.6-5.7-6.1
		s-1-3.5,0.1-5.6c1.2-2.1,4.4-5.1,5-7c0.5-1.9,0.5-4.5-0.3-5.5C177.5,86.6,176.1,84.1,173.3,83.7z"/>
	<path fill="#FFFFFF" d="M170.2,93.3c-1.4-0.7-3.6-1.7-5-1.4c-1.4,0.4-1.7,0.9-1,1.4c0.7,0.5,1.8,2.8,2.8,3.1c1,0.3,1.6-1.6,2.8-1.5
		c1.2,0.2,0.9,1.6,2,1.5c1.1-0.1,1.5-1.5,1.1-2.2C172.4,93.5,170.7,93.6,170.2,93.3z"/>
	<path fill="#FFFFFF" d="M157.8,89.9c0-0.9,3-3.2,4-3.2c1,0,2,1.9,2.9,1.9s1.1-2.1,2.2-2c1.1,0.1,3.6,2.9,4.7,3.3
		c1,0.4,3.8,0.1,3.6,0.7c-0.2,0.5-2.5,1.2-3.5,0.9c-1.1-0.3-3-2.2-3.8-2.4c-0.8-0.2-1.9-0.1-3,0.8c-1.1,0.9-2.2,2.1-3.4,2.1
		S157.9,91.6,157.8,89.9z"/>
	<path fill="#FFFFFF" d="M154,94.2c-0.7,0.1-1.5,0.6-1,1.7c0.5,1.1,0.8,1.5,1.3,1.5s1.6-1.1,1.6-1.9C155.8,94.7,154.4,94.1,154,94.2
		z"/>
	<path fill="#FFFFFF" d="M152.1,87.6c-0.5,0.1-1.1,1.3-0.9,1.8c0.2,0.6,2,3.1,2.3,2.9c0.4-0.2,0.5-1,0.4-1.9
		C153.8,89.6,153.1,87.5,152.1,87.6z"/>
	<path fill="#FFFFFF" d="M148.4,89.3c-1,0.4-0.3,1.4,0.7,2.3c0.9,0.8,2.1,2.1,2.7,2c0.5-0.1,0.3-0.9-0.2-1.6c-0.5-0.7-1.4-2.6-2-2.6
		C148.8,89.2,149,89,148.4,89.3z"/>
	<path fill="#FFFFFF" d="M147.9,92.6c-0.9,0.4-1.1,2-0.5,2.5c0.6,0.4,2.9,0.6,2.9-0.2C150.3,94,148.8,92.1,147.9,92.6z"/>
	<path fill="#FFFFFF" d="M151.3,96.3c-0.5-0.3-2.1,0.7-2.1,1.4s-0.3,2.1,0.2,2.5c0.5,0.4,1.9-0.6,1.9-1.4
		C151.3,98,151.8,96.5,151.3,96.3z"/>
	<path fill="#FFFFFF" d="M153.5,98.3c-0.2,0-1.6,1.3-1.5,2.6c0.1,1.2-0.1,2.4,0.7,2.4s1.2-1.3,1.2-2.1
		C154,100.2,154.2,98.4,153.5,98.3z"/>
	<path fill="#FFFFFF" d="M166.9,102.1c-0.6-0.8-1.6-1.1-2-0.4c-0.4,0.8,0.2,1.6,1,2C166.7,104,168,103.5,166.9,102.1z"/>
	<path fill="#FFFFFF" d="M164.5,104.7c-1-0.7-1.8-1.4-2.1-0.5c-0.3,0.8,0.2,1.8,1.5,2.1C165.2,106.4,165.4,105.3,164.5,104.7z"/>
	<path fill="#FFFFFF" d="M163,106.8c-0.9-0.3-2.2,0.9-2.2,1.4s1.4,1.7,2.2,1.7c0.8-0.1,2-0.5,1.8-1.5
		C164.7,107.4,164.1,107.2,163,106.8z"/>
	<path fill="#FFFFFF" d="M157.8,115.1c-1.3,0-0.9,1.6-0.5,2.1c0.4,0.5,1.3,0,1.4-0.4C158.7,116.4,158.7,115.1,157.8,115.1z"/>
	<path fill="#FFFFFF" d="M155.9,111.1c-1-1.3-1.6-1.9-2.5-1.1s2.7,2.7,2.8,3.3c0.1,0.6,0.6,0.3,0.7-0.5
		C157,112.1,156.2,111.4,155.9,111.1z"/>
	<path fill="#FFFFFF" d="M150.9,111.7c-0.8,0-1,1.3,0.4,2c1.4,0.6,2.2,0.9,1.9,1.2c-0.3,0.3-3.3,0.6-3.7,1c-0.4,0.4-0.8,0.8,1.4,0.8
		c2.2,0,4.2-0.9,4.2-1.7C155.1,114.2,151.6,111.7,150.9,111.7z"/>
	<path fill="#FFFFFF" d="M155.1,117c-0.3-0.4-2.7,1.6-3,2.2c-0.2,0.6-0.9,1.9,0,2.6c0.9,0.7,1.9-0.6,2-1.7
		C154.2,119.1,155.4,117.4,155.1,117z"/>
	<path fill="#FFFFFF" d="M157.4,118.9c-0.8-0.2-2.2,0.8-2.3,1.8c-0.1,0.9-0.6,2.2,0.3,2.3c0.9,0.2,2.5-0.2,2.5-1.6
		C158,120,158.3,119.1,157.4,118.9z"/>
	<path fill="#FFFFFF" d="M158.4,123.6c-0.6,0-0.9,1.3-0.5,2.4c0.5,1.1,1,2.5,1.6,2.5c0.6,0,0.6-3.5,0.3-4
		C159.5,123.8,158.9,123.5,158.4,123.6z"/>
	<path fill="#FFFFFF" d="M163.4,123.6c-0.7-0.1-1.6,2.2-1.8,3c-0.2,0.8-1.1,2.3,0.4,2c1.6-0.2,2.9-1.4,2.9-2.5
		C164.8,125,164.5,123.7,163.4,123.6z"/>
	<path fill="#FFFFFF" d="M156.3,127.2c-0.7-0.8-2.1-2.9-2.9-1.3c-0.7,1.6,1.1,2.8,2.2,3.1c1.1,0.3,1.7,1.3,2.2,0.6
		C158.4,128.8,156.8,127.8,156.3,127.2z"/>
	<path fill="#FFFFFF" d="M159.6,130.1c-0.8-0.6-1.6,0.9-1.2,1.9c0.5,1,0.7,1.6,1.2,1.6c0.5,0,1.3-0.8,1.3-1.7
		C160.8,130.9,160.3,130.6,159.6,130.1z"/>
	<path fill="#FFFFFF" d="M154.6,130.5c-1.7-0.2-3.3,0.6-3,1.2c0.3,0.5,0.4,1.9,2,1.8c1.6-0.1,3.3-1.2,3.3-1.6
		S155.6,130.7,154.6,130.5z"/>
	<path fill="#FFFFFF" d="M165.6,129.5c-1,0-3.5,1.1-3.5,1.4s2.7,2.5,3.8,2.6c1.1,0.1,2.8-0.5,2.7-1.6
		C168.5,130.7,166.5,129.5,165.6,129.5z"/>
	<path fill="#FFFFFF" d="M162.1,133.4c-0.6,0,0.1,3.8,1.1,4.5c1,0.8,2.3,1.6,3.2,0.8c0.8-0.9-0.1-2.5-1-3.2
		C164.4,134.8,162.8,133.3,162.1,133.4z"/>
	<path fill="#FFFFFF" d="M159.9,135.2c-0.4-0.1-1.2,1.9-1,3.2c0.2,1.3,0.7,2.1,1.6,1.8c0.9-0.3,2.1-2.1,1.4-2.8
		S160.6,135.5,159.9,135.2z"/>
	<path fill="#FFFFFF" d="M157.8,134c-0.2-0.2-4.2,1.5-4.3,2.5c-0.1,1-0.2,2.2,1,2.2c1.2,0,2.9-1.1,2.9-2.1
		C157.5,135.7,158.2,134.4,157.8,134z"/>
	<path fill="#FFFFFF" d="M151.6,134.4c-1.1-0.6-1.4,0.8-1.9,0.8c-0.5,0.1-0.4-1.5-0.9-1.2c-0.5,0.3-0.9,1.7-0.6,2.4
		c0.2,0.7,0.9,1,1.7,0.5c0.8-0.6,2.2-0.5,2.2-1.1C152.1,135.3,152.2,134.7,151.6,134.4z"/>
	<path fill="#FFFFFF" d="M144.7,139c-0.8,0.4,0.7,3,1.3,3.8c0.5,0.8,1,2.2,1.8,2.3c0.7,0,4.5-4.5,4.4-5.4c-0.1-0.9-0.4-1.6-1.3-1.5
		c-0.9,0.1-1.9,2.5-2.2,3.3c-0.4,0.7-1.2,1-1.6,0.1c-0.4-0.8-1.1-2.6-1.5-2.6S145.1,138.9,144.7,139z"/>
	<path fill="#FFFFFF" d="M174.2,111.1c-1.3-0.8-2.2-3.2-3.5-3.2c-1.2,0-2.7,2.5-2.1,3.6c0.6,1,1.5-1.6,2.3-0.3c0.8,1.3,3,3.1,4.1,3
		C176.1,114.1,175.1,111.7,174.2,111.1z"/>
	<path fill="#FFFFFF" d="M178.3,114.2c-0.4-0.7-1.9,0.1-1.9,0.6c0,0.5,0.8,1.8,1.6,1.9C178.8,116.7,178.6,114.9,178.3,114.2z"/>
	<path fill="#FFFFFF" d="M172,114.5c-1.4-1-2.3-1.8-3.1-0.4c-0.8,1.4-0.4,1.8,0.7,2.8s1.6,1.3,2.8,0
		C173.6,115.7,172.6,115,172,114.5z"/>
	<path fill="#FFFFFF" d="M170.7,121.2c-1.1-1.4-1.4-3.3-3.1-3.3c-1.8-0.1-4.1,2.4-3.9,3.1c0.2,0.7,1.5,1.1,3,0.7
		c1.5-0.4,2.6,1.8,3.5,2.6c0.9,0.8,2.3,1.2,2.3,0C172.6,123,170.7,121.2,170.7,121.2z"/>
	<path fill="#FFFFFF" d="M175.5,117c-1.1-0.7-2.3,0.4-1,1.6c1.3,1.2,2.3,2.2,2.8,2.3C177.7,121.1,176.5,117.6,175.5,117z"/>
	<path fill="#FFFFFF" d="M179.8,117.8c-0.8,0.2-1.4,2.7-0.6,3.6c0.8,1,2-1,2.1-1.8C181.4,118.8,181.1,117.5,179.8,117.8z"/>
	<path fill="#FFFFFF" d="M176.1,122c-0.6-0.8-2.2-2.4-2.5-1.1c-0.4,1.3,0,2.7,0.9,2.7C175.4,123.5,176.9,123.1,176.1,122z"/>
	<path fill="#FFFFFF" d="M180.1,122.7c-1-0.3-1.4-0.4-1.5,1.1c-0.1,1.5,1.1,1.3,1.8,1.3C181.1,125.1,181.9,123.3,180.1,122.7z"/>
	<path fill="#FFFFFF" d="M184.5,118.8c-0.8-0.2-2.3,1.2-2.8,2.1c-0.5,0.9-0.4,2.2,1,2c1.3-0.2,2.6-1.6,2.6-2.5
		C185.3,119.5,185.4,119.1,184.5,118.8z"/>
	<path fill="#FFFFFF" d="M175.9,124.9c-0.8,0.1-2.2,0.6-2,1.7c0.2,1.1,0,1.6,1,1.6c1,0,2.6-1.2,2.6-2.1
		C177.5,125.2,176.9,124.7,175.9,124.9z"/>
	<path fill="#FFFFFF" d="M179.9,126.5c-0.4-0.2-1.5,1.3-0.7,2.4c0.9,1.1,1.4,1.3,2.1,1.3C182,130.3,180.9,127,179.9,126.5z"/>
	<path fill="#FFFFFF" d="M182.8,125.5c-0.2-0.1,0.6,3.7,0.9,4.7c0.3,1.1,1.9,3.9,2.9,3.7c1-0.2,1.6-1.4,1.4-2.3
		C187.9,130.9,183.5,125.8,182.8,125.5z"/>
	<path fill="#FFFFFF" d="M166.3,123.8c-0.6,0-1.1,1-0.5,2.2c0.5,1.2,5.6,2.9,6.3,3.7c0.7,0.8,0.3,2.6,1.4,2.6c1.1,0,1.7-2.1,1-2.6
		c-0.7-0.6-2.2-3.3-3.5-3.6c-1.3-0.3-3.3-0.5-3.3-1.2C167.7,124.2,167,123.8,166.3,123.8z"/>
	<path fill="#FFFFFF" d="M150.4,108.5c0-1.4-0.2-2.7-0.9-2.5c-0.7,0.3-1.4,3.6-2.2,3.5c-0.7-0.1-2.9-2.6-4-2.8
		c-1.2-0.2-1.2,0.5-0.5,1.3c0.7,0.8,3.6,3.4,4.5,4.1c1,0.7,1.3,0.2,1.9-0.8S150.4,109.4,150.4,108.5z"/>
	<path fill="#FFFFFF" d="M147.1,104.1c-0.4-1-0.9-2.1-1.4-1.9c-0.5,0.2-0.8,0.9-0.4,1.9s0.4,1.9,1.1,1.9
		C147,106.1,147.3,104.8,147.1,104.1z"/>
	<path fill="#FFFFFF" d="M139,95.2c-0.8-0.1-0.4-1.7-1.4-1.6c-0.9,0.1-3.1,1.4-3.1,2.2s1.5,2.4,3.5,2.5c2,0.1,4.3,1.1,5.4,1
		c1.1,0,0.5-2.5-0.6-3.1s-1.7-2.8-2.5-2.7C139.6,93.7,139.7,95.3,139,95.2z"/>
	<path fill="#FFFFFF" d="M134.5,97.9c-1.3-0.5-2.3-0.4-2.3,0.8c0,1.2,0.7,1.5,1.3,1.6c0.7,0,2.1-1,2.1-1.4
		C135.6,98.5,135.2,98.2,134.5,97.9z"/>
	<path fill="#FFFFFF" d="M131.7,100.3c-0.7-0.1-2,0.9-2.1,1.6c-0.1,0.7,0.4,1.3,1,1.3c0.6,0,1.6-0.7,1.8-1.2
		C132.7,101.5,132.4,100.4,131.7,100.3z"/>
	<path fill="#FFFFFF" d="M129.9,104.1c-0.7-0.2-1.4,1-1.2,1.6c0.2,0.5,0.4,1.3,0.9,1.3s1-0.8,1.1-1.3
		C130.8,105.3,130.4,104.3,129.9,104.1z"/>
	<path fill="#FFFFFF" d="M130.3,108.1c-0.9-0.2-2.6,1-2.6,1.7c0,0.7,0.6,1.1,1,1.1s1.9-1.2,2-1.9
		C130.8,108.4,131.1,108.3,130.3,108.1z"/>
	<path fill="#FFFFFF" d="M130.7,111.7c-1.1-0.3-2.2,1.2-2,1.8c0.2,0.6,2.3,0.5,2.7,0C131.8,113,131.5,112,130.7,111.7z"/>
	<path fill="#FFFFFF" d="M128.9,98.3c-0.6-0.9-1.4-1.4-2.1-0.9c-0.8,0.5,1.1,1.7,0.9,2.2c-0.2,0.5-0.3,1.4-1.5,0.9
		c-1.2-0.5-1.3-1.8-1.9-1.5c-0.7,0.3-0.7,1.5,0.6,2.1c1.3,0.6,2.6,1.2,3.2,0.7c0.7-0.5,1.3-1.4,1.3-2.2S129.1,98.6,128.9,98.3z"/>
	<path fill="#FFFFFF" d="M121.9,100c-0.5,0.3,0.6,2.3,1.6,2.8c1,0.6,2.3,2,2.3,2.9c0,0.9-0.2,2.5,0.2,2.4s1.2-2.2,0.9-3
		c-0.3-0.8-1.4-2.6-2-2.9c-0.6-0.3-1.9-1.1-2-1.7C122.8,99.9,122.3,99.8,121.9,100z"/>
	<path fill="#FFFFFF" d="M121.3,103.2c-0.4,0-1,1.7-0.4,2.2c0.6,0.5,3,2.6,2.9,3.1c-0.1,0.5-0.2,3.4,0.3,3.4c0.5,0,1-2,0.8-3.3
		c-0.2-1.4-0.8-2.9-1.5-3.7C122.7,104.1,121.9,103.2,121.3,103.2z"/>
	<path fill="#FFFFFF" d="M126.3,110.9c-0.4,0-0.4,2.9-1,3c-0.6,0.1-1.8,1-1.1,1.6c0.7,0.6,1.7,1.6,2.4,0.7c0.7-0.9,1.1-2.9,1-3.5
		C127.6,112.2,126.8,110.9,126.3,110.9z"/>
	<path fill="#FFFFFF" d="M142.8,104.5c0,0,1.3-1.4,0.4-2.7c-0.9-1.4-3.3-2.4-4.6-2.2c-1.3,0.2-4.6,2-5.3,3.7c-0.8,1.7-1,4.2-0.7,6.1
		c0.3,1.9,1.3,5.1,2.7,4.9c1.3-0.1,5.9-3.5,5.6-4.6c-0.2-1.1-1.1-1.7-1.9-2.8c-0.9-1-0.9-3.7,0.1-3.6c0.9,0.1,1,1.8,2.7,1.8
		C142.2,105,142.8,104.5,142.8,104.5z"/>
	<path fill="#FFFFFF" d="M142.3,110.9c-0.6,0-4.8,3.8-5.3,4.5c-0.5,0.8,0.1,2.2,2.4,0c2.3-2.2,3.4-2.9,3.6-3.6
		C143.2,111.2,143,110.9,142.3,110.9z"/>
	<path fill="#FFFFFF" d="M134.5,118.2c-0.2-1.8-1-3.5-2.1-3.4c-1.1,0.1-5.4,4.7-6.6,5.2c-2.4,1-5.2,4-3,4.4c2.1,0.5,5.7,0.7,7.2-0.2
		C131.4,123.3,134.8,121.1,134.5,118.2z"/>
	<path fill="#FFFFFF" d="M136.3,120.6c0,0,0.9,4.7-0.3,5.9c-1.2,1.2-6,5.6-7.3,5.8c-1.3,0.2-11.9,1.1-14.8,0.2
		c-2.9-0.9-5.7-3.4-4.9-3.9c0.7-0.5,2.2,1.5,4.8,0.5c2.7-0.9,4.3-4.6,5.9-4.3c1.6,0.3,3.7,2.9,5.5,3.1c1.9,0.2,8.1-3.7,9-4.8
		C135.2,122,136.3,120.6,136.3,120.6z"/>
	<path fill="#FFFFFF" d="M144.9,114.1c-0.3-0.3-0.8-0.4-1.2-0.2c-1.7,1-5.4,3.6-5.5,4.7c-0.1,1.3,1.1,7.2-0.3,8.9
		c-1.4,1.7-8.1,6.4-9.3,7c-1.2,0.6-12.5,0.4-12.8,0.7c-0.3,0.3,6.5,7,9.3,6.8c-2.1,2.5-7.2,7.7-7.2,8.3c0.1,0.6,2.9,1.7,6.1-0.2
		c3.3-1.8,15.9-9.2,18.1-11.6c2.2-2.4,8.3-7,8.6-10.4c0.3-3.3-1.4-8.2-2.7-9.8C147.4,117.1,145.7,115.1,144.9,114.1z"/>
	<path fill="#FFFFFF" d="M141.2,142.3c-0.3-1-8.2,3.9-8.3,4.9c-0.2,1,7.4,8.8,8.3,8.2c0.9-0.6-5.9-6.5-5.2-7.3
		C136.7,147.2,141.7,144,141.2,142.3z"/>
	<path fill="#FFFFFF" d="M144.5,149.9c-1.6-2.3-2.3-3.5-3.5-2.5c-1.3,1.1-0.6,1.8,0.7,3.5c1.3,1.7,1.8,2.3,3.1,1.7
		C146.1,152,145.1,150.8,144.5,149.9z"/>
	<path fill="#FFFFFF" d="M148,147.5c-0.2,0.3-0.7,0.3-0.9-0.1c-1-1.5-3.1-4.7-3.6-4.7c-0.6,0.1-1.8,0.5-1,1.1
		c0.8,0.6,4.5,4.7,4.5,6.5c0,1.8-0.6,2.7-1.4,3.9c-0.6,1-3.5,4.5-4.5,4.7c-1,0.2-4-4.5-4.8-5.1c-0.8-0.6-4.5,0.5-4.8-0.2
		c-0.3-0.7,0.6-3.5-0.2-3.9c-0.8-0.4-4.6-0.2-4.6,0.7c0,0.9,3.8,0.6,3.7,1.4c-0.2,0.7,0.5,4.4-0.9,5.8s-2.1,3.7-2.2,5.2
		c-0.1,1.5-0.2,8.1-0.6,8.4c-0.4,0.2-4.8-3.4-5.7-4.2c-0.8-0.7-3.9-3.3-4.1-2c-0.2,1.3,1.8,3.2,2.8,3.9c1,0.7,2.1,4,3.8,4.1
		c1.6,0.1,3.3-0.1,4,1.4c0.7,1.5,2.7,3.8,2.3,4.5c-0.4,0.7-2.7-2.6-3.4-2.6c-0.7,0-0.2,2.2-0.7,2.5c-0.5,0.2-3.7,1-4.6,2.1
		c-0.9,1.1-1,1.9-1.8,1.8c-0.7-0.1,0.4-4.3,0.4-4.3c1.3-0.7,3.8-2.1,3.3-3c-0.5-0.9-4.7,1.8-4.7,1.8c-0.2-2.3,1.7-3.2,1.8-3.8
		c0.1-0.5-0.5-2.6-1.3-2.3c-0.9,0.3-3.8,3.8-3.8,5c0,1.3,1.5,6.2,2.5,7.2c1.1,1,2,4.5,2.8,4.4c0.9-0.1,3.6-6,5.6-6
		c2,0,5,0.2,5.3,1.6c-1.7,0.5-4.4,2.2-5.3,2.9c0,0-0.5-1.8-0.3-2.3c-1.5,0.9-2.9,3.8-3,4.7c-0.1,0.9,2.2,4,2.2,5.1
		c0,1.1-0.4,2.7,0.4,2.7c0.7,0,0.6-4.1,0.5-5c0-0.9-0.1-3,0.9-4.2c1-1.2,2.2-1.7,3.5-1.6c1.3,0.1,2.5,1.2,2.6,2.3
		c0.1,1.1,0,8.5,0,8.5s0.6,2.7-0.1,3c-0.7,0.3-3,2.6-3.3,3.2c-0.3,0.7-0.1,1.9,1.3,1.9c1.3-0.1,2-2,2-3c0-1,2.1-2.4,2-4.5
		c0-2.1,0.1-11,0.1-11s-1.6-3.3-2.8-5.8c-0.3-2.3-0.4-3.2-1-4.9c-0.7-1.7-2-3.3-2-6.9c0-3.6,0.9-8.1,2.1-9.5c1.2-1.4,2.6-4.1,4-3.1
		c1.3,1,4.2,4,4.2,5.2c-0.1,1.2-3.3,2.2-3.3,3.1c-0.1,0.9,0.1,2.6,1.4,2.9c1.3,0.2,2.2-4.1,2.8-4.1c0.7,0,1,3.4,2.4,3.4
		s3.1-1.3,2.8-2.4s-2.6-0.6-3.2-1.1c-0.6-0.5,0.4-3.3,1.4-4.1c0.9-0.8,2.5-4.4,3.6-3.6c1,0.8,2.1,2.5,2.8,2.1c0.6-0.4-0.2-2.5-1-3.5
		c-0.2-2.1-0.5-3.6,0.4-4.9c0.9-1.3,2.1-3.2,0.9-3C149.3,146.1,148.5,147,148,147.5z"/>
	<path fill="#FFFFFF" d="M129,192c-0.9,1.6-2.6,1.3-1.8-0.6c0.8-1.9,1.4-3.3,2.7-3c1.3,0.2,1.7,1.3,1.6,3c-0.1,1.7-0.2,4.1-1.3,6
		c-1,2-0.3,4.1-1.6,4.2c-1.3,0.1-2-4-1-4.9c0.9-0.9,2.3-2.3,2.3-3.8C130,191.5,129,192,129,192z"/>
	<path fill="#FFFFFF" d="M136.4,187.3c-0.9-0.2-1.3,3-0.5,4.7c0.9,1.6,0,4.1,1.3,3.7c1.3-0.4,1.6-3.8,0.9-5.3
		C137.4,188.8,138.1,187.7,136.4,187.3z"/>
	<path fill="#FFFFFF" d="M142.7,194.2c-0.1-1.6-0.7-3.3-1.9-2.4c-1.2,0.9-1.5,3.4-1.2,3.9c0.3,0.4,3.4,3.4,4.1,5.3
		c0.6,1.9-0.2,4.4,1.3,3.9c1.5-0.5,1.9-1.5,1.4-3.3C145.9,199.8,142.9,196.9,142.7,194.2z"/>
	<path fill="#FFFFFF" d="M141.5,201.2c-0.9-1.7-3.2-5-3.8-4c-0.5,1-0.1,3.9,1.3,4.3c1.4,0.4,2.3,1.4,2.4,2c0.1,0.6-2,1.4-0.7,2.1
		c1.3,0.7,2.4,1.1,2.4-0.3C143.3,204,141.5,201.2,141.5,201.2z"/>
	<path fill="#FFFFFF" d="M136.1,197.1c-0.8,0-1.1,2.1-1.6,3.2c-0.5,1.2-2.3,2.6-1.8,3c0.5,0.3,0,2.3,2.3,2.2c2.3-0.2,4-0.5,3.9-1.5
		c-0.1-0.9-1.8-1.8-2-3.8C136.8,198.3,137.1,197,136.1,197.1z"/>
	<g>
		<path fill="#FFFFFF" d="M176.7,129.5c-0.9-1.2-0.8,2.5-1.5,4.1c-0.7,1.6-2.9,3.6-3.5,3.6c-0.6,0-0.2-5.2-0.7-5.7
			c-0.5-0.5-0.6,4.3-1.4,6.3c-0.8,2-1.7,5.1-2.3,6.2c-0.6,1.1-3.7-4.4-4.3-3.8c-0.6,0.6,3.5,5,3.8,6.1c0.3,1.1,0.1,4.9,0,8.5
			c-0.1,3.6-5.9,6.6-5.9,6.6s-0.3-3-0.4-4.5c0,0,2.9-0.4,3.9-2.5c1-2,1-5.7-0.4-8.4c-1.3-2.6-4.2-4.8-5.9-5.6
			c-1.7-0.8-4.8,0.1-5.8,2.2c-1,2.1,1,4.1,1.8,3.7c0,0-0.8-1.7-0.5-2.6c0.3-0.9,1.5-1.6,2.8-0.9c1.3,0.7,1.3,3.9,1.3,3.9
			s-1.1,0.8-2.5,2.1c-1.4,1.3-1.9,4.4-1.3,5.6c1.1,2.3,3.1,2.1,5.4,2.8c0.4,1.6-0.5,4.1-1.3,6.5c0,0-0.8-2.3-1.2-3.4
			c-0.4-1-2.1-3-3.1-3.5c-1-0.5-2.1-3.1-3-5.3c-0.7,0.9-0.1,3.4,0.5,4.5c0.5,1.1,1.6,2.5,0.5,3.8c-1.1,1.3,0.2,3.8,1.4,3.7
			c1.2-0.1,0.5-3.2,1.3-3.5c0.8-0.3,1.6,2,1.8,3.5c0.2,1.5-0.1,3.2-1.7,4.6c-1.6,1.4-2.4,7.1-2.4,9.7c0,2.5,2.7,4.9,3.7,6.8
			c0.9,1.9-0.1,3.5-1.7,6c-1.6,2.5-2.3,9-2.7,10.3c-0.4,1.3,0.8,4.7,1.7,4.8c0.9,0.1,2.5-0.5,2.3-1.9c-0.2-1.4-0.7-3.4-1-5.4
			c-0.3-2,0.4-4.6,0.5-5.9c0.2-1.3,1.4-4.1,2.3-5.1c0.9-1,0.9,0.6,1.4,1.6c-2.5,1.2-3.3,6.3-3.3,7.4c0,1,0.7,4.7,1.7,6.9
			c0.1,0.3,0.2,0.6,0.3,0.9c0.2,1,1.4,1.5,3.6,1.8c2.6,0.3,2.5-2.2,4.4-2.2c-0.2,1,0.1,1.5,2.3,1.9c1.7,0.3,4.2-0.5,4.2-1.9
			c0-1.4-3-3.2-5.4-6.1c-2.3-2.9-5-3.8-6.4-3.8c-1.4,0-0.9,2-1.5,6.3c-1.3-1-1.3-5.2-1-6.6s1.9-3.3,3.8-3.3c1.9,0,5.5,4.8,7.6,6.6
			c-0.2-1.3-4.7-7.1-7.7-9c-3-1.9-4.2-4.1-5.1-5.3s-0.9-4.2,0-5.7c0.9-1.5,2.6-3,4.8-3.4c2.2-0.3,2.9,1.5,5.5,3
			c-0.1-1.6-2.4-3.2-2.5-3.8c-0.1-0.6,2.6-1.6,3.8,0c0,0,0.5-2.9-1.8-3.3c-2.4-0.4-2.4,2.1-3.5,2.5s-1.7-0.9-1.4-2.4
			c0.2-1.5,6.5-3,7.2-3.8c0.7-0.8,0.9-3.4,0.6-5.6c-1,2.7-6.1,5.5-7.4,6.3c-1.3,0.8-2.6,3-2.9,5.9c0,0.2-0.1,0.4-0.3,0.5
			c-0.9,0.5-1.6,1.3-2.6,1.6c0,0-0.2-1.6-0.3-3c-0.1-1.5,2-3.4,3.5-5.1c1.5-1.7,5.7-4.1,7.1-5.5c2.2-2.2,2.9-4,3.3-6
			c0.2-1.2,0.1-7.5,0-9.1c-0.1-1.6,1.9-3.6,2.9-4.9c1-1.3,4.5-4.2,5.2-5.5C177.3,133.6,177.6,130.7,176.7,129.5z M162.4,197.5
			c1.9,1.3,2.8,3.1,2.8,3.1c0.2,1.4-0.7,1.8-2.8,1.8s-2.7-2.9-2.8-4.1C159.5,197,160.5,196.2,162.4,197.5z"/>
	</g>
	<path fill="#FFFFFF" d="M166.5,189.8c0,0-0.4-10.7-3.3-12.1c-2.9-1.3-5.5-1.2-5.9,1c-0.4,2.2,0.5,5.9,3.1,6.3
		S166.5,189.8,166.5,189.8z"/>
	<path fill="#FFFFFF" d="M173.4,146.1c-0.3-1.6,1.4-4.4,1.4-5.7c-2.4,1.7-3.4,3.4-3.2,4.7c0.1,1.3,2.1,4.7,3,4.7
		c0.9,0,1.5-1.1,0.6-1.7C174.2,147.4,173.6,147.5,173.4,146.1z"/>
	<path fill="#FFFFFF" d="M179.2,131.7c0,0,0.7,3.4,0,4.5c-0.7,1.1-2.8,3.3-2.9,4.9s1,3.8,1.6,4.8c0.7,1.2,2.2,4.2,3.1,3.5
		c0.8-0.6,4.2-4.4,5.6-4.4c1.3,0.1,5.2,5.1,5.9,5.2c0.4-3.6,0.9-5.7-0.8-7.2c-1.7-1.5-5.3-0.2-5.3-0.2c0.5-3.5,1.8-3.6,1.2-5.1
		c-0.6-1.6-2.9-2.3-2.9-2.3c-0.2,2.3-0.3,4.9-1.1,6.6c-0.5,1.1-2.3,2.8-3.3,2c-1-0.8,0.5-3.5,1.5-4.7c1-1.2,1.2-4.2,0.4-5.4
		C181.2,132.8,179.2,131.7,179.2,131.7z"/>
	<path fill="#FFFFFF" d="M175.5,154.7c0,0,2-0.5,2.8-2.3c0.8-1.8-0.5-2.1,0-3.5C176.4,149.7,174.8,151.1,175.5,154.7z"/>
	<path fill="#FFFFFF" d="M179.3,155.5c0,0,1.9-3,4.2-4.9s2.9-3.3,3.9-2.9s5.7,5,5.7,6c0,1-1.2,0.8-1.7,0.3c-0.5-0.5-1.5-3-2.2-2.1
		c-0.7,0.9-0.8,2.1-3,2.1c-2.3,0-1.4,1.5-2.9,2.1C181.9,156.6,179.4,157.4,179.3,155.5z"/>
	<path fill="#FFFFFF" d="M177.9,156.7c-0.7-0.1-0.2,1.2-0.1,1.6c0.6,1.7,2.1,4.6,4,5c2.5,0.5,4.4,1.2,4.4,1.2
		c-0.9-1.7-2.5-3.1-2.2-4.8c0.3-1.7-0.4-2.3-0.4-2.3c-0.4,1.9-1,2.4-2.3,2.4C180.5,159.8,179.1,156.9,177.9,156.7z"/>
	<path fill="#FFFFFF" d="M169.6,148.1c0,0,3.6,6.6,4.3,9.4c0.6,2.8,3.6,8.4,6.3,8.9s3.2,0.6,3.2,2c0,1.4-1.1,5.3-0.8,6.3
		c0.3,1.1,3.2,2.5,3.8,1.3c-1.6-1.3-2.8-4.6-0.9-6.3c1.9-1.8,3.6-1.5,6.1-1.4c2.5,0.2,5.5,0.8,6.6,4.3c1.1,3.5,1.2,5.3,0.7,7.4
		c-0.5,2.1-3.6,6.7-4,7.8c-0.4,1.1-1.3,3.9-1,4.9c1.5-2.9,2.6-6,4-7.9c1.4-1.8,3.3-5.9,3-8.7c-0.3-2.8-0.5-6.7-3-8.7
		c-2.5-2-6.4-3.1-7.7-3.9c-1.3-0.8-3-3.5-2.2-5.3c1-2.3,3.4-1.2,4.2-0.7c0.8,0.5,1.4,1.6,1.2,2.6c-0.3,1.2-2,0.1-2.2-0.4
		c0.2,2,0.8,3.2,2.2,2.9c1.3-0.2,2-2.7,1.8-4.2c-0.3-2-2.1-3.1-3.3-3.3c-1.2-0.2-3.3-0.2-4.4,0.9c-1.1,1.2-1.2,3.8-1.1,4.6
		c0.4,2.1,0.9,2.9,2.2,3.6c1.3,0.7,3.1,1.9,3.1,1.9c-2.3,0-6,0.3-7,0c-1-0.3-3-0.8-5.2-2.9s-3.4-4.2-4-6.1c-0.6-1.9-2.1-6.1-2.9-7.1
		C171.5,149.3,170.8,148.4,169.6,148.1z"/>
	<path fill="#FFFFFF" d="M181.4,168.1c0,0-1.9-0.4-2,0.3c-0.2,0.7,0.4,2,1.3,2C181.4,170.4,182.7,168.1,181.4,168.1z"/>
	<path fill="#FFFFFF" d="M189.7,175.4c0,0-1.8-0.5-1.9,0.6c-0.1,1.1-0.9,2.2,1,2.2c1.9,0,3.5,0.4,3.2-0.9
		C191.7,175.9,190.3,175.6,189.7,175.4z"/>
	<path fill="#FFFFFF" d="M189.1,172.6c-0.1-1.5-0.7-2.3-1.4-2.2c-0.7,0.1-1.5,0-1.4,1.1c0,1.2,1.6,2.6,2.1,2.7
		C188.7,174.2,189.2,173.3,189.1,172.6z"/>
	<path fill="#FFFFFF" d="M192.8,170.4c-0.7,0.1-1.7,1.1-1.7,1.9c0,0.8-0.3,1.5,0,2.1c0.3,0.6,2.2,0.1,2.7-0.4c0.5-0.5,1.4-2.1,0.6-3
		C193.7,170,192.8,170.4,192.8,170.4z"/>
	<path fill="#FFFFFF" d="M193.2,176.7c-0.1-0.5,1.2-1.4,2.3-1.5c1.1-0.1,2.1,1.2,2.1,1.8s-1,2.5-1.9,2
		C194.8,178.5,193.4,177.3,193.2,176.7z"/>
	<path fill="#FFFFFF" d="M188.5,180c-1.2-1.1-2.5,1.1-2.5,2.4c0,1.3,0.4,2.6,1.3,2.6c0.9,0,1.7-0.7,1.8-1.8
		C189.2,182.2,189,180.5,188.5,180z"/>
	<path fill="#FFFFFF" d="M193.2,179.4c-0.7,0.3,0.2,1,0,1.8c-0.2,0.9-0.2,2.4,0.7,2.4s2-0.5,2-1.7S194.2,179,193.2,179.4z"/>
	<path fill="#FFFFFF" d="M191,181.3c-0.8,0-1,2.1-0.7,3.8c0.3,1.7,0.4,3.7,1.3,3.7c0.9,0,1.7-1.2,1.4-2.8
		C192.7,184.5,191.7,181.3,191,181.3z"/>
	<path fill="#FFFFFF" d="M203.3,178.4c-1,0.1-2.5,4.2-2.5,5.1c0,0.9,0.4,4.5,1.1,4.9c0.7,0.4,1.9-1.8,1.9-2.9s1.1-3.4,1.1-4.2
		C204.8,180.5,204.1,178.3,203.3,178.4z"/>
	<path fill="#FFFFFF" d="M206.4,182.3c-0.6-0.3-1.2,6-1.2,7.7c0,1.7,0.3,3.9,0.3,3.9c-1.2-1.1-3.7-2.8-4.3-4.3
		c-0.6-1.4-2.9-2.5-3.1-1.6c-0.2,0.9,0.5,3.2,0.2,3.6s-2.7,1.1-2.6,2.2c0,1.2,3.8,2.4,3.1,3.2c-0.6,0.8-1.2,3.2,0,3.3
		c1.2,0.1,5-4.2,4.6-5.5c2.5,1.3,4.6,3.2,4.6,3.6c-3.4,0.4-6.6,2.7-6.4,3.6c0.2,0.9,0.7,2.5,4.5,2.8c3.8,0.4,7.7,0,7.8-1.1
		c0-1.1-2.7-4.9-3.2-5.7c-0.7-1.2-1.5-4.5-1.3-5.5c0.2-1,2.7-2.3,4.2-1.2c0.9-1.1-0.3-3.7-1.6-3.8c-1.2,0-3.1,0.7-3.6,1.7
		c-0.5,1-0.1,6.3-0.1,6.3c-1.1-0.9-1.8-1.6-1.8-2.8c0-1.2,0.9-3.8,1.1-6.1C207.7,184.4,207.3,182.7,206.4,182.3z"/>
	<path fill="#FFFFFF" d="M215.7,192.7c-1.8-0.7-4.2-0.6-4.2,0.9s1.3,5.4,3,5.2c1.7-0.2,2.9-1.9,2.9-3.4
		C217.5,193.9,217,193.2,215.7,192.7z"/>
	<path fill="#FFFFFF" d="M220.2,195.6c-0.7-0.7-4,4.2-4.1,5.2s0.3,3.5,2,4.1c1.7,0.5,4.6-0.1,4.2-1.4c-0.4-1.4-3.1-2.9-3.1-2.9
		C220,199.2,221.5,196.9,220.2,195.6z"/>
	<path fill="#FFFFFF" d="M123.9,151.1c-0.8-0.9-5.4,0.9-3.3,1.7c2.1,0.7,3.9,3.3,6.2,3.4c2.3,0.1,2.8-0.9,2-1.5
		C127.9,154,124.7,152,123.9,151.1z"/>
	<path fill="#FFFFFF" d="M125.7,158.6c-1.1-0.5-2.7,0.5-2.9,1.8c-0.2,1.3-3.1,2.4-2.7,3.3c0.4,0.9,4.2,5.9,5.1,4.7
		c0.9-1.3,1.3-2.5,0.5-3.2c-0.7-0.7-2.7-2.7-1.9-3.4c0.8-0.8,2.7-0.7,2.7-1.6C126.5,159.1,126.7,159,125.7,158.6z"/>
	<path fill="#FFFFFF" d="M121,142.1c-0.8-0.6-5.1,4.4-6,5.9c-1.3,2.2-2,5.5-0.8,6.6c1.2,1.1,3.6,2.2,4.9,1.5c1.3-0.7-0.8-1-1.7-2
		c-0.9-1-2.6-2.8-1.2-4.7c1.3-1.9,3.9-3.6,4.5-4.9C121.2,143.2,122,142.9,121,142.1z"/>
	<path fill="#FFFFFF" d="M112,151.8c-0.6-0.4-1.3,3.2-0.7,4.6c0.6,1.4,2,6.1,4.3,6.1c2.3,0,4.4,0.1,5.2-1.9c0.8-2.1,1.5-3,1-3.8
		c-0.5-0.7-1.3,1.8-2.1,2.2c-0.7,0.5-3.7,1.3-4.7,0c-1-1.3-2.5-2.1-2.5-4.4S112.9,152.4,112,151.8z"/>
	<path fill="#FFFFFF" d="M109.5,156.2c-0.5-0.2-0.6,2.4,0,3.4c0.6,1,2.7,4.7,1.9,5c-0.8,0.3-1.6-3.2-2.4-3.9s-1.7-2-1.7-0.8
		c0,1.2,1.8,3.3,2.1,4.5c0.3,1.2,0.7,4.6,0.7,5.9c0.1,1.2,2,6.2,2.8,6.2c0.8,0,1.3-1.3,0.6-1.9c-0.6-0.6-2.5-5.5-1.8-6.2
		s1.5-0.8,2.5-0.4c0.9,0.5,1.9,2.8,3,2.7c1.1-0.1,1.1-1.6,0.2-2.1c-0.9-0.4-2.9-2.6-3.5-3.5c-1.1-1.5-2.4-3.5-3-5.2
		C110.4,157.9,110.6,156.7,109.5,156.2z"/>
	<path fill="#FFFFFF" d="M115.3,171.6c-0.2-0.4-1.2-2.6-1.7-2.2c-0.5,0.4-0.1,1.8,0.4,2.8C114.4,173.1,115.8,172.8,115.3,171.6z"/>
	<path fill="#FFFFFF" d="M105.6,161.6c-0.8,0-0.7,3.6,0,4.7s1.9,3.6,2.4,3.1c0.5-0.4,0.5-3.2,0-4.2
		C107.5,164.1,106.2,161.6,105.6,161.6z"/>
	<path fill="#FFFFFF" d="M103.5,166.2c-1.3-0.4-0.2,4.9,0.6,5.8c0.8,0.8,0.7,3.3,1.6,3.3c0.9,0,1.4-2.3,1.1-3.6
		C106.4,170.4,104.5,166.6,103.5,166.2z"/>
	<path fill="#FFFFFF" d="M98.4,170.8c-0.9,1-5.4,1.5-5.5,2.5c-0.1,0.9,2.9,3,3.6,3.1c0.7,0.1,1.9-3,3-3.3c1.2-0.4,2.9-1.1,2.3-2.2
		C101.4,169.6,99.7,169.3,98.4,170.8z"/>
	<path fill="#FFFFFF" d="M97.5,183.7c0,0,0.6-2.2,0.7-4.5c0.1-2.3,2.1-4.8,3.4-4.8c1.3,0,3.5,0.6,3.3,2.4c-0.2,1.8-1.9,5.6-2.4,6.5
		c-0.5,0.9-2.3,4-3.1,3.9c-0.8-0.1-0.8-2,0.3-3.1c1.1-1.1,2.8-3.5,2.8-4.6s-0.2-3.5-1.2-2.5c-1.1,0.9-1.5,3-1.7,4.2
		c-0.2,1.1-0.7,3.5-1.5,3.9C97.1,185.6,96.7,184.3,97.5,183.7z"/>
	<path fill="#FFFFFF" d="M91.9,205.2c-1.2,0-1.6-0.2-1.3-1.6c-0.8-0.8-1.5,0-1.5,0c0.4,0.6,0.8,1.5-0.6,1.5s-4.6,0.3-3.6-0.8
		c0.9-1.1-0.4-4.9-0.7-6.7c-0.3-2,0.1-4.2,1.1-4.9c1.8-1.4,0.2,5.8,0.8,7.2c0.3,0.8,1.9,1.6,3,1.5c1.1-0.1,2.8-0.4,2.8-1.3
		c0-0.9-1.9-3.5-2.7-3.8c-0.8-0.3-2.4-3.3-2.5-4.3c-0.1-1.1-0.9-4.6,0-5.5c0.9-0.9,3.8-2.8,4.2-3.6c0.4-0.9,1.4-2.3,0.9-3
		c-0.5-0.8-1.5,1.1-1.5,1.1c-1.4,0.6-1.2-0.7-1.2-0.7c-0.3-1.1,0.5-4.4,2.4-4.5c1.9-0.1,3.8,0.5,4.3,1.5c0.5,1.1,0.8,4.6,0.8,5.5
		c-0.1,0.9-1.8,2.9-2.5,2.5s1.1-2.3,0.9-3.2c-0.2-0.9-0.8-2.6-1.3-1.5c-0.6,1.1-1.7,4.3-2.8,5.2c-1.1,0.9-2.7,1.9-2.8,3
		c-0.1,1.1-0.3,4,1.3,5.4c1.6,1.3,5.7,3.2,6.3,4.2c0.6,0.9,0.9,3.6,2,5.5c0.7,1.2-0.1,1.8-1.5,1.8"/>
	<path fill="#FFFFFF" d="M87.7,197.5c-1.1-0.2-1.4,1.4-0.8,1.9c0.6,0.6,1.5,1.4,2.3,1.1S88.6,197.7,87.7,197.5z"/>
	<path fill="#FFFFFF" d="M89.6,190.9c-0.7-1.2,1.6-4.1,2.3-3.9c0.8,0.2,1.3,1.7,0.5,2.7S90,191.7,89.6,190.9z"/>
	<path fill="#FFFFFF" d="M94.6,186.2c-0.6-0.1-1.6-0.2-1,0.8c0.6,1,2.9,1.6,3.4,3.4c0.4,1.1-0.4,2.4-0.7,2.4c-0.3,0-1.1-1.7-2.1-1.8
		c-1-0.1-2.5,0.7-2.6,1.5c0,0.8,2,1.9,3.1,2.7c1.1,0.8,3.4,3.4,3.6,3.9c0.2,0.5,0.4,4.1,0.3,4.5c-0.2,0.5-0.2,1.5,2,1.4
		c2.2-0.1,2.7-0.2,1.9-1.4c-0.6-1-0.9-4.5-2.1-6.4c-0.5-0.7-3.2-2.3-2.9-3c0.3-0.7,2.2-3.7,1.7-4.8
		C98.8,188.4,95.9,186.4,94.6,186.2z"/>
	<path fill="#FFFFFF" d="M88.6,173.8c-1.9,0,2.3-4.9,3.8-5.3c2.8-1.3,2.6-1.3,4-3.7c0.9-2,1.5-5.5,4.1-5.2c2.7,0.3,0,1.4-0.5,2
		c-0.5,0.6-0.9,2.6-0.1,2.5s3.4-2.1,3.4-3.8c0-1.6,1-4.6,1.9-5.9c0.8-1.3,4.9-5.5,5.5-6.4c0.6-0.9,4.8-7.7,6.3-7.8
		c1.4-0.1,1.4,0.5,0.3,1.6c-1.1,1-4.4,5.6-6.1,7.6c-1.7,2-4.9,6.7-5.2,8.2c-0.3,1.5-1.6,5.2-2.6,6.4c-1,1.3-2.9,4.1-4.5,4.7
		c-1.6,0.6-4.2,0.8-5.9,2.2C91.3,172.2,90.2,173.8,88.6,173.8z"/>
	<path fill="#FFFFFF" d="M91,159.7c0.2-0.7-0.1-1.5-0.7-1.8c-1.4-0.7-3.5-2.2-3.6-4.4c-0.1-3.2,0.4-3.3,2-1c1.6,2.3,2.6,3.4,5.2,3.3
		c2.6-0.1,7.7-4.5,9.1-5.7c1.5-1.2,6.3-6.8,7.3-7.9c0.9-1.2,4.1-6.5,4.8-4.9c0.7,1.6-9.9,14.2-11.3,15.4c-1.3,1.2-6.1,4.8-8,6.9
		c-1.9,2-2.6,6.6-3.4,6.7c-0.9,0.2-2.9-3-2.1-4.7C90.6,160.9,90.8,160.3,91,159.7z"/>
	<path fill="#FFFFFF" d="M90.5,151.1c-0.2-1.1,2.4,0.4,4.6-0.6c2.2-1,6.6-5.1,8.3-7.2c1.6-2.1,7.2-8.7,8.2-8.6
		c1,0.1,0.6,1.6-0.6,3.5c-1.2,1.9-6.5,7.6-8.6,9.8c-2.1,2.2-4.9,5.6-6.2,5.5C95,153.4,90.8,153,90.5,151.1z"/>
	<path fill="#FFFFFF" d="M112.7,99.3c0,0-1.4-2-3-0.3c-1.6,1.7-2.5,4.1-1.6,7.3c0.8,3.2,4.8,9.2,7,9.4c2.1,0.2,5.7-0.5,6.4,0.6
		c0.7,1.2,1.9,3.9,2.3,3.2c0.4-0.7-1.6-3.8-1.8-4.4c-0.2-0.6,0.4-4.4-0.1-5.6c-0.5-1.2-4.5-4.3-6-4.5c-1.5-0.2-5.3-1-5.4-2.5
		C110.4,101.1,112.6,101.1,112.7,99.3z"/>
	<path fill="#FFFFFF" d="M117,96.4c-0.7-0.8-1.9,2-1.9,2.9c-0.1,0.9-1.3,1.2-1.1,2.1c0.2,0.8,2.2,1.3,2.6,0.6c0.4-0.7,0-3,0.7-3.7
		C118,97.6,117.4,96.9,117,96.4z"/>
	<path fill="#FFFFFF" d="M119.7,97.1c-0.5-0.3-0.8,1.8-0.8,2.8c0,1-1.6,2-0.9,2.6c0.7,0.6,2.4,0.5,2.6-0.6
		C120.9,100.9,120.6,97.7,119.7,97.1z"/>
	<path fill="#FFFFFF" d="M117.9,91.5c-0.8-0.4-1.1-2.1-2.4-2.3c-0.8-0.2,0.7,2.1,0.7,2.8s-1.5,1.5-1.9,1c-0.4-0.5-0.3-2.9-1.8-3.1
		c-1.1-0.2,0.5,2.4,0.4,2.9c-0.2,0.5-1.6,1.3-1.9,0.7c-0.4-0.6-0.6-2.6-2.1-2.6c-1.2,0,0.8,2.3,0.6,2.8c-0.2,0.5-0.9,1.1-1.5,0.5
		c-0.6-0.6-1-2.1-2.2-1.8c-1.2,0.4-0.9,1.4-0.4,2c0.5,0.6,1.2,2,0.5,2.6s-0.5,2.2-1.3,2.1c-0.8,0-0.8-2.2-2.2-3.4
		c-0.9-0.8-3.9,0.1-3.5,1.8c0.4,1.7,1.5,2,2.6,1.9c1.1-0.1-1-0.5-0.4-1.6c0.6-1.2,1.9,0.2,2.1,0.7c0.1,0.5,0.4,3,0.2,4.6
		c-0.1,1.6,0.4,1.2,1.2,0.9s0.4-2,1.2-3.3c0.8-1.3,1.2-3.2,3.1-4.1c1.9-1,3.5,0.6,5.4-0.7c1.9-1.3,1.9-2,3.6-2.4s2.8-0.4,1.9-1.1
		C118.8,91.8,118.7,91.9,117.9,91.5z"/>
	<path fill="#FFFFFF" d="M97.8,99.3c-0.4,0.1,2.2,3.8,2.4,4.7c0.2,1,0,2.5,0.9,2c0.9-0.4,0.5-3.2,0.2-3.8S99,98.9,97.8,99.3z"/>
	<path fill="#FFFFFF" d="M99.4,110c0,0,0-5.2-1.1-6.4c-1-1.3-2.9-3.7-3.3-3.6c-0.4,0.2,0.4,3.4,0.4,3.8c-1.3-0.9-3.1-1.1-2.9-0.6
		c0.2,0.4,1.5,2.3,1.5,2.3c-1.3-0.4-3.1-1.3-3.2-0.5c-0.1,0.8,3.2,3.9,4.3,4.4C96.2,110,99.4,110,99.4,110z"/>
	<path fill="#FFFFFF" d="M90.2,113.8c0,0,4.1-0.9,3.7-2.1c-0.4-1.1-3.6-4.8-4.5-4.8c-0.9,0-0.1,1.1,0,1.7c0.1,0.5-1.8,0.6-1.8,1.7
		C87.6,111.5,89.1,113.6,90.2,113.8z"/>
	<path fill="#FFFFFF" d="M121.8,119.8c-0.2-1.6-2.5-2.3-3.1-1.8c-0.6,0.5,0,2.2,1,2.3C120.8,120.4,122.1,121.8,121.8,119.8z"/>
	<path fill="#FFFFFF" d="M119,122.7c0,0-2.9-4.9-4.3-5.6c-1.4-0.6-6.3-4.6-6.6-5.9c-0.3-1.3-1.3-0.1-0.7,1.6c-1.7-0.1-4,0.4-4.1-0.9
		c-0.1-1.3-0.6-4.3,0.5-4.6c1.1-0.3,1.9,0,1.9,0.8c-0.1,0.8-1.4,0.8-1.4,0.8c0.9,1.7,2.6,1.2,2.7,0.6c0.1-0.7,0.4-2.8-0.9-3.4
		c-1.3-0.5-2.6-0.8-3.5,0.3c-0.9,1.1-1.1,3-0.8,4c0.3,1,0.3,1.6,0.3,1.6s-2-1.3-2-2c-0.8,0.9-0.5,2.2-0.5,2.2
		c-2.3,0.2-6.4,1.2-8,3.2c-1.5,1.9-3.5,4.5-3.6,7.7c-0.1,3.2,0.9,7.1,2,8.7c2.1,3,5.6,3.9,7.9,3.8c2.3-0.1,5.4-1.8,6.2-2.6
		c0.8-0.8,1.6-3.1,1.1-4.5c-0.5-1.4-3-2.8-3.3-1.6c-0.3,1.1,1.7,0.7,1.7,2.3c0,1.5-1,3.4-2,3.9c-1,0.5-4.4,1.6-6.7,0.6
		c-2.3-1.1-6.5-4-5.2-10.7c1.3-6.7,6.4-9,9.9-9c3.5-0.1,8,0.1,10.6,1.8c2.6,1.8,5.7,4.2,6.2,5C116.7,121.4,118.1,123.8,119,122.7z"
		/>
	<path fill="#FFFFFF" d="M117,124.3c0,0-2.6-4.8-3.8-5c-1.1-0.1-3.8-0.4-4,1.5c-0.2,1.9,0.2,4.5,1.5,5.2c1.2,0.7,3.5,1,3.5,0
		s-0.5-3.7-1.7-3.4c-1.2,0.3-2.3-0.4-1.6-1.3c0.8-0.9,2.2-1.6,2.8-0.5C114.1,122,115.7,125.2,117,124.3z"/>
	<path fill="#FFFFFF" d="M104.7,125.5c0,0,1.8,0.4,2.2-0.9c0.4-1.3-0.7-2.6-1.3-2.2C104.8,122.8,104,124.2,104.7,125.5z"/>
	<path fill="#FFFFFF" d="M105.4,121.3c0,0-0.9-0.5,0.9-2.4c0,0-0.4-2.7,1.8-2.2c2.1,0.5,0.4,3,0,3.6
		C107.5,121.2,105.9,121.6,105.4,121.3z"/>
	<path fill="#FFFFFF" d="M103.6,120.6c0,0-1.3-0.5-1.3-2.1c0-1.7,0-2.9,1-2.7c1.1,0.2,1.2,2.5,1,3.6
		C104.3,120.5,103.6,120.6,103.6,120.6z"/>
	<path fill="#FFFFFF" d="M100.2,115.7c-0.6,0.1-1.3,1.6-0.8,2.4c0.4,0.9,1.3,2.6,1.7,2.4C101.4,120.4,102.1,115.4,100.2,115.7z"/>
	<path fill="#FFFFFF" d="M99,121.6c0,0-0.5-4.1-1.3-4.5c-0.8-0.4-2.6-0.7-2.2,1.1C95.9,119.9,98.4,121.6,99,121.6z"/>
	<path fill="#FFFFFF" d="M97.1,123.4c0,0-4.5-1.6-4.4-3.1c0.1-1.5,1.2-2.2,1.9-1.5S97.1,123.4,97.1,123.4z"/>
	<path fill="#FFFFFF" d="M96.6,125.5c0,0-3.9-4.2-4.7-3.2c-0.8,0.9-1.6,3.1-0.3,3.4C92.8,126,96.3,126.8,96.6,125.5z"/>
	<path fill="#FFFFFF" d="M96.3,127.5c-0.5-1.1-4.4-0.4-4.5,0.7s0,2.5,1.7,2.4C95.2,130.5,96.7,128.4,96.3,127.5z"/>
	<path fill="#FFFFFF" d="M97.1,130.6c-0.7,0-2.3,0.3-1.6,1.1c0.7,0.9,2,1.1,2.6,0.8C98.5,132.1,97.8,130.5,97.1,130.6z"/>
	<path fill="#FFFFFF" d="M100.8,129.5c-0.5-0.2-1.9,1.3-1.4,1.8c0.5,0.5,2.2,0.5,2.5-0.5C102.1,129.9,101.3,129.7,100.8,129.5z"/>
	<path fill="#FFFFFF" d="M99.3,126.4c-1-0.4-2,0.9-1.8,1.4c0.2,0.4,2.6,0.4,2.9,0S100,126.7,99.3,126.4z"/>
	<path fill="#FFFFFF" d="M99.3,122.8c-0.9,0.1-1.2,1-0.8,1.6c0.4,0.6,1.6,1.1,2.4,1.1c0.7,0-0.4-0.9-0.5-1.6
		C100.3,123.2,99.7,122.7,99.3,122.8z"/>
	<path fill="#FFFFFF" d="M102.7,121.6c-0.6-0.4-1.2,0.2-1.1,1c0.1,0.8,0.6,0.5,0.8,0.9s0.2,1.1,0.7,1.1
		C103.5,124.6,103.6,122.1,102.7,121.6z"/>
	<path fill="#FFFFFF" d="M108.2,130.6c0,0-0.9-3.5-1.6-2.5c-0.6,1,0,3.6-0.6,4.5c-0.6,0.9-3.3,1.5-3,2.9c0.4,1.4,2.1,3.2,3.1,2.3
		c1-0.9,3-2.1,3.1-4C109.3,132,108.5,131.5,108.2,130.6z"/>
	<path fill="#FFFFFF" d="M103,138.1c-0.7-0.1-1.2,2.1-0.6,2.5c0.5,0.4,2.1,0.6,2.1-0.5C104.4,139,103.6,138.2,103,138.1z"/>
	<path fill="#FFFFFF" d="M100,136.7c-1-0.3-1.7,1.6-1.1,2.2s2.5,0.8,2.6-0.8S100.6,136.9,100,136.7z"/>
	<path fill="#FFFFFF" d="M92,135.2c-1-0.1,0.4,2.9,1.2,3.4c0.9,0.5,1.6,0.6,1.6-1C94.9,136,92.7,135.3,92,135.2z"/>
	<path fill="#FFFFFF" d="M92.7,140.5c-0.7-2.2-0.9,4.3,0,4.3C93.6,144.8,93.1,141.9,92.7,140.5z"/>
	<path fill="#FFFFFF" d="M95.5,140.5c-0.5-0.1-1.2,2.5-0.6,2.8c0.6,0.3,2.3,0.4,2.2-0.4C97,142,96.3,140.6,95.5,140.5z"/>
	<path fill="#FFFFFF" d="M97.1,139c-0.1,0.5,1.3,0.7,1.2,1.9c-0.1,1.3,0,2.6,1.4,2.5c1.4-0.1,2.2-0.8,1.8-1.8
		C101.1,140.7,97.3,138.1,97.1,139z"/>
	<path fill="#FFFFFF" d="M97.8,144.1c-0.8-0.3-2.9,2.3-4.1,2.3c-1.2-0.1-2.5-0.4-2.4,0.8c0.1,1.2,2,2.2,3.5,1.9
		c1.5-0.4,4-2.3,4.2-3.3C99.1,144.7,98.4,144.3,97.8,144.1z"/>
	<path fill="#FFFFFF" d="M90.1,133.7c-0.4-0.2-0.4,4.5-0.4,5.9s-0.4,5.1-1,5.6c-0.6,0.5-2.5,1.6-2.5,2.9c0,1.3,1.4,2.3,2.3,1.7
		c0.9-0.6,2.3-1.6,2.3-3.1C90.9,145.1,91.1,134.1,90.1,133.7z"/>
	<path fill="#FFFFFF" d="M88.1,137.1c-0.7-0.6-1.1,3.7-2.2,5c-1.1,1.2-1.8,1.7-1.5,2.7c0.3,1,2,1.4,2.8,0.4c0.8-1,1.3-2.8,1.4-3.8
		C88.7,140.5,88.7,137.7,88.1,137.1z"/>
	<path fill="#FFFFFF" d="M87.2,129.2c0,0-1.5,5.3-2.2,6.3c-0.6,1-2.6,2.7-2.4,3.7c0.2,1.1,1.3,2.8,2.6,1.2c1.3-1.6,1.9-5,1.9-6.4
		S87.2,129.2,87.2,129.2z"/>
	<path fill="#FFFFFF" d="M85.3,126.7c-0.4-0.8-1.9,4.6-3.6,4.9c-1.8,0.3-0.8,4,0.6,3.5s2.5-2.8,3-4.2
		C85.8,129.6,85.6,127.4,85.3,126.7z"/>
	<path fill="#FFFFFF" d="M86.5,124.6c0,0,0.1-5.5,1.3-6.9c1.2-1.4,2.1-2,1.2-2.9c-0.9-0.8-2.4-2.6-3-2c-0.6,0.6-0.2,2.1-1.5,2.5
		c-1.3,0.4-3.9,1-5,3.2c-1.2,2.2-1.6,7.6-1.6,9.6c0,2-0.6,12-0.9,13.6c-0.3,1.6-0.6,17.3-1.1,19.2c-0.5,1.9-3.6,2.5-2.8,6.9
		c0.8,4.4,3-0.6,3.1-2.3c0.1-1.6,1.2,2.4,2.8,2.8c1.6,0.4,2.8-0.6,1.7-2.5c-1.1-1.9-3.3-3.3-2.6-5.3c1.8,2.4,3.1,2.8,4,2.1
		c0.9-0.6-1.2-3.8-2.2-4.6c-1-0.8-2.3-2.1-2-4.3c2.7,3.1,4.6,4.7,5.2,3.5c0.6-1.3-0.9-4.2-2-4.7c-1-0.5-3.3-3.8-3.1-5.6
		c2.3,2.8,3.1,4.7,4.6,4.3c1.5-0.4,1.6-2.7,1.1-3.5c-0.5-0.8-3.3-0.5-3.3-2.2c2.1,0.3,2.7,0.5,2.5-1.1c-0.2-1.6-3.9-3-3.8-6.6
		c0.2-3.6,0.3-9.6,0.7-12.6c0.4-3,0.9-7.5,4.5-8.1c-0.2,1.8-1.8,4.2-2.2,5.5s-0.8,2.6-0.9,4.7c0,2.1,0.2,4.9,1.5,2.6
		c1.3-2.3,1.2-4,1.2-5.6c0.1-1.5,1.3-6,2.3-6c-0.4,1.4-0.7,4-0.6,5.1C85.7,124.1,85.1,125.2,86.5,124.6z"/>
</g>
<g>
	<path fill="#FFFFFF" d="M34.8,104.7l1.2,0.4l0.2,0.1c2.1,0.6,5.3,1.6,9.4,3.1l0.9,0.3l0.9-2.7c0.5-0.4,0.9-0.5,1.3-0.4
		c0.3,0.1,0.5,0.3,0.7,0.5c0.1,0.2,0.2,0.5,0.1,0.6c-0.1,0.2-0.2,0.4-0.3,0.6c0,0.2-0.1,0.5-0.2,0.7l-0.4,1.1
		c0.2,0.3,0.2,0.7,0.1,1.1c-0.1,0.4-0.3,0.6-0.7,0.8s-0.6,0.2-0.9,0.1l-1.5-0.8c-2.7-0.9-6.9-2.2-12.4-3.8
		c-5.5-1.6-9.7-2.9-12.4-3.8c-0.2-0.1-0.4-0.2-0.4-0.4c-0.1-0.2-0.1-0.5,0-0.7c0.1-0.3,0.3-0.5,0.5-0.6c0.3-0.1,0.6-0.2,0.8-0.1
		L34.8,104.7z"/>
	<path fill="#FFFFFF" d="M33.3,94.9l-3-1.1c-1.6-0.7-2.3-1.6-1.8-2.5c0.3-0.6,0.8-1.4,1.5-2.4c0.8-1,1.4-1.3,1.8-1.1
		c0.5,0.2,0.7,0.7,0.6,1.5c-0.8,0.9-1.4,1.7-1.8,2.3c0.5,0.2,1,0.4,1.5,0.6l4.9,2.3c0,0,0.2,0.1,0.6,0.1l0.5-1.3
		c0.5-1.1,1.1-1.5,1.7-1.3c0.2,0.1,0.4,0.3,0.5,0.6c0.1,0.3,0.1,0.6-0.1,0.9c-0.1,0.3-0.3,0.6-0.5,1l-0.4,0.9
		c0.9,0.3,1.8,0.7,2.7,1.1l6.2,2.9c1.3,0.6,2,0.8,2,0.8l1-2.6c0.4-0.9,0.9-1.2,1.4-1c0.4,0.2,0.5,0.4,0.6,0.8c0,0.4,0,0.8-0.2,1.1
		l-1.3,2.9c-0.1,0.3-0.4,0.5-0.7,0.7c-0.3,0.2-0.6,0.2-0.9,0.1l-0.9-0.4l-6-2.4L33.3,94.9z"/>
	<path fill="#FFFFFF" d="M56.2,82.5c-2.1-2-5.1-4.7-9.1-8.2c-4-3.5-6.4-5.6-7-6.1l0.5-0.7c0.1-0.2,0.3-0.3,0.5-0.4
		c0.2-0.1,0.4,0,0.6,0.1c1.2,0.8,2.5,2,4,3.6c1.5,1.7,2.5,2.7,3,3.1c0.5,0.4,1.3,1.1,2.4,1.9c1.1,0.8,2.2,1.7,3.3,2.5
		c1.1,0.8,2.1,1.8,3.2,2.7s1.8,1.9,2.3,2.7c0.5,0.8,0.6,1.5,0.2,2.1l-0.9,0.3c-2.6-1.7-5.4-3.1-8.4-4.3c-3-1.2-5.6-2.2-7.7-2.9
		s-3.5-1.1-4.1-1.3c-1.4-0.4-2.2-0.6-2.5-0.8c-0.3-0.2-0.4-0.4-0.5-0.7c0-0.3,0-0.5,0.1-0.7c0.4-0.6,1.8-0.5,4.2,0.2
		c2.4,0.8,4.6,1.6,6.5,2.4c2,0.9,3.5,1.5,4.5,2c1,0.5,2.1,0.9,3.1,1.4C55.4,82.1,56,82.4,56.2,82.5z"/>
	<path fill="#FFFFFF" d="M55.9,68.8l3.2,2.6c2.6,2.1,4.8,3.5,6.6,4.4l0.5,1l-0.7,0.8l-0.7,0c-0.9-0.7-1.9-1.5-3-2.4
		s-3.5-2.7-7.3-5.4C50.8,67,48,65,46.3,63.5c-0.9-0.7-1.1-1.5-0.6-2.1c0.8-1,1.8-1.7,2.9-2c1.1-0.3,2.2,0,3.2,0.8l2.1,1.7
		c0.6,0.5,1,1,1.3,1.6c0.3,0.6,0.6,1.2,0.9,1.9c0.3,0.7,0.5,1.1,0.5,1.2c0.6,0.3,1.7,0.8,3.3,1.7c3.5,1.9,6.3,3,8.2,3.4
		c0.5,0.1,0.9,0.2,1.1,0.4c0.2,0.2,0.4,0.4,0.4,0.6c0.1,0.2,0,0.5-0.2,0.7c-0.3,0.4-1.1,0.4-2.4,0.1c-1.3-0.4-2.6-0.9-3.9-1.6
		c-4.1-2.1-6.4-3.2-6.9-3.4L55.9,68.8z M47.2,61.7l0.3,0.4c0.8,0.6,2,1.6,3.6,2.7c1.6,1.2,2.7,2.1,3.4,2.6c0.1-0.7-0.2-1.5-1-2.6
		c-0.8-1.1-1.5-1.9-2-2.3c-0.5-0.4-1-0.7-1.2-0.9c-0.3-0.2-0.6-0.3-1-0.5C48.5,60.8,47.8,61,47.2,61.7z"/>
	<path fill="#FFFFFF" d="M71.2,59.1l2,1.3c0.2,0.2,0.8,0.7,1.9,1.3c1,0.7,1.7,1.1,1.9,1.4l0,0c0.4,0.4,0.5,0.8,0.3,1.2
		c-0.4,0.4-0.7,0.6-1.1,0.7c-0.3,0.1-0.7,0-1-0.4c-0.8-0.8-2-1.7-3.8-2.9l-3,2.3c0.4,0.8,1,1.5,1.6,2.3c0.6,0.8,1.1,1.4,1.3,1.8
		c0.5,0.8,0.6,1.4,0.1,1.9c-0.2,0.2-0.5,0.3-0.8,0.4c-0.3,0-0.6,0-0.8-0.2L69.8,70c-3.5-5.8-7.2-11.2-11.1-16.2
		c-0.1-0.1-0.4-0.5-1-1.1c-1.2-1.4-1.9-2.4-2-3l0.9-0.9c0.2-0.2,0.5-0.4,0.8-0.5c0.3-0.1,0.6,0,0.8,0.2c1.4,1.3,3.6,3.2,6.7,5.4
		C67.9,56.2,70,58,71.2,59.1z M70.4,61.1c-0.3-0.2-0.8-0.6-1.5-1.3c-0.7-0.6-1.5-1.4-2.6-2.3c-1.1-0.9-2.3-1.9-3.7-3
		c-1.4-1.1-2.5-1.9-3.1-2.5c3.8,5.3,6.5,8.9,8.1,11C68.1,62.9,69,62.3,70.4,61.1z"/>
	<path fill="#FFFFFF" d="M74.9,49.4l5.3,6.1l0.7,0.9l0.7,0.8l0.4-0.3l0.8-0.7c0.8-0.7,1.4-0.8,1.8-0.3c0.2,0.2,0.3,0.5,0.2,0.9
		c0,0.3-0.2,0.6-0.5,0.8l-1.3,1.1c-0.9,0.7-1.5,1.2-1.7,1.4c-0.1,0.1-0.2,0.3-0.3,0.3c-0.7,0.6-1.2,0.6-1.6,0.2
		c-0.1-0.2-0.2-0.4-0.3-0.7c0-0.3,0-0.4,0.1-0.5l0.8-0.7l-0.3-0.4l-5.4-6l-5.3-6.6c-0.9-1.1-1.8-2.1-2.8-3L65.9,43l-0.6,0.6
		c-0.3,0.2-0.6,0.4-0.8,0.4c-0.3,0-0.5-0.1-0.8-0.4c-0.4-0.4-0.1-1.1,0.9-1.9l3.5-2.9c0.8-0.7,1.4-0.8,1.7-0.4
		c0.2,0.2,0.2,0.4,0.2,0.7c0,0.3-0.2,0.5-0.4,0.7L68,41.1c0.7,0.7,1.5,1.6,2.4,2.6L74.9,49.4z"/>
	<path fill="#FFFFFF" d="M81.6,33.1l-1.2-1.6l-0.1-0.2c-0.3-0.5-0.4-0.9-0.4-1.2c0-0.4,0.3-0.7,0.8-1.1c0.6-0.4,1.3-0.6,2-0.6
		c0.7,0,1.4,0.1,2.1,0.5c1.3,0.7,2.3,1.7,3.2,3c0.8,1.4,1.4,2.5,1.7,3.4s0.4,1.8,0.3,2.8c1.3,0.3,2.6,1.3,3.9,3.1
		c0.3,0.4,0.6,0.9,1,1.5c0.4,0.6,0.7,1.2,0.9,1.8c0.2,0.6,0.4,1.3,0.5,1.9c0.1,0.7,0,1.3-0.1,1.9c-0.3,1.3-1.1,2.4-2.4,3.2
		c-0.5,0.3-0.9,0.3-1.2-0.1c-0.3-0.3-0.5-0.6-0.8-1l-3.9-7.1L81.6,33.1z M84.2,33.8l3,4.8c1.1-0.7,0.9-2.4-0.8-5.1
		c-1.7-2.7-3-3.8-3.9-3.4C82.6,30.8,83.2,32,84.2,33.8z M92.6,47.9l0.1,0.1l0.9,1.5c0.6-0.6,0.9-1.4,0.8-2.3
		c-0.1-0.9-0.3-1.7-0.6-2.3c-0.4-0.6-0.7-1.1-0.9-1.4c-0.2-0.3-0.5-0.7-0.9-1.2c-0.4-0.5-0.8-0.8-1.1-1.1c-0.9-0.7-1.7-1-2.5-0.7
		c0.8,1.5,1.7,3.1,2.9,5L92.6,47.9z"/>
	<path fill="#FFFFFF" d="M96,36.4l-0.6-1.3c-0.1-0.1-0.1-0.2-0.1-0.1L95,34.3c-1.7-3.6-2.7-6.3-3-8c-0.3-1.4-0.3-2.4-0.1-2.9
		c0.2-0.5,0.4-0.8,0.7-0.9c2.7-1.3,5.1-0.8,7.4,1.4c1.3,1.3,2.5,3,3.6,5.3l0.1,0.3l1.9,3.9c3.1,6.6,3.2,10.6,0.1,12
		c-1.3,0.6-2.6,0.4-3.9-0.7c-1.3-1-2.3-2.2-3.1-3.4C97.6,39.5,96.7,37.8,96,36.4z M95.8,30.7l1.3,3.2c1.6,3.3,3.2,6.1,4.9,8.3
		c1.3,1.2,2.2,1.8,2.8,1.8c0.4-0.2,0.7-0.5,0.9-1c0.2-0.5,0.2-1.1,0.2-1.7c-0.1-0.7-0.2-1.3-0.4-2c-0.2-0.7-0.4-1.4-0.7-2.1
		c-0.5-1.3-0.9-2.3-1.3-3.2c-0.4-0.9-1.1-2.1-2.1-3.8c-1-1.7-1.7-3-2.1-3.9l-0.3-0.6c-0.4-0.8-1.1-1.4-1.9-1.8
		c-0.8-0.4-1.7-0.4-2.5,0c-0.8,0.4-1.1,1.1-0.9,2.1c0.1,0.8,0.5,1.8,1,2.9L95.8,30.7z"/>
	<path fill="#FFFFFF" d="M108.2,26.7l-2-6.8c-0.4-1.1-0.2-2.1,0.5-3.1l0.1,0.2c0.1-0.1,0.2-0.1,0.2-0.2c0.6-0.2,1.6,0.6,3.1,2.2
		c1.5,1.7,2.9,3.6,4.4,5.7c1.4,2.1,2.9,4.2,4.3,6.4c1.4,2.2,2.3,3.4,2.6,3.8c-1.2-5.2-2.9-11.4-5.2-18.6l-0.4-1
		c-0.2-0.7-0.1-1.2,0.5-1.4c0.3-0.1,0.6-0.1,0.9,0.2c0.3,0.2,0.5,0.5,0.6,0.9l0.9,2.7c0.9,2.8,2,6.7,3.3,11.5
		c1.3,4.8,1.9,7.6,1.7,8.3c-0.6,0.4-1,0.7-1.3,0.7c-0.3,0.1-0.5,0.1-0.7-0.1c-0.2-0.1-0.4-0.4-0.6-0.7s-0.3-0.5-0.4-0.6l0-0.2
		c-0.3-0.9-2.1-3.5-5.4-7.7c-3.3-4.2-5.6-7.1-7-8.7l5.9,18.2c0,0,0.1,0.1,0.2,0.2c0.2,0.2,0.4,0.4,0.5,0.6c0.1,0.2,0,0.5-0.1,0.8
		c-0.1,0.3-0.4,0.5-0.7,0.6c-0.8,0.3-1.4-0.4-1.9-1.8L108.2,26.7z"/>
	<path fill="#FFFFFF" d="M126.5,13.7l1.6,9.3c0.5,0,1.2,0,2.1-0.2l1.3-0.3c0-0.1,0-0.5-0.1-1.2c-0.1-0.7-0.5-2.2-1.1-4.5
		c-0.6-2.3-1-4.1-1.3-5.3c-0.1-0.3,0-0.5,0.2-0.8c0.2-0.2,0.4-0.4,0.6-0.4c0.2,0,0.4,0,0.5,0c0.1,0,0.3,0,0.4,0.1
		c0.2,0,0.3,0.1,0.4,0.1c0.6,3.2,1.6,7.9,3.1,14.1c1.4,6.2,2.2,9.4,2.2,9.6c0,0.2-0.1,0.4-0.3,0.7c-0.2,0.3-0.5,0.4-0.8,0.5
		c-0.3,0.1-0.6-0.1-0.9-0.6c-0.3-0.4-0.6-1.1-0.8-2c-0.2-0.9-0.4-1.7-0.6-2.4c-0.1-0.3-0.1-0.6-0.2-1c-0.1-0.5-0.2-1.1-0.3-1.8
		c-0.2-1.2-0.3-1.8-0.3-2l0-0.1l-0.2-1.1l-0.3-0.3l0,0c-0.2,0.1-0.4,0.2-0.7,0.2l-2.5,0.1l0.8,4.3l1.4,6.1c0.1,0.4,0,0.7-0.1,1
		c-0.1,0.3-0.4,0.5-0.7,0.6c-0.5,0.1-0.9-0.3-1.3-1.2c-0.4-0.9-0.7-2.1-1-3.7l-1-5.7c-0.2-1.2-0.4-1.8-0.4-1.9l0-0.2
		c-0.2-1.3-0.2-2.1-0.3-2.2l-1.9-8.4c-0.1-0.3,0-0.6,0.2-0.8c0.2-0.3,0.4-0.4,0.7-0.5C125.7,11.5,126.2,12.2,126.5,13.7z"/>
	<path fill="#FFFFFF" d="M138.6,15.5l-0.5-3.2c-0.2-1.8,0.3-2.7,1.3-2.8c0.7-0.1,1.6,0,2.8,0.2c1.2,0.2,1.8,0.6,1.9,1
		c0,0.5-0.3,0.9-1,1.3c-1.2-0.3-2.2-0.4-2.9-0.4c0.1,0.5,0.2,1.1,0.2,1.6l0.3,5.4c0,0,0.1,0.2,0.2,0.6l1.3-0.2
		c1.2-0.1,1.9,0.2,1.9,0.9c0,0.3-0.1,0.5-0.3,0.7s-0.5,0.4-0.8,0.4c-0.3,0-0.7,0-1.1,0l-1,0.1c0.2,1,0.3,1.9,0.4,2.9l0.5,6.9
		c0.1,1.4,0.2,2.1,0.3,2.1l2.8-0.4c1-0.1,1.5,0.2,1.5,0.8c0,0.4-0.1,0.7-0.4,0.9c-0.3,0.2-0.7,0.3-1.1,0.4l-3.2,0.3
		c-0.3,0-0.6-0.1-0.9-0.3c-0.3-0.2-0.5-0.5-0.5-0.8l-0.1-1l-0.8-6.4L138.6,15.5z"/>
	<path fill="#FFFFFF" d="M158.8,16.9l0,0.6c-0.1,11.2-1.8,16.9-5,16.8c-1.3,0-2.2-0.5-2.8-1.6c-0.6-1.1-1-2.1-1.1-3.2
		c-0.2-1.6-0.3-3.5-0.3-5.6c0-2.1,0-5.1,0-9.1l-0.1-5.4c0.2-0.5,0.5-0.8,0.8-0.8c0.3,0,0.6,0.2,0.8,0.7c0.2,0.5,0.3,1,0.3,1.5
		l-0.1,10.3c0,0.9,0.1,2.2,0.2,4c0.2,1.8,0.2,3.1,0.2,4c0,1.9,0.8,2.8,2.4,2.8c1.8,0,2.8-6.8,2.9-20.4l0-2.1l0-0.6
		c0-0.3,0.1-0.5,0.2-0.7c0.1-0.1,0.4-0.2,0.7-0.2s0.6,0.1,0.8,0.2c0.2,0.1,0.3,0.2,0.3,0.4c0.1,0.3,0.1,0.7,0.2,1.2l-0.3,3.8
		L158.8,16.9z"/>
	<path fill="#FFFFFF" d="M165.7,21.7l-0.5,4.1c-0.4,3.3-0.4,6-0.2,8l-0.5,1l-1-0.1L163,34c0.2-1.1,0.3-2.4,0.5-3.8
		c0.2-1.4,0.4-4.4,0.7-9.1s0.6-8.1,0.8-10.4c0.1-1.2,0.6-1.7,1.5-1.6c1.3,0.1,2.4,0.6,3.2,1.4c0.8,0.8,1.2,1.8,1,3.1l-0.3,2.7
		c-0.1,0.7-0.3,1.4-0.6,1.9c-0.3,0.6-0.7,1.2-1.2,1.8c-0.4,0.6-0.7,1-0.7,1c0.1,0.6,0.2,1.9,0.3,3.7c0.3,4,0.8,6.9,1.5,8.7
		c0.2,0.5,0.3,0.9,0.3,1.2c0,0.3-0.1,0.5-0.3,0.7c-0.2,0.2-0.4,0.2-0.6,0.2c-0.5-0.1-1-0.7-1.3-2s-0.6-2.7-0.7-4.2
		c-0.4-4.6-0.7-7.2-0.8-7.6L165.7,21.7z M167.1,10.6l-0.2,0.5c-0.1,1-0.3,2.5-0.4,4.5c-0.2,2-0.3,3.4-0.4,4.3c0.6-0.2,1.2-1,1.7-2.2
		c0.5-1.3,0.8-2.2,0.9-2.9c0.1-0.7,0.1-1.2,0.1-1.5s0-0.7-0.1-1.1C168.5,11.2,167.9,10.8,167.1,10.6z"/>
	<path fill="#FFFFFF" d="M183.6,18.2l0.6-3.2c0.5-1.7,1.2-2.5,2.2-2.2c0.7,0.2,1.5,0.6,2.6,1.2c1.1,0.6,1.5,1.1,1.4,1.6
		c-0.1,0.5-0.6,0.8-1.4,0.9c-1-0.7-1.9-1.2-2.6-1.4c-0.1,0.5-0.2,1.1-0.4,1.6l-1.5,5.2c0,0,0,0.2,0,0.6l1.3,0.3
		c1.2,0.3,1.7,0.8,1.5,1.5c-0.1,0.3-0.2,0.5-0.5,0.6c-0.3,0.1-0.6,0.2-0.9,0.1c-0.3-0.1-0.7-0.2-1-0.4l-0.9-0.2
		c-0.2,1-0.4,1.9-0.6,2.8l-1.9,6.6c-0.4,1.4-0.5,2.1-0.5,2.1l2.7,0.6c0.9,0.2,1.3,0.7,1.2,1.3c-0.1,0.4-0.3,0.6-0.7,0.7
		c-0.4,0.1-0.8,0.1-1.2,0l-3.1-0.8c-0.3-0.1-0.6-0.3-0.8-0.6c-0.2-0.3-0.3-0.6-0.2-0.9l0.3-1l1.4-6.3L183.6,18.2z"/>
	<path fill="#FFFFFF" d="M188.2,37.8l1.4,0.8c0.5,0.2,0.9,0.1,1.4-0.2c0.5-0.3,0.9-0.7,1.3-1.2c0.7-1,1.2-2,1.6-2.9
		c0.3-0.9,0.5-1.8,0.5-2.8c0-1-0.1-1.9-0.2-2.8c-0.2-0.9-0.3-1.8-0.5-2.7c-0.4-2.2-0.2-4.1,0.4-5.9c0.4-1.1,0.9-2,1.6-2.7
		c1.2-1.3,2.4-1.7,3.5-1.3c0.4,0.1,0.8,0.4,1.1,0.8c0.3,0.4,0.4,0.8,0.3,1.1c-0.2,0.5-0.6,0.7-1.2,0.5c-0.3-0.1-0.5-0.2-0.7-0.5
		c-0.8-0.2-1.6,0.4-2.4,2c-0.2,0.3-0.4,0.8-0.5,1.2c-0.2,0.5-0.3,1.1-0.3,1.9s0,1.5,0.1,2.2c0.1,0.7,0.2,1.4,0.4,2.2
		s0.2,1.6,0.3,2.3c0.2,1.7,0,3.5-0.7,5.4c-0.5,1.4-1.3,2.7-2.5,3.8c-0.6,0.5-1.2,0.9-2,1.1c-0.7,0.2-1.5,0.2-2.3-0.1l0,0.1
		c-0.9-0.5-1.3-1.1-1.1-2L188.2,37.8z"/>
	<path fill="#FFFFFF" d="M199.8,43.4l1.1-2.7c0,0,0.2-0.4,0.6-1.2c0-0.3,1.1-3,3-8c2-5,3.2-8.1,3.7-9.2c0,0-0.1,0-0.1-0.1
		c-1.9-0.9-2.6-1.7-2.3-2.3c0.1-0.2,0.3-0.3,0.6-0.4s0.6,0,0.8,0.1l4.5,2.5l0.6,0.2c0.7,0.3,1,0.8,0.7,1.3c-0.1,0.3-0.4,0.5-0.7,0.5
		c-0.3,0.1-0.6,0-0.9-0.1l-1.5-1l-0.2,0.3c-1,2.2-2.3,5.5-3.9,10.1c-1.6,4.5-2.9,7.9-3.9,10.1c-0.1,0.3-0.4,0.5-0.7,0.5
		c-0.3,0.1-0.7,0.1-1-0.1L199.8,43.4z"/>
	<path fill="#FFFFFF" d="M219.8,36.1l2-3c0.8-1.3,1.4-2.3,1.7-3.1c0.6-0.7,1.2-0.8,1.6-0.6l1.4,0.9c1.2,0.8,1.8,1.9,1.6,3.2
		c-0.1,1.2-0.6,2.4-1.4,3.5c-1,1.5-1.6,2.4-1.9,2.7c-0.3,0.3-0.6,0.6-0.8,0.8c-0.3,0.2-0.5,0.4-0.8,0.5c-0.2,0.1-0.5,0.2-0.9,0.3
		c-0.3,0.1-0.7,0.2-1,0.2c-0.8,0-1.6-0.1-2.5-0.4l-2.2,3.4l-3.6,6.2c-0.2,0.3-0.4,0.4-0.8,0.5c-0.3,0-0.6,0-0.9-0.2l-0.4-0.8
		c0.5-1.3,1.4-3,2.6-4.9l3.8-5.6c0.1-0.4,0.2-0.7,0.3-0.9l0.1-0.1C218.1,38.4,218.8,37.6,219.8,36.1z M223.7,33.6l-3.9,6.3l0,0
		c1.4,0.7,3.2-0.7,5.4-4.2c0.6-1,1-1.8,1-2.3c0-0.6-0.3-1-0.9-1.4c0,0-0.1-0.1-0.3-0.3L223.7,33.6z"/>
	<path fill="#FFFFFF" d="M230.3,54.5l-1.1,2.1c-0.2,0.2-0.6,0.9-1.1,2s-1,1.8-1.2,2.1l0,0c-0.3,0.4-0.7,0.6-1.2,0.4
		c-0.4-0.3-0.7-0.7-0.8-1c-0.1-0.3,0-0.7,0.3-1.1c0.7-0.8,1.5-2.2,2.5-4l-2.6-2.8c-0.7,0.5-1.4,1.1-2.1,1.8
		c-0.7,0.7-1.3,1.2-1.6,1.5c-0.8,0.6-1.4,0.7-1.9,0.3c-0.2-0.2-0.4-0.4-0.5-0.7c-0.1-0.3,0-0.6,0.2-0.8l0.3-0.2
		c5.4-4.1,10.4-8.3,15-12.7c0.1-0.1,0.5-0.5,1-1.1c1.3-1.4,2.2-2.1,2.8-2.3l1,0.8c0.3,0.2,0.5,0.5,0.6,0.8c0.1,0.3,0.1,0.6-0.1,0.8
		c-1.2,1.5-2.8,3.9-4.8,7.2C232.8,50.9,231.3,53.2,230.3,54.5z M228.3,53.8c0.2-0.3,0.5-0.9,1.1-1.6c0.6-0.7,1.2-1.6,2-2.8
		c0.8-1.1,1.6-2.5,2.6-4c1-1.5,1.7-2.7,2.1-3.3c-4.9,4.3-8.3,7.3-10.1,9.1C226.2,51.7,226.9,52.6,228.3,53.8z"/>
	<path fill="#FFFFFF" d="M238.8,55.5l-2.9,2.9c-2.4,2.4-4,4.4-5,6.2l-1,0.4l-0.8-0.7l0-0.7c0.8-0.8,1.7-1.7,2.7-2.7
		c1-1,3-3.2,6.1-6.7c3.1-3.5,5.5-6,7.1-7.6c0.8-0.9,1.6-1,2.2-0.4c0.9,0.9,1.5,2,1.6,3.1c0.2,1.1-0.2,2.1-1.1,3.1l-1.9,1.9
		c-0.5,0.5-1.1,0.9-1.7,1.1c-0.6,0.2-1.3,0.5-2,0.7s-1.1,0.3-1.2,0.4c-0.3,0.5-1,1.6-2,3.1c-2.2,3.3-3.6,5.9-4.2,7.8
		c-0.2,0.5-0.3,0.9-0.5,1.1c-0.2,0.2-0.4,0.3-0.7,0.3c-0.2,0-0.5,0-0.6-0.2c-0.4-0.4-0.3-1.2,0.2-2.4c0.5-1.2,1.2-2.4,2-3.7
		c2.5-3.9,3.9-6,4.1-6.5L238.8,55.5z M246.8,47.7l-0.5,0.3c-0.7,0.7-1.8,1.8-3.1,3.3c-1.3,1.4-2.3,2.5-3,3.1c0.6,0.2,1.5,0,2.7-0.7
		c1.2-0.7,2-1.3,2.5-1.7s0.8-0.9,1-1.1c0.2-0.3,0.4-0.6,0.6-0.9C247.5,49,247.4,48.3,246.8,47.7z"/>
	<path fill="#FFFFFF" d="M237.8,72l2.2-2c0,0,0.3-0.3,1-0.8c0.2-0.3,2.2-2.3,6.1-6.1c3.9-3.7,6.3-6,7.2-6.8c0,0-0.1-0.1-0.1-0.1
		c-1.3-1.6-1.7-2.6-1.2-3.1c0.2-0.2,0.4-0.2,0.7-0.1c0.3,0.1,0.5,0.3,0.7,0.5l3.1,4.1l0.4,0.5c0.5,0.6,0.5,1.1,0.1,1.5
		c-0.2,0.2-0.5,0.3-0.8,0.2c-0.3-0.1-0.6-0.2-0.8-0.5l-0.9-1.5l-0.3,0.2c-1.8,1.6-4.4,4.1-7.8,7.5c-3.4,3.4-5.9,6-7.8,7.5
		c-0.2,0.2-0.5,0.3-0.9,0.2c-0.4-0.1-0.6-0.2-0.8-0.5L237.8,72z"/>
	<path fill="#FFFFFF" d="M252.7,80l-1.7,1.7c-0.3,0.2-0.8,0.7-1.7,1.6c-0.8,0.9-1.4,1.4-1.7,1.6l0,0c-0.5,0.3-0.9,0.4-1.2,0.1
		c-0.3-0.4-0.5-0.8-0.5-1.2c0-0.3,0.2-0.7,0.6-0.9c0.9-0.6,2.1-1.7,3.5-3.1l-1.7-3.4c-0.8,0.3-1.7,0.7-2.6,1.1c-0.9,0.5-1.6,0.8-2,1
		c-0.9,0.4-1.5,0.3-1.9-0.2c-0.2-0.2-0.2-0.5-0.2-0.8c0-0.3,0.1-0.6,0.4-0.7l0.3-0.1c6.4-2.4,12.4-5,18-7.9c0.2-0.1,0.6-0.3,1.3-0.8
		c1.6-1,2.7-1.4,3.3-1.4l0.7,1.1c0.2,0.3,0.3,0.6,0.3,0.9c0,0.3-0.1,0.5-0.4,0.7c-1.6,1.1-3.8,2.9-6.6,5.5
		C256.1,77.3,254,79,252.7,80z M250.9,78.8c0.3-0.3,0.8-0.7,1.5-1.2c0.8-0.5,1.7-1.2,2.7-2.1c1.1-0.9,2.3-1.9,3.7-3.1
		c1.4-1.2,2.4-2.1,3-2.6c-5.9,2.7-10,4.6-12.3,5.9C249.5,76.2,250,77.2,250.9,78.8z"/>
	<path fill="#FFFFFF" d="M259.6,92.4l-3.5,2.1c-1.1,0.6-2.2,0.7-3.2,0.2s-1.8-1.2-2.3-2.2c-0.8-1.5-0.9-3-0.1-4.3
		c0.5-0.9,1.1-1.7,1.8-2.2c0.7-0.5,1.2-0.9,1.5-1.2c0.4-0.3,0.9-0.6,1.5-1c0.9-0.5,1.6-1,2.2-1.3l1.4-0.8c3.1-1.7,5.2-2.7,6.1-2.9
		c0.9-0.3,1.8-0.5,2.7-0.6s1.6-0.2,2.1,0c1.4,0.3,2.4,1,3,2.1s0.6,1.8,0,2.1c-0.3,0.1-0.5,0.1-0.8,0c-0.3-0.1-0.5-0.3-0.6-0.6
		l-0.3-0.7c-0.4-0.8-1.5-0.9-3.2-0.5c-2.5,0.6-5.3,1.7-8.3,3.4c-2.1,1.1-3.5,2-4.2,2.5c-0.7,0.6-1.3,1.1-1.7,1.5
		c-0.5,0.4-0.8,0.9-1,1.3c-0.5,0.9-0.5,1.8-0.1,2.6c0.6,1.1,2.6,0.7,6.2-1.2l1.5-0.8c0-0.2-0.1-0.5-0.3-0.9l-0.4-0.6
		c-0.4-0.8-0.4-1.3,0.1-1.6c0.3-0.2,0.6-0.2,0.9-0.1c0.3,0.1,0.5,0.4,0.7,0.7l0,0l0.2,0.5c1.1,2,1.3,3.2,0.6,3.6L259.6,92.4z"/>
	<path fill="#FFFFFF" d="M272.3,92.4l2.9-1.4c1.7-0.7,2.7-0.5,3.1,0.4c0.3,0.6,0.5,1.5,0.6,2.8c0.2,1.2,0,1.9-0.4,2.1
		c-0.5,0.2-1,0-1.5-0.6c-0.1-1.2-0.2-2.2-0.4-2.9c-0.5,0.2-1,0.5-1.5,0.7l-5.1,1.9c0,0-0.2,0.1-0.5,0.3l0.6,1.2
		c0.5,1.1,0.4,1.8-0.3,2.1c-0.3,0.1-0.5,0.1-0.8,0c-0.3-0.1-0.5-0.3-0.6-0.7c-0.1-0.3-0.2-0.7-0.4-1l-0.4-0.9
		c-0.9,0.4-1.7,0.8-2.6,1.2l-6.4,2.5c-1.3,0.5-2,0.8-1.9,0.9l1.2,2.6c0.4,0.9,0.3,1.5-0.3,1.7c-0.4,0.1-0.7,0.1-1-0.1
		c-0.3-0.2-0.5-0.6-0.7-0.9l-1.2-3c-0.1-0.3-0.1-0.6,0-1c0.1-0.3,0.3-0.6,0.6-0.7l0.9-0.4l5.8-2.7L272.3,92.4z M280.7,90.6
		c0-0.2,0.1-0.3,0.3-0.3c0.1-0.1,0.4,0,0.8,0.2c0.4,0.2,1.4,0.7,2.8,1.4s2.3,1.2,2.7,1.3c0.1,0.1,0.2,0.3,0.3,0.4
		c0.1,0.2,0,0.4-0.2,0.8c-0.2,0.4-0.4,0.6-0.7,0.7c-0.3,0.1-0.5,0.1-0.7,0c-1-0.6-2.7-1.9-5.1-3.9c-0.1-0.1-0.2-0.2-0.2-0.3
		C280.6,90.9,280.6,90.8,280.7,90.6z"/>
</g>
<g>
	<path fill="#FFFFFF" d="M26.9,198.3l2.7-1.1c0,0,0.4-0.1,1.2-0.4c0.3-0.2,2.9-1.4,7.8-3.7c4.9-2.2,7.9-3.6,9-4c0,0,0-0.1-0.1-0.1
		c-0.7-2-0.8-3.2-0.1-3.4c0.2-0.1,0.5,0,0.7,0.2c0.2,0.2,0.4,0.4,0.5,0.7l1.6,5.2l0.2,0.6c0.3,0.8,0.2,1.3-0.4,1.5
		c-0.3,0.1-0.6,0.1-0.8-0.1c-0.3-0.2-0.5-0.4-0.6-0.8l-0.4-1.8L48,191c-2.2,0.9-5.5,2.4-9.8,4.5c-4.3,2.1-7.6,3.6-9.8,4.5
		c-0.3,0.1-0.6,0.1-0.9-0.1c-0.3-0.2-0.5-0.4-0.7-0.8L26.9,198.3z"/>
	<path fill="#FFFFFF" d="M40.1,201.6l1.3-0.6c0.1-0.1,0.2-0.1,0.1-0.1l0.6-0.3c3.5-1.8,6.2-2.9,7.9-3.3c1.4-0.3,2.4-0.4,2.9-0.2
		c0.5,0.2,0.8,0.4,1,0.8c1.4,2.8,1.1,5.3-1,7.8c-1.2,1.4-2.9,2.7-5.1,3.8l-0.2,0.1l-3.8,2.1c-6.5,3.4-10.5,3.5-12.2,0.3
		c-0.7-1.3-0.5-2.7,0.5-4.1c1-1.3,2.1-2.4,3.2-3.2C37.1,203.3,38.7,202.3,40.1,201.6z M45.9,201.3l-3.2,1.5
		c-3.3,1.7-5.9,3.5-8.1,5.3c-1.1,1.3-1.6,2.3-1.6,3c0.2,0.4,0.6,0.7,1.1,0.9c0.5,0.2,1.1,0.2,1.8,0.1c0.7-0.1,1.3-0.2,2-0.4
		c0.7-0.2,1.4-0.4,2.1-0.7c1.3-0.5,2.3-1,3.1-1.4c0.8-0.4,2.1-1.2,3.8-2.3c1.7-1.1,2.9-1.8,3.8-2.3l0.6-0.3c0.8-0.5,1.4-1.1,1.7-2
		s0.3-1.7-0.1-2.6c-0.4-0.8-1.1-1.1-2.1-0.9c-0.8,0.2-1.8,0.5-2.9,1.1L45.9,201.3z"/>
	<path fill="#FFFFFF" d="M54.3,230.5l-3,2.7c-1,0.8-2,1-3.1,0.7c-1.1-0.3-2-0.9-2.8-1.9c-1.2-1.4-1.5-2.9-1-4.4
		c0.3-1.1,0.8-1.9,1.3-2.5c0.5-0.6,1-1.1,1.3-1.5c0.3-0.3,0.7-0.7,1.3-1.2c0.8-0.7,1.4-1.3,1.9-1.7l1.3-1c2.8-2.2,4.6-3.6,5.5-4
		c0.9-0.4,1.7-0.8,2.5-1.1c0.8-0.3,1.5-0.4,2.1-0.4c1.5,0.1,2.6,0.7,3.5,1.7c0.8,1,1,1.7,0.5,2.1c-0.2,0.2-0.5,0.2-0.8,0.2
		c-0.3-0.1-0.6-0.2-0.8-0.5l-0.5-0.7c-0.6-0.7-1.7-0.7-3.3,0c-2.3,1-4.9,2.6-7.6,4.8c-1.9,1.5-3.1,2.6-3.7,3.3
		c-0.6,0.7-1.1,1.3-1.4,1.8c-0.4,0.5-0.6,1-0.7,1.5c-0.3,1-0.1,1.9,0.5,2.7c0.8,1,2.8,0.2,5.9-2.3l1.4-1.1c0-0.2-0.2-0.5-0.5-0.8
		l-0.5-0.6c-0.6-0.7-0.6-1.3-0.2-1.6c0.3-0.2,0.6-0.3,0.9-0.2c0.3,0.1,0.6,0.3,0.8,0.6l0,0l0.3,0.4c1.5,1.9,2,3,1.4,3.5L54.3,230.5z
		"/>
	<path fill="#FFFFFF" d="M64.7,233.9l-5.4,6l-0.8,0.8l-0.7,0.8l0.4,0.4l0.9,0.8c0.8,0.8,1,1.4,0.5,1.8c-0.2,0.2-0.5,0.3-0.9,0.3
		c-0.4,0-0.7-0.2-0.9-0.4l-1.3-1.2c-0.9-0.8-1.4-1.4-1.6-1.7c-0.2-0.1-0.3-0.2-0.4-0.3c-0.7-0.7-0.8-1.2-0.4-1.6
		c0.2-0.2,0.4-0.3,0.6-0.3c0.3,0,0.4,0,0.6,0.1L56,240l0.4-0.3l5.4-6l6-6c1-1,1.9-2.1,2.7-3.1l-0.6-0.5l-0.7-0.6
		c-0.3-0.3-0.5-0.5-0.5-0.8c-0.1-0.3,0-0.5,0.3-0.8c0.4-0.4,1.1-0.2,2,0.7l3.5,3.3c0.8,0.8,1,1.3,0.6,1.7c-0.2,0.2-0.4,0.2-0.7,0.2
		c-0.3,0-0.6-0.1-0.8-0.3l-1.5-1.4c-0.6,0.8-1.4,1.7-2.3,2.7L64.7,233.9z"/>
	<path fill="#FFFFFF" d="M69.9,248.7c2.1-1.9,5.1-4.7,9-8.4c3.8-3.7,6.1-5.9,6.7-6.5l0.7,0.5c0.2,0.1,0.3,0.3,0.4,0.6s0,0.5-0.1,0.6
		c-0.8,1.1-2.2,2.4-4,3.7c-1.8,1.3-2.9,2.2-3.4,2.7c-0.5,0.4-1.2,1.2-2.1,2.2c-0.9,1.1-1.9,2.1-2.8,3.1c-0.9,1-1.9,2-3,2.9
		c-1,1-2,1.7-2.9,2.1c-0.9,0.4-1.6,0.4-2.1,0l-0.3-0.9c1.8-2.5,3.5-5.2,4.9-8.1c1.4-2.9,2.5-5.5,3.4-7.6c0.8-2.1,1.3-3.4,1.5-4
		c0.4-1.4,0.8-2.2,1-2.5c0.2-0.3,0.4-0.4,0.7-0.4c0.3,0,0.5,0,0.7,0.2c0.6,0.4,0.4,1.8-0.5,4.2c-0.9,2.4-1.9,4.5-2.9,6.4
		c-1,1.9-1.8,3.4-2.3,4.4c-0.5,1-1.1,2-1.6,3C70.3,247.9,70,248.5,69.9,248.7z"/>
	<path fill="#FFFFFF" d="M86.3,242.2l1.4-2.9c0.9-1.5,1.8-2,2.8-1.5c0.6,0.4,1.4,1,2.3,1.9c0.9,0.9,1.2,1.6,1,2
		c-0.3,0.4-0.8,0.6-1.6,0.4c-0.9-1-1.6-1.7-2.3-2.2c-0.2,0.5-0.5,1-0.8,1.4l-2.9,4.6c0,0-0.1,0.2-0.2,0.6l1.3,0.7
		c1.1,0.7,1.5,1.3,1.1,1.9c-0.1,0.2-0.4,0.4-0.7,0.4s-0.6,0-0.9-0.2c-0.3-0.2-0.6-0.4-1-0.7l-0.9-0.5c-0.4,0.9-0.9,1.7-1.4,2.5
		l-3.6,5.9c-0.7,1.2-1.1,1.9-1,1.9l2.6,1.4c0.9,0.5,1.2,1,0.9,1.6c-0.2,0.3-0.5,0.5-0.9,0.5s-0.8-0.2-1.2-0.4l-2.9-1.7
		c-0.3-0.2-0.5-0.4-0.7-0.8s-0.1-0.7,0-0.9l0.5-0.9l3-5.7L86.3,242.2z"/>
	<path fill="#FFFFFF" d="M101.9,257.4l-2.9,7.5l-0.4,1l-0.4,1l0.5,0.2l1.1,0.4c1,0.4,1.4,0.9,1.2,1.5c-0.1,0.3-0.4,0.5-0.7,0.6
		c-0.3,0.1-0.7,0.1-1,0l-1.6-0.7c-1.1-0.5-1.8-0.8-2.1-1c-0.2-0.1-0.4-0.1-0.5-0.2c-0.9-0.4-1.2-0.8-1-1.3c0.1-0.2,0.2-0.4,0.5-0.5
		c0.2-0.1,0.4-0.2,0.6-0.1l1,0.4l0.3-0.4l2.9-7.5l3.5-7.7c0.6-1.3,1-2.6,1.4-3.8l-0.7-0.3l-0.9-0.3c-0.4-0.2-0.6-0.3-0.8-0.6
		c-0.2-0.2-0.1-0.5,0-0.9c0.2-0.5,0.9-0.5,2.2,0l4.4,1.8c1,0.4,1.4,0.9,1.2,1.4c-0.1,0.2-0.3,0.4-0.6,0.5s-0.6,0.1-0.9,0l-1.9-0.8
		c-0.3,1-0.7,2.1-1.2,3.3L101.9,257.4z"/>
	<path fill="#FFFFFF" d="M105.3,270.6l1.5,0.8c0.5,0.2,1,0.1,1.5-0.2s0.9-0.7,1.3-1.2c0.7-1,1.2-2,1.5-2.9c0.3-0.9,0.4-1.8,0.4-2.8
		c0-1-0.1-1.9-0.3-2.8c-0.2-0.9-0.4-1.8-0.6-2.7c-0.4-2.2-0.4-4.2,0.2-5.9c0.4-1.1,0.9-2,1.5-2.7c1.2-1.3,2.5-1.8,3.6-1.4
		c0.4,0.1,0.8,0.4,1.1,0.8c0.3,0.4,0.4,0.8,0.3,1.1c-0.2,0.6-0.6,0.7-1.2,0.5c-0.3-0.1-0.5-0.3-0.7-0.5c-0.8-0.2-1.6,0.4-2.5,2
		c-0.2,0.3-0.4,0.8-0.5,1.2c-0.2,0.5-0.3,1.1-0.3,1.9c0,0.8,0,1.5,0.2,2.2s0.3,1.4,0.5,2.2s0.3,1.6,0.4,2.3c0.3,1.7,0.1,3.5-0.5,5.4
		c-0.5,1.5-1.3,2.7-2.5,3.8c-0.6,0.5-1.2,0.9-2,1.1c-0.8,0.2-1.6,0.2-2.4-0.1l0,0.1c-1-0.5-1.4-1.1-1.2-2L105.3,270.6z"/>
	<path fill="#FFFFFF" d="M125.9,277.5l0.6-2.9c0,0,0.1-0.4,0.3-1.3c0-0.3,0.4-3.2,1.3-8.5s1.5-8.6,1.7-9.8c-0.1,0-0.1,0-0.2,0
		c-2.1-0.5-3.1-1.1-2.9-1.8c0.1-0.2,0.2-0.4,0.6-0.5c0.3-0.1,0.6-0.1,0.9,0l5.2,1.6l0.6,0.1c0.8,0.2,1.2,0.6,1,1.2
		c-0.1,0.3-0.3,0.5-0.6,0.6c-0.3,0.1-0.6,0.1-1,0.1l-1.7-0.7l-0.2,0.4c-0.5,2.3-1.1,5.9-1.8,10.7c-0.6,4.8-1.2,8.3-1.8,10.7
		c-0.1,0.3-0.3,0.5-0.6,0.7c-0.3,0.2-0.7,0.2-1,0.1L125.9,277.5z"/>
	<path fill="#FFFFFF" d="M135.8,268.5l0.2-1.4c0-0.1,0-0.2,0-0.2l0.1-0.7c0.6-3.9,1.2-6.7,1.9-8.3c0.6-1.4,1.1-2.2,1.5-2.4
		c0.4-0.3,0.8-0.4,1.2-0.3c3.1,0.4,5,2.2,5.7,5.3c0.4,1.8,0.5,3.9,0.1,6.4l0,0.3l-0.5,4.3c-1,7.2-3.3,10.6-6.8,10.1
		c-1.5-0.2-2.5-1.1-3-2.8c-0.5-1.6-0.8-3.1-0.7-4.5C135.4,271.9,135.5,270,135.8,268.5z M138.8,263.7l-0.7,3.4
		c-0.5,3.6-0.7,6.9-0.4,9.6c0.4,1.7,0.9,2.7,1.5,3.1c0.5,0.1,0.9-0.1,1.4-0.4c0.4-0.3,0.8-0.8,1.1-1.3c0.3-0.6,0.6-1.2,0.9-1.9
		c0.2-0.7,0.5-1.4,0.6-2.1c0.3-1.3,0.5-2.4,0.7-3.4c0.1-0.9,0.3-2.4,0.4-4.4c0.1-2,0.2-3.4,0.4-4.4l0.1-0.7c0.1-0.9-0.1-1.8-0.6-2.6
		s-1.2-1.3-2.2-1.4c-0.9-0.1-1.6,0.3-2,1.2c-0.4,0.8-0.6,1.8-0.8,2.9L138.8,263.7z"/>
	<path fill="#FFFFFF" d="M157.7,260.4l-0.2-2l0-0.2c0-0.5,0.1-1,0.2-1.3c0.2-0.3,0.6-0.5,1.3-0.5s1.4,0.2,2.1,0.5
		c0.7,0.3,1.3,0.8,1.7,1.5c0.8,1.2,1.2,2.6,1.3,4.2c0,1.6-0.1,2.8-0.3,3.8s-0.6,1.8-1.2,2.6c1.1,0.9,1.7,2.5,1.9,4.7
		c0,0.5,0.1,1.1,0.1,1.8s0,1.4-0.2,2c-0.1,0.7-0.3,1.3-0.6,1.9c-0.3,0.6-0.7,1.1-1.1,1.6c-1,1-2.3,1.5-3.9,1.5
		c-0.6,0-0.9-0.2-1.1-0.7c-0.1-0.4-0.2-0.8-0.2-1.3l0.3-8.1L157.7,260.4z M159.7,262.3l0.1,5.7c1.4-0.1,2.1-1.7,2-4.8
		c-0.1-3.2-0.6-4.8-1.7-4.9C159.8,258.9,159.6,260.2,159.7,262.3z M159.7,278.7l0,0.2l0,1.7c0.9-0.2,1.6-0.7,2-1.5
		c0.4-0.8,0.7-1.6,0.6-2.3c0-0.7,0-1.3-0.1-1.7c0-0.4-0.1-0.9-0.2-1.5c-0.1-0.6-0.3-1.1-0.4-1.6c-0.4-1.1-1-1.7-1.9-1.8
		c-0.1,1.6-0.1,3.6-0.1,5.8L159.7,278.7z"/>
	<path fill="#FFFFFF" d="M168.5,262.5l-0.6-3.2c-0.2-1.8,0.2-2.7,1.4-2.9c0.7-0.1,1.7,0,3,0.1c1.3,0.2,1.9,0.5,2,1
		c0.1,0.5-0.3,1-1,1.3c-1.3-0.2-2.3-0.4-3.1-0.4c0.1,0.5,0.2,1.1,0.2,1.6l0.5,5.4c0,0,0.1,0.2,0.2,0.6l1.4-0.2c1.3-0.1,2,0.1,2,0.8
		c0,0.3-0.1,0.5-0.3,0.8c-0.2,0.2-0.5,0.4-0.8,0.4c-0.4,0-0.7,0.1-1.2,0.1l-1,0.1c0.2,0.9,0.3,1.9,0.4,2.8l0.6,6.9
		c0.2,1.4,0.3,2.1,0.3,2.1l2.9-0.4c1-0.1,1.6,0.1,1.6,0.7c0,0.4-0.1,0.7-0.4,0.9c-0.3,0.2-0.7,0.3-1.2,0.4l-3.4,0.4
		c-0.4,0-0.7,0-1-0.2c-0.3-0.2-0.5-0.4-0.5-0.8l-0.1-1l-1-6.3L168.5,262.5z"/>
	<path fill="#FFFFFF" d="M185.5,255.7l2.5,9.1c0.5,0,1.2-0.2,2.2-0.4l1.4-0.4c0-0.1-0.1-0.5-0.3-1.2c-0.2-0.7-0.7-2.1-1.6-4.4
		c-0.8-2.2-1.4-3.9-1.8-5.1c-0.1-0.3,0-0.5,0.1-0.8c0.2-0.2,0.4-0.4,0.6-0.5c0.2-0.1,0.4-0.1,0.5-0.1c0.1,0,0.3,0,0.5,0
		c0.2,0,0.3,0,0.4,0c0.9,3.2,2.4,7.7,4.5,13.7c2,6,3.1,9.1,3.1,9.3c0.1,0.2,0,0.4-0.2,0.7c-0.2,0.3-0.5,0.5-0.8,0.6
		c-0.3,0.1-0.7-0.1-1-0.5c-0.3-0.4-0.7-1-1-1.9c-0.3-0.9-0.6-1.7-0.8-2.3c-0.1-0.3-0.2-0.6-0.3-1c-0.1-0.5-0.3-1.1-0.5-1.7
		c-0.3-1.1-0.5-1.8-0.5-2l0-0.1l-0.3-1.1l-0.3-0.3l0,0c-0.2,0.1-0.4,0.2-0.7,0.3l-2.6,0.4l1.2,4.2l2,5.9c0.1,0.3,0.1,0.7,0,1
		c-0.1,0.3-0.3,0.5-0.7,0.6c-0.5,0.2-1-0.2-1.5-1c-0.5-0.8-0.9-2-1.4-3.5l-1.5-5.6c-0.3-1.2-0.5-1.8-0.6-1.9l-0.1-0.2
		c-0.3-1.3-0.4-2-0.5-2.2l-2.7-8.1c-0.1-0.3-0.1-0.6,0.1-0.9s0.4-0.5,0.7-0.6C184.5,253.7,185.1,254.3,185.5,255.7z"/>
	<path fill="#FFFFFF" d="M208.9,263.1l1.3,2c0.1,0.3,0.5,0.9,1.3,1.9c0.7,1,1.2,1.7,1.3,2l0,0c0.2,0.5,0.2,0.9-0.2,1.3
		c-0.5,0.2-0.9,0.3-1.3,0.3c-0.4,0-0.6-0.3-0.8-0.7c-0.4-1-1.2-2.3-2.4-4.1l-3.8,1.1c0.1,0.9,0.3,1.8,0.6,2.8c0.3,1,0.5,1.7,0.5,2.2
		c0.2,1,0,1.6-0.6,1.8c-0.3,0.1-0.6,0.2-0.9,0.1c-0.3-0.1-0.5-0.2-0.7-0.5l0-0.3c-1-6.8-2.4-13.2-4.1-19.2c0-0.2-0.2-0.6-0.5-1.4
		c-0.6-1.8-0.9-2.9-0.7-3.5l1.2-0.5c0.3-0.1,0.7-0.2,1-0.2c0.3,0,0.5,0.2,0.7,0.5c0.8,1.8,2.2,4.3,4.2,7.5
		C206.9,259.2,208.2,261.6,208.9,263.1z M207.3,264.7c-0.2-0.3-0.5-0.9-0.9-1.7c-0.4-0.8-0.9-1.9-1.5-3.1c-0.7-1.2-1.4-2.6-2.4-4.2
		c-0.9-1.6-1.6-2.7-2-3.4c1.5,6.3,2.6,10.7,3.3,13.3C204.3,265.6,205.5,265.3,207.3,264.7z"/>
	<path fill="#FFFFFF" d="M210.1,252.7l-1.8-3.1c-0.8-1.3-1.5-2.3-2.1-2.9c-0.3-0.9-0.2-1.4,0.3-1.7l1.5-0.9c1.3-0.8,2.6-0.8,3.7-0.1
		c1,0.7,1.9,1.6,2.6,2.8c0.9,1.5,1.4,2.5,1.5,2.9c0.1,0.4,0.2,0.8,0.3,1.1c0.1,0.4,0.1,0.7,0.1,0.9c0,0.3-0.1,0.6-0.1,0.9
		c-0.1,0.3-0.2,0.7-0.3,1c-0.4,0.7-0.9,1.4-1.6,2.1l2.1,3.5l3.9,6c0.2,0.3,0.2,0.6,0,0.9c-0.1,0.3-0.3,0.6-0.6,0.8l-1,0
		c-1-1-2.1-2.6-3.3-4.6l-3.3-5.9c-0.3-0.2-0.5-0.4-0.7-0.7l-0.1-0.1C211.4,255.1,210.9,254.1,210.1,252.7z M209.7,248l3.8,6.3l0,0
		c1.3-1,0.9-3.2-1.2-6.7c-0.6-1-1.2-1.7-1.6-1.9c-0.5-0.2-1.1-0.2-1.7,0.2c0,0-0.2,0-0.4,0.2L209.7,248z"/>
	<path fill="#FFFFFF" d="M219.5,246.9l-2.1-3c-0.9-1.2-1.7-2.1-2.3-2.7c-0.4-0.8-0.3-1.4,0.1-1.7l1.4-1c1.2-0.9,2.5-1.1,3.7-0.4
		c1.1,0.5,2,1.4,2.8,2.5c1,1.4,1.6,2.3,1.8,2.7c0.2,0.4,0.3,0.7,0.4,1.1s0.2,0.7,0.2,0.9c0,0.3,0,0.6,0,0.9s-0.1,0.7-0.2,1
		c-0.3,0.7-0.7,1.5-1.3,2.3l2.4,3.3l4.5,5.6c0.2,0.2,0.2,0.5,0.1,0.9c-0.1,0.3-0.3,0.6-0.6,0.8l-1,0.1c-1.1-0.9-2.3-2.3-3.7-4.2
		l-3.9-5.6c-0.3-0.2-0.6-0.4-0.7-0.6l-0.1-0.1C221.1,249.2,220.5,248.2,219.5,246.9z M218.6,242.2l4.4,5.9l0,0
		c1.2-1.1,0.6-3.3-1.8-6.6c-0.7-1-1.3-1.5-1.8-1.7c-0.5-0.2-1.1,0-1.7,0.4c0,0-0.1,0-0.4,0.2L218.6,242.2z"/>
	<path fill="#FFFFFF" d="M241.7,247.6c1.1,1.3,1.4,2.2,0.7,2.8c-0.4,0.3-0.8,0.4-1.4,0.1c-0.1-0.6-1.5-2.3-3.9-5.1
		c-0.4-0.5-1.1-1.2-2.1-2c-0.9-0.8-1.6-1.5-2-1.8l-0.7-0.7c-0.1,0-1.1-0.5-2.9-1.4c-4.1-2-6.5-3.3-7-3.9l-0.1-0.2l0.3-1.1
		c0.6-0.5,2.7,0.3,6.1,2.5c1.5,1,2.3,1.4,2.3,1.4c-0.1-0.3-0.6-1.1-1.4-2.5c-2.1-3.6-2.9-5.7-2.2-6.3c0.2-0.2,0.4-0.3,0.7-0.3
		s0.5,0.1,0.6,0.2c0.8,0.9,1.8,2.6,2.8,4.9c1,2.3,1.9,3.9,2.8,4.9L241.7,247.6z"/>
	<path fill="#FFFFFF" d="M241.5,214.4c-0.5-0.4-0.5-0.9,0-1.5c0.5-0.6,0.9-0.7,1.4-0.3c0.6,0.5,1,0.9,1.2,1.1l0.2,0.1
		c0.6,0.9,1.4,1.8,2.4,2.6l2.2,1.8c1.2,1,3,2.7,5.2,5s3.9,3.9,5,4.8c2,1.6,2.7,2.8,2,3.6c-0.5,0.6-1.1,0.6-2-0.1
		c-0.8-0.7-1.7-1.3-2.6-2c-0.9-0.6-1.9-1.3-3.1-2c-1.1-0.7-2.1-1.3-2.8-1.7s-1.8-1.1-3.2-1.9c-1.4-0.8-2.4-1.4-2.9-1.6
		c0.6,0.6,1.2,1.2,1.9,1.7c0.7,0.5,1.9,1.6,3.6,3.3c1.7,1.6,3.4,3.4,5,5.4s2.2,3.1,1.8,3.6c-0.7,0.8-3.2-0.3-7.7-3.2
		c-1.9-1.2-3.8-2.5-5.7-3.8c-4.9-3.3-7.7-5.1-8.5-5.3c-0.2-0.5-0.1-0.9,0.2-1.3c0.5-0.7,1.5-0.4,3,0.7c1.4,1.2,3.8,2.7,7.1,4.6
		c3.3,1.9,5.6,3.4,7,4.5c-5-5.5-9-9.5-12-11.9l0.3-1.1c0.2-0.3,0.4-0.4,0.7-0.5c0.3-0.1,0.5,0,0.8,0.2l0.2,0.2
		c2.4,0.9,5.5,2.7,9.4,5.3c1.8,1.2,3.2,2,4.2,2.6c-2.4-2.6-5.5-5.4-9.3-8.5c-0.5-0.4-1.2-1.1-2-2c-0.9-1-1.5-1.6-2-2
		C241.8,214.7,241.6,214.6,241.5,214.4z"/>
	<path fill="#FFFFFF" d="M257,213l6.9,4.2l0.9,0.6l0.9,0.6l0.3-0.4l0.6-1c0.6-0.9,1.2-1.2,1.7-0.9c0.3,0.2,0.4,0.4,0.5,0.8
		s0,0.7-0.2,1l-1,1.5c-0.7,1-1.1,1.7-1.3,1.9c-0.1,0.2-0.2,0.3-0.2,0.4c-0.5,0.8-1,1-1.5,0.7c-0.2-0.1-0.3-0.3-0.4-0.6
		c-0.1-0.2-0.1-0.4,0-0.6l0.6-1l-0.4-0.3l-6.9-4.2l-7-4.8c-1.2-0.8-2.4-1.5-3.5-2.1l-0.4,0.6l-0.5,0.8c-0.2,0.3-0.4,0.5-0.7,0.7
		c-0.2,0.1-0.5,0.1-0.9-0.2c-0.5-0.3-0.4-1,0.3-2.1l2.6-4c0.6-0.9,1.1-1.2,1.6-0.9c0.2,0.1,0.3,0.3,0.4,0.7c0,0.3,0,0.6-0.2,0.8
		L248,207c0.9,0.5,1.9,1.1,3,1.8L257,213z"/>
	<path fill="#FFFFFF" d="M273.2,209.2l-2.6-1.3c0,0-0.4-0.2-1.1-0.7c-0.3-0.1-2.9-1.3-7.8-3.6c-4.9-2.3-7.9-3.8-8.9-4.3
		c0,0,0,0.1-0.1,0.1c-1.1,1.9-1.9,2.6-2.6,2.3c-0.2-0.1-0.3-0.3-0.3-0.7c0-0.3,0.1-0.6,0.2-0.8l2.9-4.6l0.3-0.6
		c0.4-0.7,0.9-1,1.4-0.7c0.3,0.1,0.4,0.4,0.5,0.7c0,0.3,0,0.6-0.2,0.9l-1.1,1.5l0.3,0.3c2.1,1.2,5.4,2.7,9.8,4.6
		c4.4,1.9,7.7,3.5,9.8,4.6c0.3,0.1,0.4,0.4,0.5,0.8c0.1,0.4,0,0.7-0.2,1L273.2,209.2z"/>
	<path fill="#FFFFFF" d="M258,190l8.6,4.1c0.3-0.4,0.7-1,1.1-1.9l0.6-1.3c-0.1-0.1-0.4-0.3-1.1-0.6s-2.1-0.9-4.3-1.7
		c-2.2-0.8-3.9-1.5-5-2c-0.3-0.1-0.4-0.3-0.5-0.6s-0.1-0.5,0-0.7c0.1-0.2,0.2-0.3,0.3-0.4c0.1-0.1,0.2-0.2,0.3-0.3
		c0.1-0.1,0.2-0.2,0.3-0.3c3,1.4,7.4,3.3,13.3,5.7c5.9,2.4,8.9,3.6,9.1,3.7c0.2,0.1,0.3,0.3,0.4,0.6c0.1,0.3,0,0.7-0.1,1
		c-0.1,0.3-0.5,0.5-1,0.5c-0.5,0-1.2-0.2-2.1-0.5c-0.9-0.3-1.7-0.6-2.3-0.9c-0.3-0.1-0.6-0.3-0.9-0.4c-0.5-0.2-1-0.5-1.6-0.8
		c-1.1-0.5-1.7-0.8-1.8-0.9l-0.1-0.1l-1-0.5l-0.4,0.1l0,0c0,0.2-0.1,0.5-0.2,0.7l-1.4,2.2l4,1.8l5.8,2.4c0.3,0.1,0.6,0.4,0.7,0.7
		c0.2,0.3,0.2,0.6,0,0.9c-0.2,0.5-0.8,0.6-1.7,0.4c-0.9-0.2-2.1-0.6-3.6-1.3l-5.2-2.5c-1.1-0.5-1.7-0.8-1.8-0.8l-0.2-0.1
		c-1.2-0.6-1.8-1-2-1.1l-7.9-3.3c-0.3-0.1-0.5-0.3-0.6-0.6c-0.1-0.3-0.1-0.6,0-0.9C255.8,189.4,256.6,189.4,258,190z"/>
</g>
</svg>
